<svg xmlns="http://www.w3.org/2000/svg" width="1040" height="460" viewBox="0 0 1040 460">
  <rect width="100%" height="100%" fill="#ffffff" />
  <text x="72" y="28" font-family="Arial, sans-serif" font-size="20" font-weight="700" fill="#111827">Go OpenFaaS Redis PGO latency</text>
  <text x="72" y="46" font-family="Arial, sans-serif" font-size="12" fill="#475569">Gateway request latency, 80 measured requests per build</text>
  <g font-family="Arial, sans-serif">
    <line x1="72" y1="388.0" x2="1008" y2="388.0" stroke="#e5e7eb" /><text x="62" y="392.0" text-anchor="end" font-size="12" fill="#475569">0</text><line x1="72" y1="321.2" x2="1008" y2="321.2" stroke="#e5e7eb" /><text x="62" y="325.2" text-anchor="end" font-size="12" fill="#475569">45</text><line x1="72" y1="254.4" x2="1008" y2="254.4" stroke="#e5e7eb" /><text x="62" y="258.4" text-anchor="end" font-size="12" fill="#475569">90</text><line x1="72" y1="187.6" x2="1008" y2="187.6" stroke="#e5e7eb" /><text x="62" y="191.6" text-anchor="end" font-size="12" fill="#475569">135</text><line x1="72" y1="120.8" x2="1008" y2="120.8" stroke="#e5e7eb" /><text x="62" y="124.8" text-anchor="end" font-size="12" fill="#475569">180</text><line x1="72" y1="54.0" x2="1008" y2="54.0" stroke="#e5e7eb" /><text x="62" y="58.0" text-anchor="end" font-size="12" fill="#475569">225</text>
    <line x1="72" y1="388" x2="1008" y2="388" stroke="#94a3b8" />
    <line x1="72" y1="54" x2="72" y2="388" stroke="#94a3b8" />
    <polyline points="72.0,231.0 83.8,236.1 95.7,236.0 107.5,236.1 119.4,234.1 131.2,234.8 143.1,235.0 154.9,235.4 166.8,216.8 178.6,117.9 190.5,216.6 202.3,218.6 214.2,62.7 226.0,195.1 237.9,225.2 249.7,214.7 261.6,223.4 273.4,217.3 285.3,219.5 297.1,211.6 309.0,221.5 320.8,226.6 332.7,230.0 344.5,230.5 356.4,236.1 368.2,231.6 380.1,236.7 391.9,235.1 403.7,149.7 415.6,203.0 427.4,231.9 439.3,223.1 451.1,233.3 463.0,225.1 474.8,220.6 486.7,231.5 498.5,233.3 510.4,231.1 522.2,233.9 534.1,235.7 545.9,235.2 557.8,235.1 569.6,232.9 581.5,235.2 593.3,236.9 605.2,237.0 617.0,237.6 628.9,235.3 640.7,234.8 652.6,235.9 664.4,235.0 676.3,236.0 688.1,236.2 699.9,236.9 711.8,235.6 723.6,234.5 735.5,227.4 747.3,236.0 759.2,236.7 771.0,234.8 782.9,232.5 794.7,226.5 806.6,230.3 818.4,223.0 830.3,234.9 842.1,236.2 854.0,235.6 865.8,234.7 877.7,231.4 889.5,233.6 901.4,236.9 913.2,236.3 925.1,236.9 936.9,235.8 948.8,237.3 960.6,237.1 972.5,230.4 984.3,231.2 996.2,230.6 1008.0,232.9" fill="none" stroke="#334155" stroke-width="2.4" opacity="0.86" /><polyline points="72.0,234.9 83.8,236.2 95.7,232.7 107.5,234.8 119.4,234.8 131.2,236.0 143.1,236.6 154.9,235.2 166.8,236.8 178.6,235.0 190.5,236.7 202.3,235.5 214.2,236.5 226.0,234.8 237.9,230.8 249.7,227.1 261.6,234.5 273.4,232.5 285.3,234.8 297.1,236.1 309.0,233.9 320.8,235.7 332.7,235.3 344.5,234.6 356.4,236.8 368.2,235.6 380.1,236.3 391.9,234.5 403.7,236.1 415.6,235.9 427.4,234.9 439.3,235.0 451.1,236.4 463.0,235.6 474.8,168.5 486.7,229.0 498.5,235.3 510.4,234.6 522.2,236.2 534.1,236.7 545.9,236.2 557.8,234.5 569.6,234.5 581.5,236.0 593.3,234.4 605.2,233.2 617.0,230.5 628.9,236.7 640.7,235.7 652.6,235.7 664.4,236.5 676.3,234.7 688.1,235.7 699.9,233.9 711.8,235.4 723.6,236.4 735.5,236.7 747.3,235.2 759.2,235.5 771.0,234.7 782.9,234.9 794.7,235.4 806.6,234.2 818.4,235.8 830.3,235.4 842.1,234.0 854.0,237.1 865.8,235.6 877.7,235.5 889.5,234.7 901.4,234.6 913.2,235.3 925.1,234.6 936.9,236.3 948.8,234.2 960.6,235.2 972.5,235.3 984.3,236.7 996.2,224.8 1008.0,228.5" fill="none" stroke="#0f766e" stroke-width="2.4" opacity="0.86" /><polyline points="72.0,237.6 83.8,237.8 95.7,236.9 107.5,236.7 119.4,231.9 131.2,235.5 143.1,236.0 154.9,234.4 166.8,236.0 178.6,235.4 190.5,235.5 202.3,237.5 214.2,232.3 226.0,237.3 237.9,235.2 249.7,236.9 261.6,236.2 273.4,236.7 285.3,236.9 297.1,236.1 309.0,236.5 320.8,234.9 332.7,236.6 344.5,235.6 356.4,233.3 368.2,236.5 380.1,236.2 391.9,232.1 403.7,235.8 415.6,230.8 427.4,235.1 439.3,234.1 451.1,237.1 463.0,235.5 474.8,237.3 486.7,235.2 498.5,235.7 510.4,233.7 522.2,234.2 534.1,236.0 545.9,236.8 557.8,235.0 569.6,235.2 581.5,235.7 593.3,237.5 605.2,235.9 617.0,234.2 628.9,236.6 640.7,237.5 652.6,237.0 664.4,237.0 676.3,234.4 688.1,235.3 699.9,235.4 711.8,234.7 723.6,235.5 735.5,235.3 747.3,235.4 759.2,234.8 771.0,236.3 782.9,232.5 794.7,221.5 806.6,235.6 818.4,235.0 830.3,233.2 842.1,233.8 854.0,234.4 865.8,237.2 877.7,234.3 889.5,235.2 901.4,234.0 913.2,237.1 925.1,236.6 936.9,233.7 948.8,236.9 960.6,237.1 972.5,236.7 984.3,234.8 996.2,236.4 1008.0,234.9" fill="none" stroke="#b45309" stroke-width="2.4" opacity="0.86" />
    <text x="540.0" y="442" text-anchor="middle" font-size="13" fill="#334155">HTTP invocation number</text>
    <text x="18" y="221.0" text-anchor="middle" font-size="13" fill="#334155" transform="rotate(-90 18 221.0)">Latency (ms)</text>
    <rect x="72" y="417" width="13" height="13" fill="#334155" /><text x="90" y="428" font-size="12" fill="#334155">No PGO p50=104.0ms p95=130.0ms</text><rect x="372" y="417" width="13" height="13" fill="#0f766e" /><text x="390" y="428" font-size="12" fill="#334155">PGO, 5 warm profiles p50=102.9ms p95=107.4ms</text><rect x="672" y="417" width="13" height="13" fill="#b45309" /><text x="690" y="428" font-size="12" fill="#334155">PGO, 10 warm profiles p50=102.7ms p95=105.0ms</text>
  </g>
</svg>
