<svg xmlns="http://www.w3.org/2000/svg" width="1060" height="920" viewBox="0 0 1060 920">
<rect width="100%" height="100%" fill="#ffffff"/>
<text x="530.0" y="38" text-anchor="middle" font-family="Helvetica, Arial, sans-serif" font-size="24" font-weight="700" fill="#111827">Go AOT PGO profile cache: dacapo-h2</text>
<text x="92" y="68" font-family="Helvetica, Arial, sans-serif" font-size="13" fill="#111827">Profile-optimized warm median: 58.3 -&gt; 55.8 ms (4.3% lower).</text>
<text x="92" y="88" font-family="Helvetica, Arial, sans-serif" font-size="13" fill="#111827">PGO, 3 cached profiles is below baseline on 14/15 paired warm invocations; invocation 1 is kept separate so startup noise does not hide the optimized steady path.</text>
<text x="92" y="118" font-family="Helvetica, Arial, sans-serif" font-size="16" font-weight="700" fill="#111827">Full invocation sequence</text>
<line x1="92" y1="419.0" x2="992" y2="419.0" stroke="#d1d5db"/>
<text x="82" y="423.0" text-anchor="end" font-family="Helvetica, Arial, sans-serif" font-size="12" fill="#111827">0</text>
<line x1="92" y1="362.0" x2="992" y2="362.0" stroke="#d1d5db"/>
<text x="82" y="366.0" text-anchor="end" font-family="Helvetica, Arial, sans-serif" font-size="12" fill="#111827">60</text>
<line x1="92" y1="305.0" x2="992" y2="305.0" stroke="#d1d5db"/>
<text x="82" y="309.0" text-anchor="end" font-family="Helvetica, Arial, sans-serif" font-size="12" fill="#111827">120</text>
<line x1="92" y1="248.0" x2="992" y2="248.0" stroke="#d1d5db"/>
<text x="82" y="252.0" text-anchor="end" font-family="Helvetica, Arial, sans-serif" font-size="12" fill="#111827">180</text>
<line x1="92" y1="191.0" x2="992" y2="191.0" stroke="#d1d5db"/>
<text x="82" y="195.0" text-anchor="end" font-family="Helvetica, Arial, sans-serif" font-size="12" fill="#111827">240</text>
<line x1="92" y1="134.0" x2="992" y2="134.0" stroke="#d1d5db"/>
<text x="82" y="138.0" text-anchor="end" font-family="Helvetica, Arial, sans-serif" font-size="12" fill="#111827">300</text>
<line x1="92.0" y1="134" x2="92.0" y2="419" stroke="#e5e7eb"/>
<text x="92.0" y="441" text-anchor="middle" font-family="Helvetica, Arial, sans-serif" font-size="12" fill="#111827">1</text>
<line x1="152.0" y1="134" x2="152.0" y2="419" stroke="#e5e7eb"/>
<text x="152.0" y="441" text-anchor="middle" font-family="Helvetica, Arial, sans-serif" font-size="12" fill="#111827">2</text>
<line x1="272.0" y1="134" x2="272.0" y2="419" stroke="#e5e7eb"/>
<text x="272.0" y="441" text-anchor="middle" font-family="Helvetica, Arial, sans-serif" font-size="12" fill="#111827">4</text>
<line x1="392.0" y1="134" x2="392.0" y2="419" stroke="#e5e7eb"/>
<text x="392.0" y="441" text-anchor="middle" font-family="Helvetica, Arial, sans-serif" font-size="12" fill="#111827">6</text>
<line x1="512.0" y1="134" x2="512.0" y2="419" stroke="#e5e7eb"/>
<text x="512.0" y="441" text-anchor="middle" font-family="Helvetica, Arial, sans-serif" font-size="12" fill="#111827">8</text>
<line x1="632.0" y1="134" x2="632.0" y2="419" stroke="#e5e7eb"/>
<text x="632.0" y="441" text-anchor="middle" font-family="Helvetica, Arial, sans-serif" font-size="12" fill="#111827">10</text>
<line x1="752.0" y1="134" x2="752.0" y2="419" stroke="#e5e7eb"/>
<text x="752.0" y="441" text-anchor="middle" font-family="Helvetica, Arial, sans-serif" font-size="12" fill="#111827">12</text>
<line x1="872.0" y1="134" x2="872.0" y2="419" stroke="#e5e7eb"/>
<text x="872.0" y="441" text-anchor="middle" font-family="Helvetica, Arial, sans-serif" font-size="12" fill="#111827">14</text>
<line x1="992.0" y1="134" x2="992.0" y2="419" stroke="#e5e7eb"/>
<text x="992.0" y="441" text-anchor="middle" font-family="Helvetica, Arial, sans-serif" font-size="12" fill="#111827">16</text>
<line x1="92" y1="419" x2="992" y2="419" stroke="#111827"/>
<line x1="92" y1="134" x2="92" y2="419" stroke="#111827"/>
<line x1="92.0" y1="134" x2="92.0" y2="419" stroke="#6b7280" stroke-dasharray="5 5"/>
<text x="102.0" y="152.0" font-family="Helvetica, Arial, sans-serif" font-size="12" fill="#374151">startup / first invocation</text>
<polyline points="92.0,363.4 152.0,362.9 212.0,363.2 272.0,363.9 332.0,363.8 392.0,363.6 452.0,363.8 512.0,363.7 572.0,363.6 632.0,363.6 692.0,364.0 752.0,363.2 812.0,363.7 872.0,363.0 932.0,363.3 992.0,359.4" fill="none" stroke="#334155" stroke-width="2.6"/>
<circle cx="92.0" cy="363.4" r="4.0" fill="#334155"/>
<circle cx="152.0" cy="362.9" r="4.0" fill="#334155"/>
<circle cx="212.0" cy="363.2" r="4.0" fill="#334155"/>
<circle cx="272.0" cy="363.9" r="4.0" fill="#334155"/>
<circle cx="332.0" cy="363.8" r="4.0" fill="#334155"/>
<circle cx="392.0" cy="363.6" r="4.0" fill="#334155"/>
<circle cx="452.0" cy="363.8" r="4.0" fill="#334155"/>
<circle cx="512.0" cy="363.7" r="4.0" fill="#334155"/>
<circle cx="572.0" cy="363.6" r="4.0" fill="#334155"/>
<circle cx="632.0" cy="363.6" r="4.0" fill="#334155"/>
<circle cx="692.0" cy="364.0" r="4.0" fill="#334155"/>
<circle cx="752.0" cy="363.2" r="4.0" fill="#334155"/>
<circle cx="812.0" cy="363.7" r="4.0" fill="#334155"/>
<circle cx="872.0" cy="363.0" r="4.0" fill="#334155"/>
<circle cx="932.0" cy="363.3" r="4.0" fill="#334155"/>
<circle cx="992.0" cy="359.4" r="4.0" fill="#334155"/>
<polyline points="92.0,216.8 152.0,366.1 212.0,366.1 272.0,366.1 332.0,366.5 392.0,366.4 452.0,366.0 512.0,364.5 572.0,366.1 632.0,363.9 692.0,361.6 752.0,365.9 812.0,365.8 872.0,366.1 932.0,366.0 992.0,365.9" fill="none" stroke="#0f766e" stroke-width="2.6"/>
<circle cx="92.0" cy="216.8" r="4.0" fill="#0f766e"/>
<circle cx="152.0" cy="366.1" r="4.0" fill="#0f766e"/>
<circle cx="212.0" cy="366.1" r="4.0" fill="#0f766e"/>
<circle cx="272.0" cy="366.1" r="4.0" fill="#0f766e"/>
<circle cx="332.0" cy="366.5" r="4.0" fill="#0f766e"/>
<circle cx="392.0" cy="366.4" r="4.0" fill="#0f766e"/>
<circle cx="452.0" cy="366.0" r="4.0" fill="#0f766e"/>
<circle cx="512.0" cy="364.5" r="4.0" fill="#0f766e"/>
<circle cx="572.0" cy="366.1" r="4.0" fill="#0f766e"/>
<circle cx="632.0" cy="363.9" r="4.0" fill="#0f766e"/>
<circle cx="692.0" cy="361.6" r="4.0" fill="#0f766e"/>
<circle cx="752.0" cy="365.9" r="4.0" fill="#0f766e"/>
<circle cx="812.0" cy="365.8" r="4.0" fill="#0f766e"/>
<circle cx="872.0" cy="366.1" r="4.0" fill="#0f766e"/>
<circle cx="932.0" cy="366.0" r="4.0" fill="#0f766e"/>
<circle cx="992.0" cy="365.9" r="4.0" fill="#0f766e"/>
<text x="92" y="532" font-family="Helvetica, Arial, sans-serif" font-size="16" font-weight="700" fill="#111827">Optimized steady path zoom (invocations 2+)</text>
<line x1="92" y1="833.0" x2="992" y2="833.0" stroke="#d1d5db"/>
<text x="82" y="837.0" text-anchor="end" font-family="Helvetica, Arial, sans-serif" font-size="12" fill="#111827">53.6</text>
<line x1="92" y1="776.0" x2="992" y2="776.0" stroke="#d1d5db"/>
<text x="82" y="780.0" text-anchor="end" font-family="Helvetica, Arial, sans-serif" font-size="12" fill="#111827">55.8</text>
<line x1="92" y1="719.0" x2="992" y2="719.0" stroke="#d1d5db"/>
<text x="82" y="723.0" text-anchor="end" font-family="Helvetica, Arial, sans-serif" font-size="12" fill="#111827">57.9</text>
<line x1="92" y1="662.0" x2="992" y2="662.0" stroke="#d1d5db"/>
<text x="82" y="666.0" text-anchor="end" font-family="Helvetica, Arial, sans-serif" font-size="12" fill="#111827">60.1</text>
<line x1="92" y1="605.0" x2="992" y2="605.0" stroke="#d1d5db"/>
<text x="82" y="609.0" text-anchor="end" font-family="Helvetica, Arial, sans-serif" font-size="12" fill="#111827">62.2</text>
<line x1="92" y1="548.0" x2="992" y2="548.0" stroke="#d1d5db"/>
<text x="82" y="552.0" text-anchor="end" font-family="Helvetica, Arial, sans-serif" font-size="12" fill="#111827">64.3</text>
<line x1="92.0" y1="548" x2="92.0" y2="833" stroke="#e5e7eb"/>
<text x="92.0" y="855" text-anchor="middle" font-family="Helvetica, Arial, sans-serif" font-size="12" fill="#111827">2</text>
<line x1="220.6" y1="548" x2="220.6" y2="833" stroke="#e5e7eb"/>
<text x="220.6" y="855" text-anchor="middle" font-family="Helvetica, Arial, sans-serif" font-size="12" fill="#111827">4</text>
<line x1="349.1" y1="548" x2="349.1" y2="833" stroke="#e5e7eb"/>
<text x="349.1" y="855" text-anchor="middle" font-family="Helvetica, Arial, sans-serif" font-size="12" fill="#111827">6</text>
<line x1="477.7" y1="548" x2="477.7" y2="833" stroke="#e5e7eb"/>
<text x="477.7" y="855" text-anchor="middle" font-family="Helvetica, Arial, sans-serif" font-size="12" fill="#111827">8</text>
<line x1="606.3" y1="548" x2="606.3" y2="833" stroke="#e5e7eb"/>
<text x="606.3" y="855" text-anchor="middle" font-family="Helvetica, Arial, sans-serif" font-size="12" fill="#111827">10</text>
<line x1="734.9" y1="548" x2="734.9" y2="833" stroke="#e5e7eb"/>
<text x="734.9" y="855" text-anchor="middle" font-family="Helvetica, Arial, sans-serif" font-size="12" fill="#111827">12</text>
<line x1="863.4" y1="548" x2="863.4" y2="833" stroke="#e5e7eb"/>
<text x="863.4" y="855" text-anchor="middle" font-family="Helvetica, Arial, sans-serif" font-size="12" fill="#111827">14</text>
<line x1="992.0" y1="548" x2="992.0" y2="833" stroke="#e5e7eb"/>
<text x="992.0" y="855" text-anchor="middle" font-family="Helvetica, Arial, sans-serif" font-size="12" fill="#111827">16</text>
<line x1="92" y1="833" x2="992" y2="833" stroke="#111827"/>
<line x1="92" y1="548" x2="92" y2="833" stroke="#111827"/>
<polyline points="92.0,688.4 156.3,698.1 220.6,715.2 284.9,712.6 349.1,708.1 413.4,712.4 477.7,710.7 542.0,709.3 606.3,708.7 670.6,718.1 734.9,695.5 799.1,711.7 863.4,690.2 927.7,700.8 992.0,591.5" fill="none" stroke="#334155" stroke-width="2.6"/>
<circle cx="92.0" cy="688.4" r="4.0" fill="#334155"/>
<circle cx="156.3" cy="698.1" r="4.0" fill="#334155"/>
<circle cx="220.6" cy="715.2" r="4.0" fill="#334155"/>
<circle cx="284.9" cy="712.6" r="4.0" fill="#334155"/>
<circle cx="349.1" cy="708.1" r="4.0" fill="#334155"/>
<circle cx="413.4" cy="712.4" r="4.0" fill="#334155"/>
<circle cx="477.7" cy="710.7" r="4.0" fill="#334155"/>
<circle cx="542.0" cy="709.3" r="4.0" fill="#334155"/>
<circle cx="606.3" cy="708.7" r="4.0" fill="#334155"/>
<circle cx="670.6" cy="718.1" r="4.0" fill="#334155"/>
<circle cx="734.9" cy="695.5" r="4.0" fill="#334155"/>
<circle cx="799.1" cy="711.7" r="4.0" fill="#334155"/>
<circle cx="863.4" cy="690.2" r="4.0" fill="#334155"/>
<circle cx="927.7" cy="700.8" r="4.0" fill="#334155"/>
<circle cx="992.0" cy="591.5" r="4.0" fill="#334155"/>
<polyline points="92.0,778.9 156.3,777.0 220.6,776.7 284.9,789.5 349.1,786.7 413.4,774.8 477.7,732.1 542.0,778.6 606.3,717.2 670.6,652.6 734.9,772.5 799.1,769.8 863.4,777.1 927.7,775.0 992.0,771.9" fill="none" stroke="#0f766e" stroke-width="2.6"/>
<circle cx="92.0" cy="778.9" r="4.0" fill="#0f766e"/>
<circle cx="156.3" cy="777.0" r="4.0" fill="#0f766e"/>
<circle cx="220.6" cy="776.7" r="4.0" fill="#0f766e"/>
<circle cx="284.9" cy="789.5" r="4.0" fill="#0f766e"/>
<circle cx="349.1" cy="786.7" r="4.0" fill="#0f766e"/>
<circle cx="413.4" cy="774.8" r="4.0" fill="#0f766e"/>
<circle cx="477.7" cy="732.1" r="4.0" fill="#0f766e"/>
<circle cx="542.0" cy="778.6" r="4.0" fill="#0f766e"/>
<circle cx="606.3" cy="717.2" r="4.0" fill="#0f766e"/>
<circle cx="670.6" cy="652.6" r="4.0" fill="#0f766e"/>
<circle cx="734.9" cy="772.5" r="4.0" fill="#0f766e"/>
<circle cx="799.1" cy="769.8" r="4.0" fill="#0f766e"/>
<circle cx="863.4" cy="777.1" r="4.0" fill="#0f766e"/>
<circle cx="927.7" cy="775.0" r="4.0" fill="#0f766e"/>
<circle cx="992.0" cy="771.9" r="4.0" fill="#0f766e"/>
<line x1="92" y1="708.7" x2="992" y2="708.7" stroke="#334155" stroke-width="1.5" stroke-dasharray="6 6" opacity="0.75"/>
<text x="984" y="700.7" text-anchor="end" font-family="Helvetica, Arial, sans-serif" font-size="12" fill="#334155">No PGO baseline median 58.3 ms</text>
<line x1="92" y1="775.0" x2="992" y2="775.0" stroke="#0f766e" stroke-width="1.5" stroke-dasharray="6 6" opacity="0.75"/>
<text x="984" y="765.0" text-anchor="end" font-family="Helvetica, Arial, sans-serif" font-size="12" fill="#0f766e">PGO, 3 cached profiles median 55.8 ms</text>
<line x1="758" y1="68" x2="790" y2="68" stroke="#334155" stroke-width="3"/>
<circle cx="774" cy="68" r="4" fill="#334155"/>
<text x="800" y="72" font-family="Helvetica, Arial, sans-serif" font-size="13" fill="#111827">No PGO baseline</text>
<line x1="758" y1="92" x2="790" y2="92" stroke="#0f766e" stroke-width="3"/>
<circle cx="774" cy="92" r="4" fill="#0f766e"/>
<text x="800" y="96" font-family="Helvetica, Arial, sans-serif" font-size="13" fill="#111827">PGO, 3 cached profiles</text>
<text x="542.0" y="896" text-anchor="middle" font-family="Helvetica, Arial, sans-serif" font-size="17" fill="#111827">Invocation #</text>
<text x="28" y="460.0" text-anchor="middle" font-family="Helvetica, Arial, sans-serif" font-size="17" fill="#111827" transform="rotate(-90 28 460.0)">Latency (ms)</text>
</svg>
