<svg xmlns="http://www.w3.org/2000/svg" width="1120" height="640" viewBox="0 0 1120 640" role="img" aria-label="Go PGO cold invocation latency">
<title>Go PGO cold invocation latency</title>
<rect width="100%" height="100%" fill="#ffffff"/>
<line x1="92.0" y1="552.0" x2="1074.0" y2="552.0" stroke="#e2e8f0" stroke-width="1"/>
<text x="80.0" y="556.0" text-anchor="end" font-family="Inter, ui-sans-serif, system-ui, -apple-system, BlinkMacSystemFont, Segoe UI, sans-serif" font-size="11" font-weight="400" fill="#64748b">0</text>
<line x1="92.0" y1="456.8" x2="1074.0" y2="456.8" stroke="#e2e8f0" stroke-width="1"/>
<text x="80.0" y="460.8" text-anchor="end" font-family="Inter, ui-sans-serif, system-ui, -apple-system, BlinkMacSystemFont, Segoe UI, sans-serif" font-size="11" font-weight="400" fill="#64748b">60</text>
<line x1="92.0" y1="361.6" x2="1074.0" y2="361.6" stroke="#e2e8f0" stroke-width="1"/>
<text x="80.0" y="365.6" text-anchor="end" font-family="Inter, ui-sans-serif, system-ui, -apple-system, BlinkMacSystemFont, Segoe UI, sans-serif" font-size="11" font-weight="400" fill="#64748b">120</text>
<line x1="92.0" y1="266.4" x2="1074.0" y2="266.4" stroke="#e2e8f0" stroke-width="1"/>
<text x="80.0" y="270.4" text-anchor="end" font-family="Inter, ui-sans-serif, system-ui, -apple-system, BlinkMacSystemFont, Segoe UI, sans-serif" font-size="11" font-weight="400" fill="#64748b">180</text>
<line x1="92.0" y1="171.2" x2="1074.0" y2="171.2" stroke="#e2e8f0" stroke-width="1"/>
<text x="80.0" y="175.2" text-anchor="end" font-family="Inter, ui-sans-serif, system-ui, -apple-system, BlinkMacSystemFont, Segoe UI, sans-serif" font-size="11" font-weight="400" fill="#64748b">240</text>
<line x1="92.0" y1="76.0" x2="1074.0" y2="76.0" stroke="#e2e8f0" stroke-width="1"/>
<text x="80.0" y="80.0" text-anchor="end" font-family="Inter, ui-sans-serif, system-ui, -apple-system, BlinkMacSystemFont, Segoe UI, sans-serif" font-size="11" font-weight="400" fill="#64748b">300</text>
<line x1="92.0" y1="76.0" x2="92.0" y2="552.0" stroke="#64748b" stroke-width="1.2"/>
<line x1="92.0" y1="552.0" x2="1074.0" y2="552.0" stroke="#64748b" stroke-width="1.2"/>
<text x="24.0" y="314.0" text-anchor="middle" font-family="Inter, ui-sans-serif, system-ui, -apple-system, BlinkMacSystemFont, Segoe UI, sans-serif" font-size="13" font-weight="600" fill="#334155" transform="rotate(-90 24.0 314.0)">Wall latency (ms)</text>
<text x="560.0" y="32.0" text-anchor="middle" font-family="Inter, ui-sans-serif, system-ui, -apple-system, BlinkMacSystemFont, Segoe UI, sans-serif" font-size="22" font-weight="700" fill="#0f172a">Go PGO Serverless Profile Cache: Cold Invocation Latency</text>
<text x="560.0" y="56.0" text-anchor="middle" font-family="Inter, ui-sans-serif, system-ui, -apple-system, BlinkMacSystemFont, Segoe UI, sans-serif" font-size="13" font-weight="400" fill="#475569">Each point is a separate process invocation of the function binary.</text>
<polyline points="92.0,459.1 157.5,458.3 222.9,458.9 288.4,459.9 353.9,459.7 419.3,459.5 484.8,459.7 550.3,459.6 615.7,459.6 681.2,459.5 746.7,460.1 812.1,458.7 877.6,459.7 943.1,458.4 1008.5,459.0 1074.0,452.5" fill="none" stroke="#334155" stroke-width="2.4" stroke-linejoin="round" stroke-linecap="round"/>
<circle cx="92.0" cy="459.1" r="3.0" fill="#334155" stroke="#ffffff" stroke-width="1"/>
<circle cx="157.5" cy="458.3" r="3.0" fill="#334155" stroke="#ffffff" stroke-width="1"/>
<circle cx="222.9" cy="458.9" r="3.0" fill="#334155" stroke="#ffffff" stroke-width="1"/>
<circle cx="288.4" cy="459.9" r="3.0" fill="#334155" stroke="#ffffff" stroke-width="1"/>
<circle cx="353.9" cy="459.7" r="3.0" fill="#334155" stroke="#ffffff" stroke-width="1"/>
<circle cx="419.3" cy="459.5" r="3.0" fill="#334155" stroke="#ffffff" stroke-width="1"/>
<circle cx="484.8" cy="459.7" r="3.0" fill="#334155" stroke="#ffffff" stroke-width="1"/>
<circle cx="550.3" cy="459.6" r="3.0" fill="#334155" stroke="#ffffff" stroke-width="1"/>
<circle cx="615.7" cy="459.6" r="3.0" fill="#334155" stroke="#ffffff" stroke-width="1"/>
<circle cx="681.2" cy="459.5" r="3.0" fill="#334155" stroke="#ffffff" stroke-width="1"/>
<circle cx="746.7" cy="460.1" r="3.0" fill="#334155" stroke="#ffffff" stroke-width="1"/>
<circle cx="812.1" cy="458.7" r="3.0" fill="#334155" stroke="#ffffff" stroke-width="1"/>
<circle cx="877.6" cy="459.7" r="3.0" fill="#334155" stroke="#ffffff" stroke-width="1"/>
<circle cx="943.1" cy="458.4" r="3.0" fill="#334155" stroke="#ffffff" stroke-width="1"/>
<circle cx="1008.5" cy="459.0" r="3.0" fill="#334155" stroke="#ffffff" stroke-width="1"/>
<circle cx="1074.0" cy="452.5" r="3.0" fill="#334155" stroke="#ffffff" stroke-width="1"/>
<polyline points="92.0,214.3 157.5,463.7 222.9,463.6 288.4,463.6 353.9,464.3 419.3,464.2 484.8,463.5 550.3,460.9 615.7,463.7 681.2,460.0 746.7,456.2 812.1,463.3 877.6,463.2 943.1,463.6 1008.5,463.5 1074.0,463.3" fill="none" stroke="#7c3aed" stroke-width="2.4" stroke-linejoin="round" stroke-linecap="round"/>
<circle cx="92.0" cy="214.3" r="3.0" fill="#7c3aed" stroke="#ffffff" stroke-width="1"/>
<circle cx="157.5" cy="463.7" r="3.0" fill="#7c3aed" stroke="#ffffff" stroke-width="1"/>
<circle cx="222.9" cy="463.6" r="3.0" fill="#7c3aed" stroke="#ffffff" stroke-width="1"/>
<circle cx="288.4" cy="463.6" r="3.0" fill="#7c3aed" stroke="#ffffff" stroke-width="1"/>
<circle cx="353.9" cy="464.3" r="3.0" fill="#7c3aed" stroke="#ffffff" stroke-width="1"/>
<circle cx="419.3" cy="464.2" r="3.0" fill="#7c3aed" stroke="#ffffff" stroke-width="1"/>
<circle cx="484.8" cy="463.5" r="3.0" fill="#7c3aed" stroke="#ffffff" stroke-width="1"/>
<circle cx="550.3" cy="460.9" r="3.0" fill="#7c3aed" stroke="#ffffff" stroke-width="1"/>
<circle cx="615.7" cy="463.7" r="3.0" fill="#7c3aed" stroke="#ffffff" stroke-width="1"/>
<circle cx="681.2" cy="460.0" r="3.0" fill="#7c3aed" stroke="#ffffff" stroke-width="1"/>
<circle cx="746.7" cy="456.2" r="3.0" fill="#7c3aed" stroke="#ffffff" stroke-width="1"/>
<circle cx="812.1" cy="463.3" r="3.0" fill="#7c3aed" stroke="#ffffff" stroke-width="1"/>
<circle cx="877.6" cy="463.2" r="3.0" fill="#7c3aed" stroke="#ffffff" stroke-width="1"/>
<circle cx="943.1" cy="463.6" r="3.0" fill="#7c3aed" stroke="#ffffff" stroke-width="1"/>
<circle cx="1008.5" cy="463.5" r="3.0" fill="#7c3aed" stroke="#ffffff" stroke-width="1"/>
<circle cx="1074.0" cy="463.3" r="3.0" fill="#7c3aed" stroke="#ffffff" stroke-width="1"/>
<polyline points="92.0,234.2 157.5,457.9 222.9,460.3 288.4,459.8 353.9,461.1 419.3,459.9 484.8,457.5 550.3,459.9 615.7,460.4 681.2,460.3 746.7,459.6 812.1,461.7 877.6,426.6 943.1,460.7 1008.5,460.2 1074.0,462.1" fill="none" stroke="#0f766e" stroke-width="2.4" stroke-linejoin="round" stroke-linecap="round"/>
<circle cx="92.0" cy="234.2" r="3.0" fill="#0f766e" stroke="#ffffff" stroke-width="1"/>
<circle cx="157.5" cy="457.9" r="3.0" fill="#0f766e" stroke="#ffffff" stroke-width="1"/>
<circle cx="222.9" cy="460.3" r="3.0" fill="#0f766e" stroke="#ffffff" stroke-width="1"/>
<circle cx="288.4" cy="459.8" r="3.0" fill="#0f766e" stroke="#ffffff" stroke-width="1"/>
<circle cx="353.9" cy="461.1" r="3.0" fill="#0f766e" stroke="#ffffff" stroke-width="1"/>
<circle cx="419.3" cy="459.9" r="3.0" fill="#0f766e" stroke="#ffffff" stroke-width="1"/>
<circle cx="484.8" cy="457.5" r="3.0" fill="#0f766e" stroke="#ffffff" stroke-width="1"/>
<circle cx="550.3" cy="459.9" r="3.0" fill="#0f766e" stroke="#ffffff" stroke-width="1"/>
<circle cx="615.7" cy="460.4" r="3.0" fill="#0f766e" stroke="#ffffff" stroke-width="1"/>
<circle cx="681.2" cy="460.3" r="3.0" fill="#0f766e" stroke="#ffffff" stroke-width="1"/>
<circle cx="746.7" cy="459.6" r="3.0" fill="#0f766e" stroke="#ffffff" stroke-width="1"/>
<circle cx="812.1" cy="461.7" r="3.0" fill="#0f766e" stroke="#ffffff" stroke-width="1"/>
<circle cx="877.6" cy="426.6" r="3.0" fill="#0f766e" stroke="#ffffff" stroke-width="1"/>
<circle cx="943.1" cy="460.7" r="3.0" fill="#0f766e" stroke="#ffffff" stroke-width="1"/>
<circle cx="1008.5" cy="460.2" r="3.0" fill="#0f766e" stroke="#ffffff" stroke-width="1"/>
<circle cx="1074.0" cy="462.1" r="3.0" fill="#0f766e" stroke="#ffffff" stroke-width="1"/>
<line x1="92.0" y1="552.0" x2="92.0" y2="558.0" stroke="#64748b" stroke-width="1"/>
<text x="92.0" y="576.0" text-anchor="middle" font-family="Inter, ui-sans-serif, system-ui, -apple-system, BlinkMacSystemFont, Segoe UI, sans-serif" font-size="11" font-weight="400" fill="#475569">1</text>
<line x1="353.9" y1="552.0" x2="353.9" y2="558.0" stroke="#64748b" stroke-width="1"/>
<text x="353.9" y="576.0" text-anchor="middle" font-family="Inter, ui-sans-serif, system-ui, -apple-system, BlinkMacSystemFont, Segoe UI, sans-serif" font-size="11" font-weight="400" fill="#475569">5</text>
<line x1="681.2" y1="552.0" x2="681.2" y2="558.0" stroke="#64748b" stroke-width="1"/>
<text x="681.2" y="576.0" text-anchor="middle" font-family="Inter, ui-sans-serif, system-ui, -apple-system, BlinkMacSystemFont, Segoe UI, sans-serif" font-size="11" font-weight="400" fill="#475569">10</text>
<line x1="1008.5" y1="552.0" x2="1008.5" y2="558.0" stroke="#64748b" stroke-width="1"/>
<text x="1008.5" y="576.0" text-anchor="middle" font-family="Inter, ui-sans-serif, system-ui, -apple-system, BlinkMacSystemFont, Segoe UI, sans-serif" font-size="11" font-weight="400" fill="#475569">15</text>
<line x1="1074.0" y1="552.0" x2="1074.0" y2="558.0" stroke="#64748b" stroke-width="1"/>
<text x="1074.0" y="576.0" text-anchor="middle" font-family="Inter, ui-sans-serif, system-ui, -apple-system, BlinkMacSystemFont, Segoe UI, sans-serif" font-size="11" font-weight="400" fill="#475569">16</text>
<text x="583.0" y="612.0" text-anchor="middle" font-family="Inter, ui-sans-serif, system-ui, -apple-system, BlinkMacSystemFont, Segoe UI, sans-serif" font-size="13" font-weight="600" fill="#334155">Cold invocation number</text>
<line x1="854.0" y1="82.0" x2="884.0" y2="82.0" stroke="#334155" stroke-width="3"/>
<circle cx="869.0" cy="82.0" r="4.0" fill="#334155" stroke="#ffffff" stroke-width="1"/>
<text x="896.0" y="86.0" text-anchor="start" font-family="Inter, ui-sans-serif, system-ui, -apple-system, BlinkMacSystemFont, Segoe UI, sans-serif" font-size="12" font-weight="600" fill="#334155">No PGO</text>
<line x1="854.0" y1="106.0" x2="884.0" y2="106.0" stroke="#7c3aed" stroke-width="3"/>
<circle cx="869.0" cy="106.0" r="4.0" fill="#7c3aed" stroke="#ffffff" stroke-width="1"/>
<text x="896.0" y="110.0" text-anchor="start" font-family="Inter, ui-sans-serif, system-ui, -apple-system, BlinkMacSystemFont, Segoe UI, sans-serif" font-size="12" font-weight="600" fill="#334155">PGO, 3 profiles</text>
<line x1="854.0" y1="130.0" x2="884.0" y2="130.0" stroke="#0f766e" stroke-width="3"/>
<circle cx="869.0" cy="130.0" r="4.0" fill="#0f766e" stroke="#ffffff" stroke-width="1"/>
<text x="896.0" y="134.0" text-anchor="start" font-family="Inter, ui-sans-serif, system-ui, -apple-system, BlinkMacSystemFont, Segoe UI, sans-serif" font-size="12" font-weight="600" fill="#334155">PGO, 5 profiles</text>
</svg>