<svg xmlns="http://www.w3.org/2000/svg" width="1120" height="640" viewBox="0 0 1120 640" role="img" aria-label="Go PGO cold invocation latency">
<title>Go PGO cold invocation latency</title>
<rect width="100%" height="100%" fill="#ffffff"/>
<line x1="92.0" y1="552.0" x2="1074.0" y2="552.0" stroke="#e2e8f0" stroke-width="1"/>
<text x="80.0" y="556.0" text-anchor="end" font-family="Inter, ui-sans-serif, system-ui, -apple-system, BlinkMacSystemFont, Segoe UI, sans-serif" font-size="11" font-weight="400" fill="#64748b">0</text>
<line x1="92.0" y1="456.8" x2="1074.0" y2="456.8" stroke="#e2e8f0" stroke-width="1"/>
<text x="80.0" y="460.8" text-anchor="end" font-family="Inter, ui-sans-serif, system-ui, -apple-system, BlinkMacSystemFont, Segoe UI, sans-serif" font-size="11" font-weight="400" fill="#64748b">100</text>
<line x1="92.0" y1="361.6" x2="1074.0" y2="361.6" stroke="#e2e8f0" stroke-width="1"/>
<text x="80.0" y="365.6" text-anchor="end" font-family="Inter, ui-sans-serif, system-ui, -apple-system, BlinkMacSystemFont, Segoe UI, sans-serif" font-size="11" font-weight="400" fill="#64748b">200</text>
<line x1="92.0" y1="266.4" x2="1074.0" y2="266.4" stroke="#e2e8f0" stroke-width="1"/>
<text x="80.0" y="270.4" text-anchor="end" font-family="Inter, ui-sans-serif, system-ui, -apple-system, BlinkMacSystemFont, Segoe UI, sans-serif" font-size="11" font-weight="400" fill="#64748b">300</text>
<line x1="92.0" y1="171.2" x2="1074.0" y2="171.2" stroke="#e2e8f0" stroke-width="1"/>
<text x="80.0" y="175.2" text-anchor="end" font-family="Inter, ui-sans-serif, system-ui, -apple-system, BlinkMacSystemFont, Segoe UI, sans-serif" font-size="11" font-weight="400" fill="#64748b">400</text>
<line x1="92.0" y1="76.0" x2="1074.0" y2="76.0" stroke="#e2e8f0" stroke-width="1"/>
<text x="80.0" y="80.0" text-anchor="end" font-family="Inter, ui-sans-serif, system-ui, -apple-system, BlinkMacSystemFont, Segoe UI, sans-serif" font-size="11" font-weight="400" fill="#64748b">500</text>
<line x1="92.0" y1="76.0" x2="92.0" y2="552.0" stroke="#64748b" stroke-width="1.2"/>
<line x1="92.0" y1="552.0" x2="1074.0" y2="552.0" stroke="#64748b" stroke-width="1.2"/>
<text x="24.0" y="314.0" text-anchor="middle" font-family="Inter, ui-sans-serif, system-ui, -apple-system, BlinkMacSystemFont, Segoe UI, sans-serif" font-size="13" font-weight="600" fill="#334155" transform="rotate(-90 24.0 314.0)">Wall latency (ms)</text>
<text x="560.0" y="32.0" text-anchor="middle" font-family="Inter, ui-sans-serif, system-ui, -apple-system, BlinkMacSystemFont, Segoe UI, sans-serif" font-size="22" font-weight="700" fill="#0f172a">Go PGO Serverless Profile Cache: Cold Invocation Latency</text>
<text x="560.0" y="56.0" text-anchor="middle" font-family="Inter, ui-sans-serif, system-ui, -apple-system, BlinkMacSystemFont, Segoe UI, sans-serif" font-size="13" font-weight="400" fill="#475569">Each point is a separate process invocation of the function binary.</text>
<polyline points="92.0,370.0 143.7,356.9 195.4,371.8 247.1,373.2 298.7,376.3 350.4,380.2 402.1,375.7 453.8,373.4 505.5,352.0 557.2,365.4 608.8,380.5 660.5,375.6 712.2,376.1 763.9,377.8 815.6,361.0 867.3,379.2 918.9,382.5 970.6,374.2 1022.3,397.2 1074.0,387.4" fill="none" stroke="#334155" stroke-width="2.4" stroke-linejoin="round" stroke-linecap="round"/>
<circle cx="92.0" cy="370.0" r="3.0" fill="#334155" stroke="#ffffff" stroke-width="1"/>
<circle cx="143.7" cy="356.9" r="3.0" fill="#334155" stroke="#ffffff" stroke-width="1"/>
<circle cx="195.4" cy="371.8" r="3.0" fill="#334155" stroke="#ffffff" stroke-width="1"/>
<circle cx="247.1" cy="373.2" r="3.0" fill="#334155" stroke="#ffffff" stroke-width="1"/>
<circle cx="298.7" cy="376.3" r="3.0" fill="#334155" stroke="#ffffff" stroke-width="1"/>
<circle cx="350.4" cy="380.2" r="3.0" fill="#334155" stroke="#ffffff" stroke-width="1"/>
<circle cx="402.1" cy="375.7" r="3.0" fill="#334155" stroke="#ffffff" stroke-width="1"/>
<circle cx="453.8" cy="373.4" r="3.0" fill="#334155" stroke="#ffffff" stroke-width="1"/>
<circle cx="505.5" cy="352.0" r="3.0" fill="#334155" stroke="#ffffff" stroke-width="1"/>
<circle cx="557.2" cy="365.4" r="3.0" fill="#334155" stroke="#ffffff" stroke-width="1"/>
<circle cx="608.8" cy="380.5" r="3.0" fill="#334155" stroke="#ffffff" stroke-width="1"/>
<circle cx="660.5" cy="375.6" r="3.0" fill="#334155" stroke="#ffffff" stroke-width="1"/>
<circle cx="712.2" cy="376.1" r="3.0" fill="#334155" stroke="#ffffff" stroke-width="1"/>
<circle cx="763.9" cy="377.8" r="3.0" fill="#334155" stroke="#ffffff" stroke-width="1"/>
<circle cx="815.6" cy="361.0" r="3.0" fill="#334155" stroke="#ffffff" stroke-width="1"/>
<circle cx="867.3" cy="379.2" r="3.0" fill="#334155" stroke="#ffffff" stroke-width="1"/>
<circle cx="918.9" cy="382.5" r="3.0" fill="#334155" stroke="#ffffff" stroke-width="1"/>
<circle cx="970.6" cy="374.2" r="3.0" fill="#334155" stroke="#ffffff" stroke-width="1"/>
<circle cx="1022.3" cy="397.2" r="3.0" fill="#334155" stroke="#ffffff" stroke-width="1"/>
<circle cx="1074.0" cy="387.4" r="3.0" fill="#334155" stroke="#ffffff" stroke-width="1"/>
<polyline points="92.0,282.4 143.7,420.5 195.4,416.2 247.1,400.1 298.7,390.2 350.4,397.3 402.1,404.3 453.8,410.2 505.5,409.0 557.2,409.9 608.8,326.7 660.5,359.6 712.2,386.9 763.9,391.9 815.6,394.3 867.3,398.2 918.9,377.1 970.6,388.2 1022.3,398.2 1074.0,404.9" fill="none" stroke="#0f766e" stroke-width="2.4" stroke-linejoin="round" stroke-linecap="round"/>
<circle cx="92.0" cy="282.4" r="3.0" fill="#0f766e" stroke="#ffffff" stroke-width="1"/>
<circle cx="143.7" cy="420.5" r="3.0" fill="#0f766e" stroke="#ffffff" stroke-width="1"/>
<circle cx="195.4" cy="416.2" r="3.0" fill="#0f766e" stroke="#ffffff" stroke-width="1"/>
<circle cx="247.1" cy="400.1" r="3.0" fill="#0f766e" stroke="#ffffff" stroke-width="1"/>
<circle cx="298.7" cy="390.2" r="3.0" fill="#0f766e" stroke="#ffffff" stroke-width="1"/>
<circle cx="350.4" cy="397.3" r="3.0" fill="#0f766e" stroke="#ffffff" stroke-width="1"/>
<circle cx="402.1" cy="404.3" r="3.0" fill="#0f766e" stroke="#ffffff" stroke-width="1"/>
<circle cx="453.8" cy="410.2" r="3.0" fill="#0f766e" stroke="#ffffff" stroke-width="1"/>
<circle cx="505.5" cy="409.0" r="3.0" fill="#0f766e" stroke="#ffffff" stroke-width="1"/>
<circle cx="557.2" cy="409.9" r="3.0" fill="#0f766e" stroke="#ffffff" stroke-width="1"/>
<circle cx="608.8" cy="326.7" r="3.0" fill="#0f766e" stroke="#ffffff" stroke-width="1"/>
<circle cx="660.5" cy="359.6" r="3.0" fill="#0f766e" stroke="#ffffff" stroke-width="1"/>
<circle cx="712.2" cy="386.9" r="3.0" fill="#0f766e" stroke="#ffffff" stroke-width="1"/>
<circle cx="763.9" cy="391.9" r="3.0" fill="#0f766e" stroke="#ffffff" stroke-width="1"/>
<circle cx="815.6" cy="394.3" r="3.0" fill="#0f766e" stroke="#ffffff" stroke-width="1"/>
<circle cx="867.3" cy="398.2" r="3.0" fill="#0f766e" stroke="#ffffff" stroke-width="1"/>
<circle cx="918.9" cy="377.1" r="3.0" fill="#0f766e" stroke="#ffffff" stroke-width="1"/>
<circle cx="970.6" cy="388.2" r="3.0" fill="#0f766e" stroke="#ffffff" stroke-width="1"/>
<circle cx="1022.3" cy="398.2" r="3.0" fill="#0f766e" stroke="#ffffff" stroke-width="1"/>
<circle cx="1074.0" cy="404.9" r="3.0" fill="#0f766e" stroke="#ffffff" stroke-width="1"/>
<polyline points="92.0,188.7 143.7,377.6 195.4,371.8 247.1,373.2 298.7,385.4 350.4,381.1 402.1,400.0 453.8,390.7 505.5,401.9 557.2,407.0 608.8,395.5 660.5,400.7 712.2,408.2 763.9,397.4 815.6,396.4 867.3,376.2 918.9,400.1 970.6,399.9 1022.3,404.6 1074.0,403.4" fill="none" stroke="#b45309" stroke-width="2.4" stroke-linejoin="round" stroke-linecap="round"/>
<circle cx="92.0" cy="188.7" r="3.0" fill="#b45309" stroke="#ffffff" stroke-width="1"/>
<circle cx="143.7" cy="377.6" r="3.0" fill="#b45309" stroke="#ffffff" stroke-width="1"/>
<circle cx="195.4" cy="371.8" r="3.0" fill="#b45309" stroke="#ffffff" stroke-width="1"/>
<circle cx="247.1" cy="373.2" r="3.0" fill="#b45309" stroke="#ffffff" stroke-width="1"/>
<circle cx="298.7" cy="385.4" r="3.0" fill="#b45309" stroke="#ffffff" stroke-width="1"/>
<circle cx="350.4" cy="381.1" r="3.0" fill="#b45309" stroke="#ffffff" stroke-width="1"/>
<circle cx="402.1" cy="400.0" r="3.0" fill="#b45309" stroke="#ffffff" stroke-width="1"/>
<circle cx="453.8" cy="390.7" r="3.0" fill="#b45309" stroke="#ffffff" stroke-width="1"/>
<circle cx="505.5" cy="401.9" r="3.0" fill="#b45309" stroke="#ffffff" stroke-width="1"/>
<circle cx="557.2" cy="407.0" r="3.0" fill="#b45309" stroke="#ffffff" stroke-width="1"/>
<circle cx="608.8" cy="395.5" r="3.0" fill="#b45309" stroke="#ffffff" stroke-width="1"/>
<circle cx="660.5" cy="400.7" r="3.0" fill="#b45309" stroke="#ffffff" stroke-width="1"/>
<circle cx="712.2" cy="408.2" r="3.0" fill="#b45309" stroke="#ffffff" stroke-width="1"/>
<circle cx="763.9" cy="397.4" r="3.0" fill="#b45309" stroke="#ffffff" stroke-width="1"/>
<circle cx="815.6" cy="396.4" r="3.0" fill="#b45309" stroke="#ffffff" stroke-width="1"/>
<circle cx="867.3" cy="376.2" r="3.0" fill="#b45309" stroke="#ffffff" stroke-width="1"/>
<circle cx="918.9" cy="400.1" r="3.0" fill="#b45309" stroke="#ffffff" stroke-width="1"/>
<circle cx="970.6" cy="399.9" r="3.0" fill="#b45309" stroke="#ffffff" stroke-width="1"/>
<circle cx="1022.3" cy="404.6" r="3.0" fill="#b45309" stroke="#ffffff" stroke-width="1"/>
<circle cx="1074.0" cy="403.4" r="3.0" fill="#b45309" stroke="#ffffff" stroke-width="1"/>
<line x1="92.0" y1="552.0" x2="92.0" y2="558.0" stroke="#64748b" stroke-width="1"/>
<text x="92.0" y="576.0" text-anchor="middle" font-family="Inter, ui-sans-serif, system-ui, -apple-system, BlinkMacSystemFont, Segoe UI, sans-serif" font-size="11" font-weight="400" fill="#475569">1</text>
<line x1="298.7" y1="552.0" x2="298.7" y2="558.0" stroke="#64748b" stroke-width="1"/>
<text x="298.7" y="576.0" text-anchor="middle" font-family="Inter, ui-sans-serif, system-ui, -apple-system, BlinkMacSystemFont, Segoe UI, sans-serif" font-size="11" font-weight="400" fill="#475569">5</text>
<line x1="557.2" y1="552.0" x2="557.2" y2="558.0" stroke="#64748b" stroke-width="1"/>
<text x="557.2" y="576.0" text-anchor="middle" font-family="Inter, ui-sans-serif, system-ui, -apple-system, BlinkMacSystemFont, Segoe UI, sans-serif" font-size="11" font-weight="400" fill="#475569">10</text>
<line x1="815.6" y1="552.0" x2="815.6" y2="558.0" stroke="#64748b" stroke-width="1"/>
<text x="815.6" y="576.0" text-anchor="middle" font-family="Inter, ui-sans-serif, system-ui, -apple-system, BlinkMacSystemFont, Segoe UI, sans-serif" font-size="11" font-weight="400" fill="#475569">15</text>
<line x1="1074.0" y1="552.0" x2="1074.0" y2="558.0" stroke="#64748b" stroke-width="1"/>
<text x="1074.0" y="576.0" text-anchor="middle" font-family="Inter, ui-sans-serif, system-ui, -apple-system, BlinkMacSystemFont, Segoe UI, sans-serif" font-size="11" font-weight="400" fill="#475569">20</text>
<text x="583.0" y="612.0" text-anchor="middle" font-family="Inter, ui-sans-serif, system-ui, -apple-system, BlinkMacSystemFont, Segoe UI, sans-serif" font-size="13" font-weight="600" fill="#334155">Cold invocation number</text>
<line x1="854.0" y1="82.0" x2="884.0" y2="82.0" stroke="#334155" stroke-width="3"/>
<circle cx="869.0" cy="82.0" r="4.0" fill="#334155" stroke="#ffffff" stroke-width="1"/>
<text x="896.0" y="86.0" text-anchor="start" font-family="Inter, ui-sans-serif, system-ui, -apple-system, BlinkMacSystemFont, Segoe UI, sans-serif" font-size="12" font-weight="600" fill="#334155">No PGO</text>
<line x1="854.0" y1="106.0" x2="884.0" y2="106.0" stroke="#0f766e" stroke-width="3"/>
<circle cx="869.0" cy="106.0" r="4.0" fill="#0f766e" stroke="#ffffff" stroke-width="1"/>
<text x="896.0" y="110.0" text-anchor="start" font-family="Inter, ui-sans-serif, system-ui, -apple-system, BlinkMacSystemFont, Segoe UI, sans-serif" font-size="12" font-weight="600" fill="#334155">PGO, 5 profiles</text>
<line x1="854.0" y1="130.0" x2="884.0" y2="130.0" stroke="#b45309" stroke-width="3"/>
<circle cx="869.0" cy="130.0" r="4.0" fill="#b45309" stroke="#ffffff" stroke-width="1"/>
<text x="896.0" y="134.0" text-anchor="start" font-family="Inter, ui-sans-serif, system-ui, -apple-system, BlinkMacSystemFont, Segoe UI, sans-serif" font-size="12" font-weight="600" fill="#334155">PGO, 10 profiles</text>
</svg>