<svg xmlns="http://www.w3.org/2000/svg" width="1120" height="640" viewBox="0 0 1120 640" role="img" aria-label="Go PGO cold invocation latency">
<title>Go PGO cold invocation latency</title>
<rect width="100%" height="100%" fill="#ffffff"/>
<line x1="92.0" y1="552.0" x2="1074.0" y2="552.0" stroke="#e2e8f0" stroke-width="1"/>
<text x="80.0" y="556.0" text-anchor="end" font-family="Inter, ui-sans-serif, system-ui, -apple-system, BlinkMacSystemFont, Segoe UI, sans-serif" font-size="11" font-weight="400" fill="#64748b">0</text>
<line x1="92.0" y1="456.8" x2="1074.0" y2="456.8" stroke="#e2e8f0" stroke-width="1"/>
<text x="80.0" y="460.8" text-anchor="end" font-family="Inter, ui-sans-serif, system-ui, -apple-system, BlinkMacSystemFont, Segoe UI, sans-serif" font-size="11" font-weight="400" fill="#64748b">60</text>
<line x1="92.0" y1="361.6" x2="1074.0" y2="361.6" stroke="#e2e8f0" stroke-width="1"/>
<text x="80.0" y="365.6" text-anchor="end" font-family="Inter, ui-sans-serif, system-ui, -apple-system, BlinkMacSystemFont, Segoe UI, sans-serif" font-size="11" font-weight="400" fill="#64748b">120</text>
<line x1="92.0" y1="266.4" x2="1074.0" y2="266.4" stroke="#e2e8f0" stroke-width="1"/>
<text x="80.0" y="270.4" text-anchor="end" font-family="Inter, ui-sans-serif, system-ui, -apple-system, BlinkMacSystemFont, Segoe UI, sans-serif" font-size="11" font-weight="400" fill="#64748b">180</text>
<line x1="92.0" y1="171.2" x2="1074.0" y2="171.2" stroke="#e2e8f0" stroke-width="1"/>
<text x="80.0" y="175.2" text-anchor="end" font-family="Inter, ui-sans-serif, system-ui, -apple-system, BlinkMacSystemFont, Segoe UI, sans-serif" font-size="11" font-weight="400" fill="#64748b">240</text>
<line x1="92.0" y1="76.0" x2="1074.0" y2="76.0" stroke="#e2e8f0" stroke-width="1"/>
<text x="80.0" y="80.0" text-anchor="end" font-family="Inter, ui-sans-serif, system-ui, -apple-system, BlinkMacSystemFont, Segoe UI, sans-serif" font-size="11" font-weight="400" fill="#64748b">300</text>
<line x1="92.0" y1="76.0" x2="92.0" y2="552.0" stroke="#64748b" stroke-width="1.2"/>
<line x1="92.0" y1="552.0" x2="1074.0" y2="552.0" stroke="#64748b" stroke-width="1.2"/>
<text x="24.0" y="314.0" text-anchor="middle" font-family="Inter, ui-sans-serif, system-ui, -apple-system, BlinkMacSystemFont, Segoe UI, sans-serif" font-size="13" font-weight="600" fill="#334155" transform="rotate(-90 24.0 314.0)">Wall latency (ms)</text>
<text x="560.0" y="32.0" text-anchor="middle" font-family="Inter, ui-sans-serif, system-ui, -apple-system, BlinkMacSystemFont, Segoe UI, sans-serif" font-size="22" font-weight="700" fill="#0f172a">Go PGO Serverless Profile Cache: Cold Invocation Latency</text>
<text x="560.0" y="56.0" text-anchor="middle" font-family="Inter, ui-sans-serif, system-ui, -apple-system, BlinkMacSystemFont, Segoe UI, sans-serif" font-size="13" font-weight="400" fill="#475569">Each point is a separate process invocation of the function binary.</text>
<polyline points="92.0,396.4 232.3,467.4 372.6,466.6 512.9,467.1 653.1,467.3 793.4,467.1 933.7,467.2 1074.0,467.2" fill="none" stroke="#334155" stroke-width="2.4" stroke-linejoin="round" stroke-linecap="round"/>
<circle cx="92.0" cy="396.4" r="3.0" fill="#334155" stroke="#ffffff" stroke-width="1"/>
<circle cx="232.3" cy="467.4" r="3.0" fill="#334155" stroke="#ffffff" stroke-width="1"/>
<circle cx="372.6" cy="466.6" r="3.0" fill="#334155" stroke="#ffffff" stroke-width="1"/>
<circle cx="512.9" cy="467.1" r="3.0" fill="#334155" stroke="#ffffff" stroke-width="1"/>
<circle cx="653.1" cy="467.3" r="3.0" fill="#334155" stroke="#ffffff" stroke-width="1"/>
<circle cx="793.4" cy="467.1" r="3.0" fill="#334155" stroke="#ffffff" stroke-width="1"/>
<circle cx="933.7" cy="467.2" r="3.0" fill="#334155" stroke="#ffffff" stroke-width="1"/>
<circle cx="1074.0" cy="467.2" r="3.0" fill="#334155" stroke="#ffffff" stroke-width="1"/>
<polyline points="92.0,240.2 232.3,471.8 372.6,470.9 512.9,471.5 653.1,472.3 793.4,471.6 933.7,472.6 1074.0,471.8" fill="none" stroke="#7c3aed" stroke-width="2.4" stroke-linejoin="round" stroke-linecap="round"/>
<circle cx="92.0" cy="240.2" r="3.0" fill="#7c3aed" stroke="#ffffff" stroke-width="1"/>
<circle cx="232.3" cy="471.8" r="3.0" fill="#7c3aed" stroke="#ffffff" stroke-width="1"/>
<circle cx="372.6" cy="470.9" r="3.0" fill="#7c3aed" stroke="#ffffff" stroke-width="1"/>
<circle cx="512.9" cy="471.5" r="3.0" fill="#7c3aed" stroke="#ffffff" stroke-width="1"/>
<circle cx="653.1" cy="472.3" r="3.0" fill="#7c3aed" stroke="#ffffff" stroke-width="1"/>
<circle cx="793.4" cy="471.6" r="3.0" fill="#7c3aed" stroke="#ffffff" stroke-width="1"/>
<circle cx="933.7" cy="472.6" r="3.0" fill="#7c3aed" stroke="#ffffff" stroke-width="1"/>
<circle cx="1074.0" cy="471.8" r="3.0" fill="#7c3aed" stroke="#ffffff" stroke-width="1"/>
<polyline points="92.0,216.5 232.3,471.3 372.6,471.5 512.9,471.4 653.1,471.5 793.4,471.5 933.7,472.3 1074.0,472.1" fill="none" stroke="#0f766e" stroke-width="2.4" stroke-linejoin="round" stroke-linecap="round"/>
<circle cx="92.0" cy="216.5" r="3.0" fill="#0f766e" stroke="#ffffff" stroke-width="1"/>
<circle cx="232.3" cy="471.3" r="3.0" fill="#0f766e" stroke="#ffffff" stroke-width="1"/>
<circle cx="372.6" cy="471.5" r="3.0" fill="#0f766e" stroke="#ffffff" stroke-width="1"/>
<circle cx="512.9" cy="471.4" r="3.0" fill="#0f766e" stroke="#ffffff" stroke-width="1"/>
<circle cx="653.1" cy="471.5" r="3.0" fill="#0f766e" stroke="#ffffff" stroke-width="1"/>
<circle cx="793.4" cy="471.5" r="3.0" fill="#0f766e" stroke="#ffffff" stroke-width="1"/>
<circle cx="933.7" cy="472.3" r="3.0" fill="#0f766e" stroke="#ffffff" stroke-width="1"/>
<circle cx="1074.0" cy="472.1" r="3.0" fill="#0f766e" stroke="#ffffff" stroke-width="1"/>
<line x1="92.0" y1="552.0" x2="92.0" y2="558.0" stroke="#64748b" stroke-width="1"/>
<text x="92.0" y="576.0" text-anchor="middle" font-family="Inter, ui-sans-serif, system-ui, -apple-system, BlinkMacSystemFont, Segoe UI, sans-serif" font-size="11" font-weight="400" fill="#475569">1</text>
<line x1="653.1" y1="552.0" x2="653.1" y2="558.0" stroke="#64748b" stroke-width="1"/>
<text x="653.1" y="576.0" text-anchor="middle" font-family="Inter, ui-sans-serif, system-ui, -apple-system, BlinkMacSystemFont, Segoe UI, sans-serif" font-size="11" font-weight="400" fill="#475569">5</text>
<line x1="1074.0" y1="552.0" x2="1074.0" y2="558.0" stroke="#64748b" stroke-width="1"/>
<text x="1074.0" y="576.0" text-anchor="middle" font-family="Inter, ui-sans-serif, system-ui, -apple-system, BlinkMacSystemFont, Segoe UI, sans-serif" font-size="11" font-weight="400" fill="#475569">8</text>
<text x="583.0" y="612.0" text-anchor="middle" font-family="Inter, ui-sans-serif, system-ui, -apple-system, BlinkMacSystemFont, Segoe UI, sans-serif" font-size="13" font-weight="600" fill="#334155">Cold invocation number</text>
<line x1="854.0" y1="82.0" x2="884.0" y2="82.0" stroke="#334155" stroke-width="3"/>
<circle cx="869.0" cy="82.0" r="4.0" fill="#334155" stroke="#ffffff" stroke-width="1"/>
<text x="896.0" y="86.0" text-anchor="start" font-family="Inter, ui-sans-serif, system-ui, -apple-system, BlinkMacSystemFont, Segoe UI, sans-serif" font-size="12" font-weight="600" fill="#334155">No PGO</text>
<line x1="854.0" y1="106.0" x2="884.0" y2="106.0" stroke="#7c3aed" stroke-width="3"/>
<circle cx="869.0" cy="106.0" r="4.0" fill="#7c3aed" stroke="#ffffff" stroke-width="1"/>
<text x="896.0" y="110.0" text-anchor="start" font-family="Inter, ui-sans-serif, system-ui, -apple-system, BlinkMacSystemFont, Segoe UI, sans-serif" font-size="12" font-weight="600" fill="#334155">PGO, 3 profiles</text>
<line x1="854.0" y1="130.0" x2="884.0" y2="130.0" stroke="#0f766e" stroke-width="3"/>
<circle cx="869.0" cy="130.0" r="4.0" fill="#0f766e" stroke="#ffffff" stroke-width="1"/>
<text x="896.0" y="134.0" text-anchor="start" font-family="Inter, ui-sans-serif, system-ui, -apple-system, BlinkMacSystemFont, Segoe UI, sans-serif" font-size="12" font-weight="600" fill="#334155">PGO, 5 profiles</text>
</svg>