<svg xmlns="http://www.w3.org/2000/svg" width="1120" height="640" viewBox="0 0 1120 640" role="img" aria-label="Go PGO cold invocation latency">
<title>Go PGO cold invocation latency</title>
<rect width="100%" height="100%" fill="#ffffff"/>
<line x1="92.0" y1="552.0" x2="1074.0" y2="552.0" stroke="#e2e8f0" stroke-width="1"/>
<text x="80.0" y="556.0" text-anchor="end" font-family="Inter, ui-sans-serif, system-ui, -apple-system, BlinkMacSystemFont, Segoe UI, sans-serif" font-size="11" font-weight="400" fill="#64748b">0</text>
<line x1="92.0" y1="456.8" x2="1074.0" y2="456.8" stroke="#e2e8f0" stroke-width="1"/>
<text x="80.0" y="460.8" text-anchor="end" font-family="Inter, ui-sans-serif, system-ui, -apple-system, BlinkMacSystemFont, Segoe UI, sans-serif" font-size="11" font-weight="400" fill="#64748b">200</text>
<line x1="92.0" y1="361.6" x2="1074.0" y2="361.6" stroke="#e2e8f0" stroke-width="1"/>
<text x="80.0" y="365.6" text-anchor="end" font-family="Inter, ui-sans-serif, system-ui, -apple-system, BlinkMacSystemFont, Segoe UI, sans-serif" font-size="11" font-weight="400" fill="#64748b">400</text>
<line x1="92.0" y1="266.4" x2="1074.0" y2="266.4" stroke="#e2e8f0" stroke-width="1"/>
<text x="80.0" y="270.4" text-anchor="end" font-family="Inter, ui-sans-serif, system-ui, -apple-system, BlinkMacSystemFont, Segoe UI, sans-serif" font-size="11" font-weight="400" fill="#64748b">600</text>
<line x1="92.0" y1="171.2" x2="1074.0" y2="171.2" stroke="#e2e8f0" stroke-width="1"/>
<text x="80.0" y="175.2" text-anchor="end" font-family="Inter, ui-sans-serif, system-ui, -apple-system, BlinkMacSystemFont, Segoe UI, sans-serif" font-size="11" font-weight="400" fill="#64748b">800</text>
<line x1="92.0" y1="76.0" x2="1074.0" y2="76.0" stroke="#e2e8f0" stroke-width="1"/>
<text x="80.0" y="80.0" text-anchor="end" font-family="Inter, ui-sans-serif, system-ui, -apple-system, BlinkMacSystemFont, Segoe UI, sans-serif" font-size="11" font-weight="400" fill="#64748b">1000</text>
<line x1="92.0" y1="76.0" x2="92.0" y2="552.0" stroke="#64748b" stroke-width="1.2"/>
<line x1="92.0" y1="552.0" x2="1074.0" y2="552.0" stroke="#64748b" stroke-width="1.2"/>
<text x="24.0" y="314.0" text-anchor="middle" font-family="Inter, ui-sans-serif, system-ui, -apple-system, BlinkMacSystemFont, Segoe UI, sans-serif" font-size="13" font-weight="600" fill="#334155" transform="rotate(-90 24.0 314.0)">Wall latency (ms)</text>
<text x="560.0" y="32.0" text-anchor="middle" font-family="Inter, ui-sans-serif, system-ui, -apple-system, BlinkMacSystemFont, Segoe UI, sans-serif" font-size="22" font-weight="700" fill="#0f172a">Go PGO Serverless Profile Cache: Cold Invocation Latency</text>
<text x="560.0" y="56.0" text-anchor="middle" font-family="Inter, ui-sans-serif, system-ui, -apple-system, BlinkMacSystemFont, Segoe UI, sans-serif" font-size="13" font-weight="400" fill="#475569">Each point is a separate process invocation of the function binary.</text>
<polyline points="92.0,408.8 143.7,383.6 195.4,377.3 247.1,385.6 298.7,397.5 350.4,392.1 402.1,398.6 453.8,407.2 505.5,412.1 557.2,412.5 608.8,393.9 660.5,392.6 712.2,405.5 763.9,411.1 815.6,410.9 867.3,412.5 918.9,413.4 970.6,411.1 1022.3,394.3 1074.0,379.6" fill="none" stroke="#334155" stroke-width="2.4" stroke-linejoin="round" stroke-linecap="round"/>
<circle cx="92.0" cy="408.8" r="3.0" fill="#334155" stroke="#ffffff" stroke-width="1"/>
<circle cx="143.7" cy="383.6" r="3.0" fill="#334155" stroke="#ffffff" stroke-width="1"/>
<circle cx="195.4" cy="377.3" r="3.0" fill="#334155" stroke="#ffffff" stroke-width="1"/>
<circle cx="247.1" cy="385.6" r="3.0" fill="#334155" stroke="#ffffff" stroke-width="1"/>
<circle cx="298.7" cy="397.5" r="3.0" fill="#334155" stroke="#ffffff" stroke-width="1"/>
<circle cx="350.4" cy="392.1" r="3.0" fill="#334155" stroke="#ffffff" stroke-width="1"/>
<circle cx="402.1" cy="398.6" r="3.0" fill="#334155" stroke="#ffffff" stroke-width="1"/>
<circle cx="453.8" cy="407.2" r="3.0" fill="#334155" stroke="#ffffff" stroke-width="1"/>
<circle cx="505.5" cy="412.1" r="3.0" fill="#334155" stroke="#ffffff" stroke-width="1"/>
<circle cx="557.2" cy="412.5" r="3.0" fill="#334155" stroke="#ffffff" stroke-width="1"/>
<circle cx="608.8" cy="393.9" r="3.0" fill="#334155" stroke="#ffffff" stroke-width="1"/>
<circle cx="660.5" cy="392.6" r="3.0" fill="#334155" stroke="#ffffff" stroke-width="1"/>
<circle cx="712.2" cy="405.5" r="3.0" fill="#334155" stroke="#ffffff" stroke-width="1"/>
<circle cx="763.9" cy="411.1" r="3.0" fill="#334155" stroke="#ffffff" stroke-width="1"/>
<circle cx="815.6" cy="410.9" r="3.0" fill="#334155" stroke="#ffffff" stroke-width="1"/>
<circle cx="867.3" cy="412.5" r="3.0" fill="#334155" stroke="#ffffff" stroke-width="1"/>
<circle cx="918.9" cy="413.4" r="3.0" fill="#334155" stroke="#ffffff" stroke-width="1"/>
<circle cx="970.6" cy="411.1" r="3.0" fill="#334155" stroke="#ffffff" stroke-width="1"/>
<circle cx="1022.3" cy="394.3" r="3.0" fill="#334155" stroke="#ffffff" stroke-width="1"/>
<circle cx="1074.0" cy="379.6" r="3.0" fill="#334155" stroke="#ffffff" stroke-width="1"/>
<polyline points="92.0,281.3 143.7,391.4 195.4,383.5 247.1,404.6 298.7,409.0 350.4,402.3 402.1,397.2 453.8,413.5 505.5,413.5 557.2,410.2 608.8,415.3 660.5,416.9 712.2,417.7 763.9,417.1 815.6,402.3 867.3,412.4 918.9,408.5 970.6,415.8 1022.3,414.1 1074.0,404.1" fill="none" stroke="#0f766e" stroke-width="2.4" stroke-linejoin="round" stroke-linecap="round"/>
<circle cx="92.0" cy="281.3" r="3.0" fill="#0f766e" stroke="#ffffff" stroke-width="1"/>
<circle cx="143.7" cy="391.4" r="3.0" fill="#0f766e" stroke="#ffffff" stroke-width="1"/>
<circle cx="195.4" cy="383.5" r="3.0" fill="#0f766e" stroke="#ffffff" stroke-width="1"/>
<circle cx="247.1" cy="404.6" r="3.0" fill="#0f766e" stroke="#ffffff" stroke-width="1"/>
<circle cx="298.7" cy="409.0" r="3.0" fill="#0f766e" stroke="#ffffff" stroke-width="1"/>
<circle cx="350.4" cy="402.3" r="3.0" fill="#0f766e" stroke="#ffffff" stroke-width="1"/>
<circle cx="402.1" cy="397.2" r="3.0" fill="#0f766e" stroke="#ffffff" stroke-width="1"/>
<circle cx="453.8" cy="413.5" r="3.0" fill="#0f766e" stroke="#ffffff" stroke-width="1"/>
<circle cx="505.5" cy="413.5" r="3.0" fill="#0f766e" stroke="#ffffff" stroke-width="1"/>
<circle cx="557.2" cy="410.2" r="3.0" fill="#0f766e" stroke="#ffffff" stroke-width="1"/>
<circle cx="608.8" cy="415.3" r="3.0" fill="#0f766e" stroke="#ffffff" stroke-width="1"/>
<circle cx="660.5" cy="416.9" r="3.0" fill="#0f766e" stroke="#ffffff" stroke-width="1"/>
<circle cx="712.2" cy="417.7" r="3.0" fill="#0f766e" stroke="#ffffff" stroke-width="1"/>
<circle cx="763.9" cy="417.1" r="3.0" fill="#0f766e" stroke="#ffffff" stroke-width="1"/>
<circle cx="815.6" cy="402.3" r="3.0" fill="#0f766e" stroke="#ffffff" stroke-width="1"/>
<circle cx="867.3" cy="412.4" r="3.0" fill="#0f766e" stroke="#ffffff" stroke-width="1"/>
<circle cx="918.9" cy="408.5" r="3.0" fill="#0f766e" stroke="#ffffff" stroke-width="1"/>
<circle cx="970.6" cy="415.8" r="3.0" fill="#0f766e" stroke="#ffffff" stroke-width="1"/>
<circle cx="1022.3" cy="414.1" r="3.0" fill="#0f766e" stroke="#ffffff" stroke-width="1"/>
<circle cx="1074.0" cy="404.1" r="3.0" fill="#0f766e" stroke="#ffffff" stroke-width="1"/>
<polyline points="92.0,184.4 143.7,348.1 195.4,358.9 247.1,394.2 298.7,397.3 350.4,401.2 402.1,411.5 453.8,395.9 505.5,412.1 557.2,403.2 608.8,402.5 660.5,411.3 712.2,411.9 763.9,411.3 815.6,403.6 867.3,410.2 918.9,412.2 970.6,411.9 1022.3,415.9 1074.0,416.7" fill="none" stroke="#b45309" stroke-width="2.4" stroke-linejoin="round" stroke-linecap="round"/>
<circle cx="92.0" cy="184.4" r="3.0" fill="#b45309" stroke="#ffffff" stroke-width="1"/>
<circle cx="143.7" cy="348.1" r="3.0" fill="#b45309" stroke="#ffffff" stroke-width="1"/>
<circle cx="195.4" cy="358.9" r="3.0" fill="#b45309" stroke="#ffffff" stroke-width="1"/>
<circle cx="247.1" cy="394.2" r="3.0" fill="#b45309" stroke="#ffffff" stroke-width="1"/>
<circle cx="298.7" cy="397.3" r="3.0" fill="#b45309" stroke="#ffffff" stroke-width="1"/>
<circle cx="350.4" cy="401.2" r="3.0" fill="#b45309" stroke="#ffffff" stroke-width="1"/>
<circle cx="402.1" cy="411.5" r="3.0" fill="#b45309" stroke="#ffffff" stroke-width="1"/>
<circle cx="453.8" cy="395.9" r="3.0" fill="#b45309" stroke="#ffffff" stroke-width="1"/>
<circle cx="505.5" cy="412.1" r="3.0" fill="#b45309" stroke="#ffffff" stroke-width="1"/>
<circle cx="557.2" cy="403.2" r="3.0" fill="#b45309" stroke="#ffffff" stroke-width="1"/>
<circle cx="608.8" cy="402.5" r="3.0" fill="#b45309" stroke="#ffffff" stroke-width="1"/>
<circle cx="660.5" cy="411.3" r="3.0" fill="#b45309" stroke="#ffffff" stroke-width="1"/>
<circle cx="712.2" cy="411.9" r="3.0" fill="#b45309" stroke="#ffffff" stroke-width="1"/>
<circle cx="763.9" cy="411.3" r="3.0" fill="#b45309" stroke="#ffffff" stroke-width="1"/>
<circle cx="815.6" cy="403.6" r="3.0" fill="#b45309" stroke="#ffffff" stroke-width="1"/>
<circle cx="867.3" cy="410.2" r="3.0" fill="#b45309" stroke="#ffffff" stroke-width="1"/>
<circle cx="918.9" cy="412.2" r="3.0" fill="#b45309" stroke="#ffffff" stroke-width="1"/>
<circle cx="970.6" cy="411.9" r="3.0" fill="#b45309" stroke="#ffffff" stroke-width="1"/>
<circle cx="1022.3" cy="415.9" r="3.0" fill="#b45309" stroke="#ffffff" stroke-width="1"/>
<circle cx="1074.0" cy="416.7" r="3.0" fill="#b45309" stroke="#ffffff" stroke-width="1"/>
<line x1="92.0" y1="552.0" x2="92.0" y2="558.0" stroke="#64748b" stroke-width="1"/>
<text x="92.0" y="576.0" text-anchor="middle" font-family="Inter, ui-sans-serif, system-ui, -apple-system, BlinkMacSystemFont, Segoe UI, sans-serif" font-size="11" font-weight="400" fill="#475569">1</text>
<line x1="298.7" y1="552.0" x2="298.7" y2="558.0" stroke="#64748b" stroke-width="1"/>
<text x="298.7" y="576.0" text-anchor="middle" font-family="Inter, ui-sans-serif, system-ui, -apple-system, BlinkMacSystemFont, Segoe UI, sans-serif" font-size="11" font-weight="400" fill="#475569">5</text>
<line x1="557.2" y1="552.0" x2="557.2" y2="558.0" stroke="#64748b" stroke-width="1"/>
<text x="557.2" y="576.0" text-anchor="middle" font-family="Inter, ui-sans-serif, system-ui, -apple-system, BlinkMacSystemFont, Segoe UI, sans-serif" font-size="11" font-weight="400" fill="#475569">10</text>
<line x1="815.6" y1="552.0" x2="815.6" y2="558.0" stroke="#64748b" stroke-width="1"/>
<text x="815.6" y="576.0" text-anchor="middle" font-family="Inter, ui-sans-serif, system-ui, -apple-system, BlinkMacSystemFont, Segoe UI, sans-serif" font-size="11" font-weight="400" fill="#475569">15</text>
<line x1="1074.0" y1="552.0" x2="1074.0" y2="558.0" stroke="#64748b" stroke-width="1"/>
<text x="1074.0" y="576.0" text-anchor="middle" font-family="Inter, ui-sans-serif, system-ui, -apple-system, BlinkMacSystemFont, Segoe UI, sans-serif" font-size="11" font-weight="400" fill="#475569">20</text>
<text x="583.0" y="612.0" text-anchor="middle" font-family="Inter, ui-sans-serif, system-ui, -apple-system, BlinkMacSystemFont, Segoe UI, sans-serif" font-size="13" font-weight="600" fill="#334155">Cold invocation number</text>
<line x1="854.0" y1="82.0" x2="884.0" y2="82.0" stroke="#334155" stroke-width="3"/>
<circle cx="869.0" cy="82.0" r="4.0" fill="#334155" stroke="#ffffff" stroke-width="1"/>
<text x="896.0" y="86.0" text-anchor="start" font-family="Inter, ui-sans-serif, system-ui, -apple-system, BlinkMacSystemFont, Segoe UI, sans-serif" font-size="12" font-weight="600" fill="#334155">No PGO</text>
<line x1="854.0" y1="106.0" x2="884.0" y2="106.0" stroke="#0f766e" stroke-width="3"/>
<circle cx="869.0" cy="106.0" r="4.0" fill="#0f766e" stroke="#ffffff" stroke-width="1"/>
<text x="896.0" y="110.0" text-anchor="start" font-family="Inter, ui-sans-serif, system-ui, -apple-system, BlinkMacSystemFont, Segoe UI, sans-serif" font-size="12" font-weight="600" fill="#334155">PGO, 5 profiles</text>
<line x1="854.0" y1="130.0" x2="884.0" y2="130.0" stroke="#b45309" stroke-width="3"/>
<circle cx="869.0" cy="130.0" r="4.0" fill="#b45309" stroke="#ffffff" stroke-width="1"/>
<text x="896.0" y="134.0" text-anchor="start" font-family="Inter, ui-sans-serif, system-ui, -apple-system, BlinkMacSystemFont, Segoe UI, sans-serif" font-size="12" font-weight="600" fill="#334155">PGO, 10 profiles</text>
</svg>