<svg xmlns="http://www.w3.org/2000/svg" width="1120" height="640" viewBox="0 0 1120 640" role="img" aria-label="Go PGO cold invocation latency">
<title>Go PGO cold invocation latency</title>
<rect width="100%" height="100%" fill="#ffffff"/>
<line x1="92.0" y1="552.0" x2="1074.0" y2="552.0" stroke="#e2e8f0" stroke-width="1"/>
<text x="80.0" y="556.0" text-anchor="end" font-family="Inter, ui-sans-serif, system-ui, -apple-system, BlinkMacSystemFont, Segoe UI, sans-serif" font-size="11" font-weight="400" fill="#64748b">0</text>
<line x1="92.0" y1="456.8" x2="1074.0" y2="456.8" stroke="#e2e8f0" stroke-width="1"/>
<text x="80.0" y="460.8" text-anchor="end" font-family="Inter, ui-sans-serif, system-ui, -apple-system, BlinkMacSystemFont, Segoe UI, sans-serif" font-size="11" font-weight="400" fill="#64748b">100</text>
<line x1="92.0" y1="361.6" x2="1074.0" y2="361.6" stroke="#e2e8f0" stroke-width="1"/>
<text x="80.0" y="365.6" text-anchor="end" font-family="Inter, ui-sans-serif, system-ui, -apple-system, BlinkMacSystemFont, Segoe UI, sans-serif" font-size="11" font-weight="400" fill="#64748b">200</text>
<line x1="92.0" y1="266.4" x2="1074.0" y2="266.4" stroke="#e2e8f0" stroke-width="1"/>
<text x="80.0" y="270.4" text-anchor="end" font-family="Inter, ui-sans-serif, system-ui, -apple-system, BlinkMacSystemFont, Segoe UI, sans-serif" font-size="11" font-weight="400" fill="#64748b">300</text>
<line x1="92.0" y1="171.2" x2="1074.0" y2="171.2" stroke="#e2e8f0" stroke-width="1"/>
<text x="80.0" y="175.2" text-anchor="end" font-family="Inter, ui-sans-serif, system-ui, -apple-system, BlinkMacSystemFont, Segoe UI, sans-serif" font-size="11" font-weight="400" fill="#64748b">400</text>
<line x1="92.0" y1="76.0" x2="1074.0" y2="76.0" stroke="#e2e8f0" stroke-width="1"/>
<text x="80.0" y="80.0" text-anchor="end" font-family="Inter, ui-sans-serif, system-ui, -apple-system, BlinkMacSystemFont, Segoe UI, sans-serif" font-size="11" font-weight="400" fill="#64748b">500</text>
<line x1="92.0" y1="76.0" x2="92.0" y2="552.0" stroke="#64748b" stroke-width="1.2"/>
<line x1="92.0" y1="552.0" x2="1074.0" y2="552.0" stroke="#64748b" stroke-width="1.2"/>
<text x="24.0" y="314.0" text-anchor="middle" font-family="Inter, ui-sans-serif, system-ui, -apple-system, BlinkMacSystemFont, Segoe UI, sans-serif" font-size="13" font-weight="600" fill="#334155" transform="rotate(-90 24.0 314.0)">Wall latency (ms)</text>
<text x="560.0" y="32.0" text-anchor="middle" font-family="Inter, ui-sans-serif, system-ui, -apple-system, BlinkMacSystemFont, Segoe UI, sans-serif" font-size="22" font-weight="700" fill="#0f172a">Go PGO Serverless Profile Cache: Cold Invocation Latency</text>
<text x="560.0" y="56.0" text-anchor="middle" font-family="Inter, ui-sans-serif, system-ui, -apple-system, BlinkMacSystemFont, Segoe UI, sans-serif" font-size="13" font-weight="400" fill="#475569">Each point is a separate process invocation of the function binary.</text>
<polyline points="92.0,464.5 157.5,479.3 222.9,479.7 288.4,479.5 353.9,479.6 419.3,479.8 484.8,479.7 550.3,479.5 615.7,479.5 681.2,479.3 746.7,474.2 812.1,475.7 877.6,473.3 943.1,479.1 1008.5,479.5 1074.0,479.2" fill="none" stroke="#334155" stroke-width="2.4" stroke-linejoin="round" stroke-linecap="round"/>
<circle cx="92.0" cy="464.5" r="3.0" fill="#334155" stroke="#ffffff" stroke-width="1"/>
<circle cx="157.5" cy="479.3" r="3.0" fill="#334155" stroke="#ffffff" stroke-width="1"/>
<circle cx="222.9" cy="479.7" r="3.0" fill="#334155" stroke="#ffffff" stroke-width="1"/>
<circle cx="288.4" cy="479.5" r="3.0" fill="#334155" stroke="#ffffff" stroke-width="1"/>
<circle cx="353.9" cy="479.6" r="3.0" fill="#334155" stroke="#ffffff" stroke-width="1"/>
<circle cx="419.3" cy="479.8" r="3.0" fill="#334155" stroke="#ffffff" stroke-width="1"/>
<circle cx="484.8" cy="479.7" r="3.0" fill="#334155" stroke="#ffffff" stroke-width="1"/>
<circle cx="550.3" cy="479.5" r="3.0" fill="#334155" stroke="#ffffff" stroke-width="1"/>
<circle cx="615.7" cy="479.5" r="3.0" fill="#334155" stroke="#ffffff" stroke-width="1"/>
<circle cx="681.2" cy="479.3" r="3.0" fill="#334155" stroke="#ffffff" stroke-width="1"/>
<circle cx="746.7" cy="474.2" r="3.0" fill="#334155" stroke="#ffffff" stroke-width="1"/>
<circle cx="812.1" cy="475.7" r="3.0" fill="#334155" stroke="#ffffff" stroke-width="1"/>
<circle cx="877.6" cy="473.3" r="3.0" fill="#334155" stroke="#ffffff" stroke-width="1"/>
<circle cx="943.1" cy="479.1" r="3.0" fill="#334155" stroke="#ffffff" stroke-width="1"/>
<circle cx="1008.5" cy="479.5" r="3.0" fill="#334155" stroke="#ffffff" stroke-width="1"/>
<circle cx="1074.0" cy="479.2" r="3.0" fill="#334155" stroke="#ffffff" stroke-width="1"/>
<polyline points="92.0,244.8 157.5,480.0 222.9,465.9 288.4,480.8 353.9,481.0 419.3,480.6 484.8,481.0 550.3,481.1 615.7,480.9 681.2,481.2 746.7,481.0 812.1,480.9 877.6,480.9 943.1,480.9 1008.5,480.9 1074.0,480.8" fill="none" stroke="#7c3aed" stroke-width="2.4" stroke-linejoin="round" stroke-linecap="round"/>
<circle cx="92.0" cy="244.8" r="3.0" fill="#7c3aed" stroke="#ffffff" stroke-width="1"/>
<circle cx="157.5" cy="480.0" r="3.0" fill="#7c3aed" stroke="#ffffff" stroke-width="1"/>
<circle cx="222.9" cy="465.9" r="3.0" fill="#7c3aed" stroke="#ffffff" stroke-width="1"/>
<circle cx="288.4" cy="480.8" r="3.0" fill="#7c3aed" stroke="#ffffff" stroke-width="1"/>
<circle cx="353.9" cy="481.0" r="3.0" fill="#7c3aed" stroke="#ffffff" stroke-width="1"/>
<circle cx="419.3" cy="480.6" r="3.0" fill="#7c3aed" stroke="#ffffff" stroke-width="1"/>
<circle cx="484.8" cy="481.0" r="3.0" fill="#7c3aed" stroke="#ffffff" stroke-width="1"/>
<circle cx="550.3" cy="481.1" r="3.0" fill="#7c3aed" stroke="#ffffff" stroke-width="1"/>
<circle cx="615.7" cy="480.9" r="3.0" fill="#7c3aed" stroke="#ffffff" stroke-width="1"/>
<circle cx="681.2" cy="481.2" r="3.0" fill="#7c3aed" stroke="#ffffff" stroke-width="1"/>
<circle cx="746.7" cy="481.0" r="3.0" fill="#7c3aed" stroke="#ffffff" stroke-width="1"/>
<circle cx="812.1" cy="480.9" r="3.0" fill="#7c3aed" stroke="#ffffff" stroke-width="1"/>
<circle cx="877.6" cy="480.9" r="3.0" fill="#7c3aed" stroke="#ffffff" stroke-width="1"/>
<circle cx="943.1" cy="480.9" r="3.0" fill="#7c3aed" stroke="#ffffff" stroke-width="1"/>
<circle cx="1008.5" cy="480.9" r="3.0" fill="#7c3aed" stroke="#ffffff" stroke-width="1"/>
<circle cx="1074.0" cy="480.8" r="3.0" fill="#7c3aed" stroke="#ffffff" stroke-width="1"/>
<polyline points="92.0,333.3 157.5,480.6 222.9,481.1 288.4,481.3 353.9,481.1 419.3,481.1 484.8,481.3 550.3,480.9 615.7,481.1 681.2,481.3 746.7,481.4 812.1,481.0 877.6,481.2 943.1,481.0 1008.5,481.2 1074.0,480.2" fill="none" stroke="#0f766e" stroke-width="2.4" stroke-linejoin="round" stroke-linecap="round"/>
<circle cx="92.0" cy="333.3" r="3.0" fill="#0f766e" stroke="#ffffff" stroke-width="1"/>
<circle cx="157.5" cy="480.6" r="3.0" fill="#0f766e" stroke="#ffffff" stroke-width="1"/>
<circle cx="222.9" cy="481.1" r="3.0" fill="#0f766e" stroke="#ffffff" stroke-width="1"/>
<circle cx="288.4" cy="481.3" r="3.0" fill="#0f766e" stroke="#ffffff" stroke-width="1"/>
<circle cx="353.9" cy="481.1" r="3.0" fill="#0f766e" stroke="#ffffff" stroke-width="1"/>
<circle cx="419.3" cy="481.1" r="3.0" fill="#0f766e" stroke="#ffffff" stroke-width="1"/>
<circle cx="484.8" cy="481.3" r="3.0" fill="#0f766e" stroke="#ffffff" stroke-width="1"/>
<circle cx="550.3" cy="480.9" r="3.0" fill="#0f766e" stroke="#ffffff" stroke-width="1"/>
<circle cx="615.7" cy="481.1" r="3.0" fill="#0f766e" stroke="#ffffff" stroke-width="1"/>
<circle cx="681.2" cy="481.3" r="3.0" fill="#0f766e" stroke="#ffffff" stroke-width="1"/>
<circle cx="746.7" cy="481.4" r="3.0" fill="#0f766e" stroke="#ffffff" stroke-width="1"/>
<circle cx="812.1" cy="481.0" r="3.0" fill="#0f766e" stroke="#ffffff" stroke-width="1"/>
<circle cx="877.6" cy="481.2" r="3.0" fill="#0f766e" stroke="#ffffff" stroke-width="1"/>
<circle cx="943.1" cy="481.0" r="3.0" fill="#0f766e" stroke="#ffffff" stroke-width="1"/>
<circle cx="1008.5" cy="481.2" r="3.0" fill="#0f766e" stroke="#ffffff" stroke-width="1"/>
<circle cx="1074.0" cy="480.2" r="3.0" fill="#0f766e" stroke="#ffffff" stroke-width="1"/>
<line x1="92.0" y1="552.0" x2="92.0" y2="558.0" stroke="#64748b" stroke-width="1"/>
<text x="92.0" y="576.0" text-anchor="middle" font-family="Inter, ui-sans-serif, system-ui, -apple-system, BlinkMacSystemFont, Segoe UI, sans-serif" font-size="11" font-weight="400" fill="#475569">1</text>
<line x1="353.9" y1="552.0" x2="353.9" y2="558.0" stroke="#64748b" stroke-width="1"/>
<text x="353.9" y="576.0" text-anchor="middle" font-family="Inter, ui-sans-serif, system-ui, -apple-system, BlinkMacSystemFont, Segoe UI, sans-serif" font-size="11" font-weight="400" fill="#475569">5</text>
<line x1="681.2" y1="552.0" x2="681.2" y2="558.0" stroke="#64748b" stroke-width="1"/>
<text x="681.2" y="576.0" text-anchor="middle" font-family="Inter, ui-sans-serif, system-ui, -apple-system, BlinkMacSystemFont, Segoe UI, sans-serif" font-size="11" font-weight="400" fill="#475569">10</text>
<line x1="1008.5" y1="552.0" x2="1008.5" y2="558.0" stroke="#64748b" stroke-width="1"/>
<text x="1008.5" y="576.0" text-anchor="middle" font-family="Inter, ui-sans-serif, system-ui, -apple-system, BlinkMacSystemFont, Segoe UI, sans-serif" font-size="11" font-weight="400" fill="#475569">15</text>
<line x1="1074.0" y1="552.0" x2="1074.0" y2="558.0" stroke="#64748b" stroke-width="1"/>
<text x="1074.0" y="576.0" text-anchor="middle" font-family="Inter, ui-sans-serif, system-ui, -apple-system, BlinkMacSystemFont, Segoe UI, sans-serif" font-size="11" font-weight="400" fill="#475569">16</text>
<text x="583.0" y="612.0" text-anchor="middle" font-family="Inter, ui-sans-serif, system-ui, -apple-system, BlinkMacSystemFont, Segoe UI, sans-serif" font-size="13" font-weight="600" fill="#334155">Cold invocation number</text>
<line x1="854.0" y1="82.0" x2="884.0" y2="82.0" stroke="#334155" stroke-width="3"/>
<circle cx="869.0" cy="82.0" r="4.0" fill="#334155" stroke="#ffffff" stroke-width="1"/>
<text x="896.0" y="86.0" text-anchor="start" font-family="Inter, ui-sans-serif, system-ui, -apple-system, BlinkMacSystemFont, Segoe UI, sans-serif" font-size="12" font-weight="600" fill="#334155">No PGO</text>
<line x1="854.0" y1="106.0" x2="884.0" y2="106.0" stroke="#7c3aed" stroke-width="3"/>
<circle cx="869.0" cy="106.0" r="4.0" fill="#7c3aed" stroke="#ffffff" stroke-width="1"/>
<text x="896.0" y="110.0" text-anchor="start" font-family="Inter, ui-sans-serif, system-ui, -apple-system, BlinkMacSystemFont, Segoe UI, sans-serif" font-size="12" font-weight="600" fill="#334155">PGO, 3 profiles</text>
<line x1="854.0" y1="130.0" x2="884.0" y2="130.0" stroke="#0f766e" stroke-width="3"/>
<circle cx="869.0" cy="130.0" r="4.0" fill="#0f766e" stroke="#ffffff" stroke-width="1"/>
<text x="896.0" y="134.0" text-anchor="start" font-family="Inter, ui-sans-serif, system-ui, -apple-system, BlinkMacSystemFont, Segoe UI, sans-serif" font-size="12" font-weight="600" fill="#334155">PGO, 5 profiles</text>
</svg>