<svg xmlns="http://www.w3.org/2000/svg" width="1120" height="640" viewBox="0 0 1120 640" role="img" aria-label="Go PGO cold invocation latency">
<title>Go PGO cold invocation latency</title>
<rect width="100%" height="100%" fill="#ffffff"/>
<line x1="92.0" y1="552.0" x2="1074.0" y2="552.0" stroke="#e2e8f0" stroke-width="1"/>
<text x="80.0" y="556.0" text-anchor="end" font-family="Inter, ui-sans-serif, system-ui, -apple-system, BlinkMacSystemFont, Segoe UI, sans-serif" font-size="11" font-weight="400" fill="#64748b">0</text>
<line x1="92.0" y1="456.8" x2="1074.0" y2="456.8" stroke="#e2e8f0" stroke-width="1"/>
<text x="80.0" y="460.8" text-anchor="end" font-family="Inter, ui-sans-serif, system-ui, -apple-system, BlinkMacSystemFont, Segoe UI, sans-serif" font-size="11" font-weight="400" fill="#64748b">200</text>
<line x1="92.0" y1="361.6" x2="1074.0" y2="361.6" stroke="#e2e8f0" stroke-width="1"/>
<text x="80.0" y="365.6" text-anchor="end" font-family="Inter, ui-sans-serif, system-ui, -apple-system, BlinkMacSystemFont, Segoe UI, sans-serif" font-size="11" font-weight="400" fill="#64748b">400</text>
<line x1="92.0" y1="266.4" x2="1074.0" y2="266.4" stroke="#e2e8f0" stroke-width="1"/>
<text x="80.0" y="270.4" text-anchor="end" font-family="Inter, ui-sans-serif, system-ui, -apple-system, BlinkMacSystemFont, Segoe UI, sans-serif" font-size="11" font-weight="400" fill="#64748b">600</text>
<line x1="92.0" y1="171.2" x2="1074.0" y2="171.2" stroke="#e2e8f0" stroke-width="1"/>
<text x="80.0" y="175.2" text-anchor="end" font-family="Inter, ui-sans-serif, system-ui, -apple-system, BlinkMacSystemFont, Segoe UI, sans-serif" font-size="11" font-weight="400" fill="#64748b">800</text>
<line x1="92.0" y1="76.0" x2="1074.0" y2="76.0" stroke="#e2e8f0" stroke-width="1"/>
<text x="80.0" y="80.0" text-anchor="end" font-family="Inter, ui-sans-serif, system-ui, -apple-system, BlinkMacSystemFont, Segoe UI, sans-serif" font-size="11" font-weight="400" fill="#64748b">1000</text>
<line x1="92.0" y1="76.0" x2="92.0" y2="552.0" stroke="#64748b" stroke-width="1.2"/>
<line x1="92.0" y1="552.0" x2="1074.0" y2="552.0" stroke="#64748b" stroke-width="1.2"/>
<text x="24.0" y="314.0" text-anchor="middle" font-family="Inter, ui-sans-serif, system-ui, -apple-system, BlinkMacSystemFont, Segoe UI, sans-serif" font-size="13" font-weight="600" fill="#334155" transform="rotate(-90 24.0 314.0)">Wall latency (ms)</text>
<text x="560.0" y="32.0" text-anchor="middle" font-family="Inter, ui-sans-serif, system-ui, -apple-system, BlinkMacSystemFont, Segoe UI, sans-serif" font-size="22" font-weight="700" fill="#0f172a">Go PGO Serverless Profile Cache: Cold Invocation Latency</text>
<text x="560.0" y="56.0" text-anchor="middle" font-family="Inter, ui-sans-serif, system-ui, -apple-system, BlinkMacSystemFont, Segoe UI, sans-serif" font-size="13" font-weight="400" fill="#475569">Each point is a separate process invocation of the function binary.</text>
<polyline points="92.0,439.6 143.7,417.8 195.4,420.1 247.1,427.1 298.7,420.3 350.4,425.7 402.1,430.5 453.8,438.6 505.5,443.0 557.2,441.9 608.8,447.0 660.5,447.1 712.2,451.2 763.9,451.5 815.6,438.7 867.3,443.1 918.9,448.5 970.6,450.4 1022.3,454.3 1074.0,455.3" fill="none" stroke="#334155" stroke-width="2.4" stroke-linejoin="round" stroke-linecap="round"/>
<circle cx="92.0" cy="439.6" r="3.0" fill="#334155" stroke="#ffffff" stroke-width="1"/>
<circle cx="143.7" cy="417.8" r="3.0" fill="#334155" stroke="#ffffff" stroke-width="1"/>
<circle cx="195.4" cy="420.1" r="3.0" fill="#334155" stroke="#ffffff" stroke-width="1"/>
<circle cx="247.1" cy="427.1" r="3.0" fill="#334155" stroke="#ffffff" stroke-width="1"/>
<circle cx="298.7" cy="420.3" r="3.0" fill="#334155" stroke="#ffffff" stroke-width="1"/>
<circle cx="350.4" cy="425.7" r="3.0" fill="#334155" stroke="#ffffff" stroke-width="1"/>
<circle cx="402.1" cy="430.5" r="3.0" fill="#334155" stroke="#ffffff" stroke-width="1"/>
<circle cx="453.8" cy="438.6" r="3.0" fill="#334155" stroke="#ffffff" stroke-width="1"/>
<circle cx="505.5" cy="443.0" r="3.0" fill="#334155" stroke="#ffffff" stroke-width="1"/>
<circle cx="557.2" cy="441.9" r="3.0" fill="#334155" stroke="#ffffff" stroke-width="1"/>
<circle cx="608.8" cy="447.0" r="3.0" fill="#334155" stroke="#ffffff" stroke-width="1"/>
<circle cx="660.5" cy="447.1" r="3.0" fill="#334155" stroke="#ffffff" stroke-width="1"/>
<circle cx="712.2" cy="451.2" r="3.0" fill="#334155" stroke="#ffffff" stroke-width="1"/>
<circle cx="763.9" cy="451.5" r="3.0" fill="#334155" stroke="#ffffff" stroke-width="1"/>
<circle cx="815.6" cy="438.7" r="3.0" fill="#334155" stroke="#ffffff" stroke-width="1"/>
<circle cx="867.3" cy="443.1" r="3.0" fill="#334155" stroke="#ffffff" stroke-width="1"/>
<circle cx="918.9" cy="448.5" r="3.0" fill="#334155" stroke="#ffffff" stroke-width="1"/>
<circle cx="970.6" cy="450.4" r="3.0" fill="#334155" stroke="#ffffff" stroke-width="1"/>
<circle cx="1022.3" cy="454.3" r="3.0" fill="#334155" stroke="#ffffff" stroke-width="1"/>
<circle cx="1074.0" cy="455.3" r="3.0" fill="#334155" stroke="#ffffff" stroke-width="1"/>
<polyline points="92.0,384.7 143.7,455.1 195.4,451.5 247.1,452.6 298.7,450.2 350.4,450.9 402.1,451.8 453.8,445.5 505.5,448.5 557.2,439.0 608.8,450.5 660.5,454.0 712.2,454.7 763.9,453.2 815.6,444.9 867.3,423.5 918.9,436.0 970.6,427.1 1022.3,448.4 1074.0,448.8" fill="none" stroke="#0f766e" stroke-width="2.4" stroke-linejoin="round" stroke-linecap="round"/>
<circle cx="92.0" cy="384.7" r="3.0" fill="#0f766e" stroke="#ffffff" stroke-width="1"/>
<circle cx="143.7" cy="455.1" r="3.0" fill="#0f766e" stroke="#ffffff" stroke-width="1"/>
<circle cx="195.4" cy="451.5" r="3.0" fill="#0f766e" stroke="#ffffff" stroke-width="1"/>
<circle cx="247.1" cy="452.6" r="3.0" fill="#0f766e" stroke="#ffffff" stroke-width="1"/>
<circle cx="298.7" cy="450.2" r="3.0" fill="#0f766e" stroke="#ffffff" stroke-width="1"/>
<circle cx="350.4" cy="450.9" r="3.0" fill="#0f766e" stroke="#ffffff" stroke-width="1"/>
<circle cx="402.1" cy="451.8" r="3.0" fill="#0f766e" stroke="#ffffff" stroke-width="1"/>
<circle cx="453.8" cy="445.5" r="3.0" fill="#0f766e" stroke="#ffffff" stroke-width="1"/>
<circle cx="505.5" cy="448.5" r="3.0" fill="#0f766e" stroke="#ffffff" stroke-width="1"/>
<circle cx="557.2" cy="439.0" r="3.0" fill="#0f766e" stroke="#ffffff" stroke-width="1"/>
<circle cx="608.8" cy="450.5" r="3.0" fill="#0f766e" stroke="#ffffff" stroke-width="1"/>
<circle cx="660.5" cy="454.0" r="3.0" fill="#0f766e" stroke="#ffffff" stroke-width="1"/>
<circle cx="712.2" cy="454.7" r="3.0" fill="#0f766e" stroke="#ffffff" stroke-width="1"/>
<circle cx="763.9" cy="453.2" r="3.0" fill="#0f766e" stroke="#ffffff" stroke-width="1"/>
<circle cx="815.6" cy="444.9" r="3.0" fill="#0f766e" stroke="#ffffff" stroke-width="1"/>
<circle cx="867.3" cy="423.5" r="3.0" fill="#0f766e" stroke="#ffffff" stroke-width="1"/>
<circle cx="918.9" cy="436.0" r="3.0" fill="#0f766e" stroke="#ffffff" stroke-width="1"/>
<circle cx="970.6" cy="427.1" r="3.0" fill="#0f766e" stroke="#ffffff" stroke-width="1"/>
<circle cx="1022.3" cy="448.4" r="3.0" fill="#0f766e" stroke="#ffffff" stroke-width="1"/>
<circle cx="1074.0" cy="448.8" r="3.0" fill="#0f766e" stroke="#ffffff" stroke-width="1"/>
<polyline points="92.0,302.4 143.7,435.9 195.4,435.3 247.1,430.3 298.7,439.8 350.4,447.0 402.1,449.7 453.8,450.2 505.5,440.6 557.2,438.3 608.8,449.5 660.5,452.0 712.2,453.2 763.9,454.1 815.6,456.6 867.3,458.4 918.9,450.9 970.6,453.7 1022.3,454.8 1074.0,454.1" fill="none" stroke="#b45309" stroke-width="2.4" stroke-linejoin="round" stroke-linecap="round"/>
<circle cx="92.0" cy="302.4" r="3.0" fill="#b45309" stroke="#ffffff" stroke-width="1"/>
<circle cx="143.7" cy="435.9" r="3.0" fill="#b45309" stroke="#ffffff" stroke-width="1"/>
<circle cx="195.4" cy="435.3" r="3.0" fill="#b45309" stroke="#ffffff" stroke-width="1"/>
<circle cx="247.1" cy="430.3" r="3.0" fill="#b45309" stroke="#ffffff" stroke-width="1"/>
<circle cx="298.7" cy="439.8" r="3.0" fill="#b45309" stroke="#ffffff" stroke-width="1"/>
<circle cx="350.4" cy="447.0" r="3.0" fill="#b45309" stroke="#ffffff" stroke-width="1"/>
<circle cx="402.1" cy="449.7" r="3.0" fill="#b45309" stroke="#ffffff" stroke-width="1"/>
<circle cx="453.8" cy="450.2" r="3.0" fill="#b45309" stroke="#ffffff" stroke-width="1"/>
<circle cx="505.5" cy="440.6" r="3.0" fill="#b45309" stroke="#ffffff" stroke-width="1"/>
<circle cx="557.2" cy="438.3" r="3.0" fill="#b45309" stroke="#ffffff" stroke-width="1"/>
<circle cx="608.8" cy="449.5" r="3.0" fill="#b45309" stroke="#ffffff" stroke-width="1"/>
<circle cx="660.5" cy="452.0" r="3.0" fill="#b45309" stroke="#ffffff" stroke-width="1"/>
<circle cx="712.2" cy="453.2" r="3.0" fill="#b45309" stroke="#ffffff" stroke-width="1"/>
<circle cx="763.9" cy="454.1" r="3.0" fill="#b45309" stroke="#ffffff" stroke-width="1"/>
<circle cx="815.6" cy="456.6" r="3.0" fill="#b45309" stroke="#ffffff" stroke-width="1"/>
<circle cx="867.3" cy="458.4" r="3.0" fill="#b45309" stroke="#ffffff" stroke-width="1"/>
<circle cx="918.9" cy="450.9" r="3.0" fill="#b45309" stroke="#ffffff" stroke-width="1"/>
<circle cx="970.6" cy="453.7" r="3.0" fill="#b45309" stroke="#ffffff" stroke-width="1"/>
<circle cx="1022.3" cy="454.8" r="3.0" fill="#b45309" stroke="#ffffff" stroke-width="1"/>
<circle cx="1074.0" cy="454.1" r="3.0" fill="#b45309" stroke="#ffffff" stroke-width="1"/>
<line x1="92.0" y1="552.0" x2="92.0" y2="558.0" stroke="#64748b" stroke-width="1"/>
<text x="92.0" y="576.0" text-anchor="middle" font-family="Inter, ui-sans-serif, system-ui, -apple-system, BlinkMacSystemFont, Segoe UI, sans-serif" font-size="11" font-weight="400" fill="#475569">1</text>
<line x1="298.7" y1="552.0" x2="298.7" y2="558.0" stroke="#64748b" stroke-width="1"/>
<text x="298.7" y="576.0" text-anchor="middle" font-family="Inter, ui-sans-serif, system-ui, -apple-system, BlinkMacSystemFont, Segoe UI, sans-serif" font-size="11" font-weight="400" fill="#475569">5</text>
<line x1="557.2" y1="552.0" x2="557.2" y2="558.0" stroke="#64748b" stroke-width="1"/>
<text x="557.2" y="576.0" text-anchor="middle" font-family="Inter, ui-sans-serif, system-ui, -apple-system, BlinkMacSystemFont, Segoe UI, sans-serif" font-size="11" font-weight="400" fill="#475569">10</text>
<line x1="815.6" y1="552.0" x2="815.6" y2="558.0" stroke="#64748b" stroke-width="1"/>
<text x="815.6" y="576.0" text-anchor="middle" font-family="Inter, ui-sans-serif, system-ui, -apple-system, BlinkMacSystemFont, Segoe UI, sans-serif" font-size="11" font-weight="400" fill="#475569">15</text>
<line x1="1074.0" y1="552.0" x2="1074.0" y2="558.0" stroke="#64748b" stroke-width="1"/>
<text x="1074.0" y="576.0" text-anchor="middle" font-family="Inter, ui-sans-serif, system-ui, -apple-system, BlinkMacSystemFont, Segoe UI, sans-serif" font-size="11" font-weight="400" fill="#475569">20</text>
<text x="583.0" y="612.0" text-anchor="middle" font-family="Inter, ui-sans-serif, system-ui, -apple-system, BlinkMacSystemFont, Segoe UI, sans-serif" font-size="13" font-weight="600" fill="#334155">Cold invocation number</text>
<line x1="854.0" y1="82.0" x2="884.0" y2="82.0" stroke="#334155" stroke-width="3"/>
<circle cx="869.0" cy="82.0" r="4.0" fill="#334155" stroke="#ffffff" stroke-width="1"/>
<text x="896.0" y="86.0" text-anchor="start" font-family="Inter, ui-sans-serif, system-ui, -apple-system, BlinkMacSystemFont, Segoe UI, sans-serif" font-size="12" font-weight="600" fill="#334155">No PGO</text>
<line x1="854.0" y1="106.0" x2="884.0" y2="106.0" stroke="#0f766e" stroke-width="3"/>
<circle cx="869.0" cy="106.0" r="4.0" fill="#0f766e" stroke="#ffffff" stroke-width="1"/>
<text x="896.0" y="110.0" text-anchor="start" font-family="Inter, ui-sans-serif, system-ui, -apple-system, BlinkMacSystemFont, Segoe UI, sans-serif" font-size="12" font-weight="600" fill="#334155">PGO, 5 profiles</text>
<line x1="854.0" y1="130.0" x2="884.0" y2="130.0" stroke="#b45309" stroke-width="3"/>
<circle cx="869.0" cy="130.0" r="4.0" fill="#b45309" stroke="#ffffff" stroke-width="1"/>
<text x="896.0" y="134.0" text-anchor="start" font-family="Inter, ui-sans-serif, system-ui, -apple-system, BlinkMacSystemFont, Segoe UI, sans-serif" font-size="12" font-weight="600" fill="#334155">PGO, 10 profiles</text>
</svg>