<svg xmlns="http://www.w3.org/2000/svg" width="1120" height="680" viewBox="0 0 1120 680">
<rect width="100%" height="100%" fill="#ffffff"/>
<text x="560.0" y="36" text-anchor="middle" font-family="Georgia, Times New Roman, serif" font-size="28" font-weight="700" fill="#111827">Go lusearch: saved profile state vs none</text>
<text x="560.0" y="62" text-anchor="middle" font-family="Helvetica, Arial, sans-serif" font-size="13" fill="#374151">Profile state captured from warm runs, saved, and imported into a later AOT build</text>
<rect x="118.0" y="96" width="25.4" height="44" fill="#5b84d7" opacity="0.85"/>
<rect x="143.4" y="96" width="355.4" height="44" fill="#f4d7ad" opacity="0.9"/>
<rect x="498.8" y="96" width="571.2" height="44" fill="#df7774" opacity="0.9"/>
<text x="321.1" y="126" text-anchor="middle" font-family="Helvetica, Arial, sans-serif" font-size="26" font-weight="700" fill="#111827">Warm</text>
<text x="784.4" y="126" text-anchor="middle" font-family="Helvetica, Arial, sans-serif" font-size="26" font-weight="700" fill="#111827">Hot</text>
<line x1="118" y1="588.0" x2="1070" y2="588.0" stroke="#cbd5e1"/>
<text x="104" y="593.0" text-anchor="end" font-family="Helvetica, Arial, sans-serif" font-size="18" fill="#111827">10<tspan baseline-shift="super" font-size="12">1</tspan></text>
<line x1="118" y1="513.9" x2="1070" y2="513.9" stroke="#e5e7eb"/>
<line x1="118" y1="416.1" x2="1070" y2="416.1" stroke="#e5e7eb"/>
<line x1="118" y1="342.0" x2="1070" y2="342.0" stroke="#cbd5e1"/>
<text x="104" y="347.0" text-anchor="end" font-family="Helvetica, Arial, sans-serif" font-size="18" fill="#111827">10<tspan baseline-shift="super" font-size="12">2</tspan></text>
<line x1="118" y1="267.9" x2="1070" y2="267.9" stroke="#e5e7eb"/>
<line x1="118" y1="170.1" x2="1070" y2="170.1" stroke="#e5e7eb"/>
<line x1="118" y1="96.0" x2="1070" y2="96.0" stroke="#cbd5e1"/>
<text x="104" y="101.0" text-anchor="end" font-family="Helvetica, Arial, sans-serif" font-size="18" fill="#111827">10<tspan baseline-shift="super" font-size="12">3</tspan></text>
<line x1="143.4" y1="96" x2="143.4" y2="588" stroke="#f4c08a" stroke-dasharray="7 7" stroke-width="2.0" opacity="0.95"/>
<line x1="498.8" y1="96" x2="498.8" y2="588" stroke="#df7774" stroke-dasharray="7 7" stroke-width="2.0" opacity="0.95"/>
<line x1="118.0" y1="588" x2="118.0" y2="595" stroke="#111827"/>
<text x="118.0" y="619" text-anchor="middle" font-family="Helvetica, Arial, sans-serif" font-size="16" fill="#111827">1</text>
<line x1="371.9" y1="588" x2="371.9" y2="595" stroke="#111827"/>
<text x="371.9" y="619" text-anchor="middle" font-family="Helvetica, Arial, sans-serif" font-size="16" fill="#111827">5</text>
<line x1="689.2" y1="588" x2="689.2" y2="595" stroke="#111827"/>
<text x="689.2" y="619" text-anchor="middle" font-family="Helvetica, Arial, sans-serif" font-size="16" fill="#111827">10</text>
<line x1="1006.5" y1="588" x2="1006.5" y2="595" stroke="#111827"/>
<text x="1006.5" y="619" text-anchor="middle" font-family="Helvetica, Arial, sans-serif" font-size="16" fill="#111827">15</text>
<line x1="1070.0" y1="588" x2="1070.0" y2="595" stroke="#111827"/>
<text x="1070.0" y="619" text-anchor="middle" font-family="Helvetica, Arial, sans-serif" font-size="16" fill="#111827">16</text>
<line x1="118" y1="588" x2="1070" y2="588" stroke="#111827"/>
<line x1="118" y1="96" x2="118" y2="588" stroke="#111827"/>
<polyline points="118.0,331.2 181.5,386.1 244.9,386.5 308.4,386.6 371.9,386.5 435.3,379.3 498.8,370.9 562.3,373.9 625.7,373.7 689.2,380.1 752.7,383.3 816.1,382.8 879.6,381.6 943.1,382.4 1006.5,381.8 1070.0,379.9" fill="none" stroke="#334155" stroke-width="2.8"/>
<circle cx="118.0" cy="331.2" r="4.0" fill="#334155"/>
<circle cx="181.5" cy="386.1" r="4.0" fill="#334155"/>
<circle cx="244.9" cy="386.5" r="4.0" fill="#334155"/>
<circle cx="308.4" cy="386.6" r="4.0" fill="#334155"/>
<circle cx="371.9" cy="386.5" r="4.0" fill="#334155"/>
<circle cx="435.3" cy="379.3" r="4.0" fill="#334155"/>
<circle cx="498.8" cy="370.9" r="4.0" fill="#334155"/>
<circle cx="562.3" cy="373.9" r="4.0" fill="#334155"/>
<circle cx="625.7" cy="373.7" r="4.0" fill="#334155"/>
<circle cx="689.2" cy="380.1" r="4.0" fill="#334155"/>
<circle cx="752.7" cy="383.3" r="4.0" fill="#334155"/>
<circle cx="816.1" cy="382.8" r="4.0" fill="#334155"/>
<circle cx="879.6" cy="381.6" r="4.0" fill="#334155"/>
<circle cx="943.1" cy="382.4" r="4.0" fill="#334155"/>
<circle cx="1006.5" cy="381.8" r="4.0" fill="#334155"/>
<circle cx="1070.0" cy="379.9" r="4.0" fill="#334155"/>
<polyline points="118.0,259.3 181.5,391.5 244.9,390.9 308.4,392.5 371.9,391.4 435.3,390.8 498.8,391.3 562.3,391.7 625.7,390.7 689.2,392.2 752.7,391.4 816.1,391.1 879.6,391.6 943.1,391.2 1006.5,391.2 1070.0,391.0" fill="none" stroke="#16a34a" stroke-width="2.8"/>
<circle cx="118.0" cy="259.3" r="4.0" fill="#16a34a"/>
<circle cx="181.5" cy="391.5" r="4.0" fill="#16a34a"/>
<circle cx="244.9" cy="390.9" r="4.0" fill="#16a34a"/>
<circle cx="308.4" cy="392.5" r="4.0" fill="#16a34a"/>
<circle cx="371.9" cy="391.4" r="4.0" fill="#16a34a"/>
<circle cx="435.3" cy="390.8" r="4.0" fill="#16a34a"/>
<circle cx="498.8" cy="391.3" r="4.0" fill="#16a34a"/>
<circle cx="562.3" cy="391.7" r="4.0" fill="#16a34a"/>
<circle cx="625.7" cy="390.7" r="4.0" fill="#16a34a"/>
<circle cx="689.2" cy="392.2" r="4.0" fill="#16a34a"/>
<circle cx="752.7" cy="391.4" r="4.0" fill="#16a34a"/>
<circle cx="816.1" cy="391.1" r="4.0" fill="#16a34a"/>
<circle cx="879.6" cy="391.6" r="4.0" fill="#16a34a"/>
<circle cx="943.1" cy="391.2" r="4.0" fill="#16a34a"/>
<circle cx="1006.5" cy="391.2" r="4.0" fill="#16a34a"/>
<circle cx="1070.0" cy="391.0" r="4.0" fill="#16a34a"/>
<line x1="118" y1="380.9" x2="990.0" y2="380.9" stroke="#7e22ce" stroke-dasharray="7 5" stroke-width="2"/>
<line x1="118" y1="391.3" x2="990.0" y2="391.3" stroke="#7e22ce" stroke-dasharray="7 5" stroke-width="2"/>
<line x1="990.0" y1="380.9" x2="990.0" y2="391.3" stroke="#111827" stroke-width="2.4"/>
<path d="M 983.0 389.9 L 990.0 380.9 L 997.0 389.9" fill="none" stroke="#111827" stroke-width="2.4"/>
<path d="M 983.0 382.3 L 990.0 391.3 L 997.0 382.3" fill="none" stroke="#111827" stroke-width="2.4"/>
<text x="1006.0" y="391.1" font-family="Helvetica, Arial, sans-serif" font-size="18" font-weight="700" fill="#111827">1.10x</text>
<text x="118" y="654" font-family="Helvetica, Arial, sans-serif" font-size="13" fill="#111827">Hot median: No saved profile state 69.5 ms, Saved profile state (5 profiles) 63.1 ms; saved-state line below no-save baseline on 10/10 hot requests.</text>
<rect x="136.0" y="281.3" width="80" height="30" rx="3" fill="#5b84d7" opacity="0.9"/>
<text x="176.0" y="303.3" text-anchor="middle" font-family="Helvetica, Arial, sans-serif" font-size="22" font-weight="700" fill="#111827">Cold</text>
<line x1="216.0" y1="281.3" x2="112.0" y2="263.3" stroke="#111827" stroke-width="2.2"/>
<line x1="498.8" y1="259.3" x2="498.8" y2="391.3" stroke="#111827" stroke-width="2.2"/>
<path d="M 491.8 268.3 L 498.8 259.3 L 505.8 268.3" fill="none" stroke="#111827" stroke-width="2.2"/>
<path d="M 491.8 382.3 L 498.8 391.3 L 505.8 382.3" fill="none" stroke="#111827" stroke-width="2.2"/>
<text x="512.8" y="330.3" font-family="Helvetica, Arial, sans-serif" font-size="18" font-weight="700" fill="#111827">3.4x</text>
<line x1="820" y1="518" x2="852" y2="518" stroke="#334155" stroke-width="3"/>
<circle cx="836" cy="518" r="4" fill="#334155"/>
<text x="862" y="522" font-family="Helvetica, Arial, sans-serif" font-size="13" fill="#111827">No saved profile state</text>
<line x1="820" y1="544" x2="852" y2="544" stroke="#16a34a" stroke-width="3"/>
<circle cx="836" cy="544" r="4" fill="#16a34a"/>
<text x="862" y="548" font-family="Helvetica, Arial, sans-serif" font-size="13" fill="#111827">Saved profile state (5 profiles)</text>
<text x="594.0" y="632" text-anchor="middle" font-family="Helvetica, Arial, sans-serif" font-size="24" fill="#111827">Request Number</text>
<text x="42" y="342.0" text-anchor="middle" font-family="Helvetica, Arial, sans-serif" font-size="24" fill="#111827" transform="rotate(-90 42 342.0)">Latency (ms)</text>
</svg>
