<svg xmlns="http://www.w3.org/2000/svg" width="1120" height="1084" viewBox="0 0 1120 1084">
<rect width="100%" height="100%" fill="#ffffff"/>
<text x="24" y="36" font-family="Helvetica, Arial, sans-serif" font-size="22" font-weight="700" fill="#202124">JAX compile/load latency vs invocation number</text>
<text x="24" y="60" font-family="Helvetica, Arial, sans-serif" font-size="13" fill="#5f6368">Each point is a fresh OpenFaaS pod. Lower is better.</text>
<text x="24" y="100" font-family="Helvetica, Arial, sans-serif" font-size="16" font-weight="700" fill="#202124">dacapo-eclipse</text>
<line x1="92" y1="338.0" x2="900" y2="338.0" stroke="#e5e7eb"/>
<text x="82" y="342.0" text-anchor="end" font-family="Helvetica, Arial, sans-serif" font-size="11" fill="#4b5563">0</text>
<line x1="92" y1="293.6" x2="900" y2="293.6" stroke="#e5e7eb"/>
<text x="82" y="297.6" text-anchor="end" font-family="Helvetica, Arial, sans-serif" font-size="11" fill="#4b5563">100</text>
<line x1="92" y1="249.2" x2="900" y2="249.2" stroke="#e5e7eb"/>
<text x="82" y="253.2" text-anchor="end" font-family="Helvetica, Arial, sans-serif" font-size="11" fill="#4b5563">200</text>
<line x1="92" y1="204.8" x2="900" y2="204.8" stroke="#e5e7eb"/>
<text x="82" y="208.8" text-anchor="end" font-family="Helvetica, Arial, sans-serif" font-size="11" fill="#4b5563">300</text>
<line x1="92" y1="160.4" x2="900" y2="160.4" stroke="#e5e7eb"/>
<text x="82" y="164.4" text-anchor="end" font-family="Helvetica, Arial, sans-serif" font-size="11" fill="#4b5563">400</text>
<line x1="92" y1="116.0" x2="900" y2="116.0" stroke="#e5e7eb"/>
<text x="82" y="120.0" text-anchor="end" font-family="Helvetica, Arial, sans-serif" font-size="11" fill="#4b5563">500</text>
<line x1="92.0" y1="116" x2="92.0" y2="338" stroke="#f1f5f9"/>
<text x="92.0" y="360" text-anchor="middle" font-family="Helvetica, Arial, sans-serif" font-size="11" fill="#4b5563">1</text>
<line x1="207.4" y1="116" x2="207.4" y2="338" stroke="#f1f5f9"/>
<text x="207.4" y="360" text-anchor="middle" font-family="Helvetica, Arial, sans-serif" font-size="11" fill="#4b5563">2</text>
<line x1="322.9" y1="116" x2="322.9" y2="338" stroke="#f1f5f9"/>
<text x="322.9" y="360" text-anchor="middle" font-family="Helvetica, Arial, sans-serif" font-size="11" fill="#4b5563">3</text>
<line x1="438.3" y1="116" x2="438.3" y2="338" stroke="#f1f5f9"/>
<text x="438.3" y="360" text-anchor="middle" font-family="Helvetica, Arial, sans-serif" font-size="11" fill="#4b5563">4</text>
<line x1="553.7" y1="116" x2="553.7" y2="338" stroke="#f1f5f9"/>
<text x="553.7" y="360" text-anchor="middle" font-family="Helvetica, Arial, sans-serif" font-size="11" fill="#4b5563">5</text>
<line x1="669.1" y1="116" x2="669.1" y2="338" stroke="#f1f5f9"/>
<text x="669.1" y="360" text-anchor="middle" font-family="Helvetica, Arial, sans-serif" font-size="11" fill="#4b5563">6</text>
<line x1="784.6" y1="116" x2="784.6" y2="338" stroke="#f1f5f9"/>
<text x="784.6" y="360" text-anchor="middle" font-family="Helvetica, Arial, sans-serif" font-size="11" fill="#4b5563">7</text>
<line x1="900.0" y1="116" x2="900.0" y2="338" stroke="#f1f5f9"/>
<text x="900.0" y="360" text-anchor="middle" font-family="Helvetica, Arial, sans-serif" font-size="11" fill="#4b5563">8</text>
<line x1="92" y1="338" x2="900" y2="338" stroke="#94a3b8"/>
<line x1="92" y1="116" x2="92" y2="338" stroke="#94a3b8"/>
<polyline points="92.0,263.6 207.4,262.8 322.9,268.2 438.3,265.2 553.7,266.4 669.1,259.2 784.6,259.3 900.0,256.3" fill="none" stroke="#b9413c" stroke-width="2.5"/>
<circle cx="92.0" cy="263.6" r="3.2" fill="#b9413c"/>
<circle cx="207.4" cy="262.8" r="3.2" fill="#b9413c"/>
<circle cx="322.9" cy="268.2" r="3.2" fill="#b9413c"/>
<circle cx="438.3" cy="265.2" r="3.2" fill="#b9413c"/>
<circle cx="553.7" cy="266.4" r="3.2" fill="#b9413c"/>
<circle cx="669.1" cy="259.2" r="3.2" fill="#b9413c"/>
<circle cx="784.6" cy="259.3" r="3.2" fill="#b9413c"/>
<circle cx="900.0" cy="256.3" r="3.2" fill="#b9413c"/>
<polyline points="92.0,255.4 207.4,325.7 322.9,327.5 438.3,320.2 553.7,325.4 669.1,326.4 784.6,327.1 900.0,321.1" fill="none" stroke="#2563eb" stroke-width="2.5"/>
<circle cx="92.0" cy="255.4" r="3.2" fill="#2563eb"/>
<circle cx="207.4" cy="325.7" r="3.2" fill="#2563eb"/>
<circle cx="322.9" cy="327.5" r="3.2" fill="#2563eb"/>
<circle cx="438.3" cy="320.2" r="3.2" fill="#2563eb"/>
<circle cx="553.7" cy="325.4" r="3.2" fill="#2563eb"/>
<circle cx="669.1" cy="326.4" r="3.2" fill="#2563eb"/>
<circle cx="784.6" cy="327.1" r="3.2" fill="#2563eb"/>
<circle cx="900.0" cy="321.1" r="3.2" fill="#2563eb"/>
<text x="24" y="426" font-family="Helvetica, Arial, sans-serif" font-size="16" font-weight="700" fill="#202124">dacapo-h2</text>
<line x1="92" y1="664.0" x2="900" y2="664.0" stroke="#e5e7eb"/>
<text x="82" y="668.0" text-anchor="end" font-family="Helvetica, Arial, sans-serif" font-size="11" fill="#4b5563">0</text>
<line x1="92" y1="619.6" x2="900" y2="619.6" stroke="#e5e7eb"/>
<text x="82" y="623.6" text-anchor="end" font-family="Helvetica, Arial, sans-serif" font-size="11" fill="#4b5563">100</text>
<line x1="92" y1="575.2" x2="900" y2="575.2" stroke="#e5e7eb"/>
<text x="82" y="579.2" text-anchor="end" font-family="Helvetica, Arial, sans-serif" font-size="11" fill="#4b5563">200</text>
<line x1="92" y1="530.8" x2="900" y2="530.8" stroke="#e5e7eb"/>
<text x="82" y="534.8" text-anchor="end" font-family="Helvetica, Arial, sans-serif" font-size="11" fill="#4b5563">300</text>
<line x1="92" y1="486.4" x2="900" y2="486.4" stroke="#e5e7eb"/>
<text x="82" y="490.4" text-anchor="end" font-family="Helvetica, Arial, sans-serif" font-size="11" fill="#4b5563">400</text>
<line x1="92" y1="442.0" x2="900" y2="442.0" stroke="#e5e7eb"/>
<text x="82" y="446.0" text-anchor="end" font-family="Helvetica, Arial, sans-serif" font-size="11" fill="#4b5563">500</text>
<line x1="92.0" y1="442" x2="92.0" y2="664" stroke="#f1f5f9"/>
<text x="92.0" y="686" text-anchor="middle" font-family="Helvetica, Arial, sans-serif" font-size="11" fill="#4b5563">1</text>
<line x1="207.4" y1="442" x2="207.4" y2="664" stroke="#f1f5f9"/>
<text x="207.4" y="686" text-anchor="middle" font-family="Helvetica, Arial, sans-serif" font-size="11" fill="#4b5563">2</text>
<line x1="322.9" y1="442" x2="322.9" y2="664" stroke="#f1f5f9"/>
<text x="322.9" y="686" text-anchor="middle" font-family="Helvetica, Arial, sans-serif" font-size="11" fill="#4b5563">3</text>
<line x1="438.3" y1="442" x2="438.3" y2="664" stroke="#f1f5f9"/>
<text x="438.3" y="686" text-anchor="middle" font-family="Helvetica, Arial, sans-serif" font-size="11" fill="#4b5563">4</text>
<line x1="553.7" y1="442" x2="553.7" y2="664" stroke="#f1f5f9"/>
<text x="553.7" y="686" text-anchor="middle" font-family="Helvetica, Arial, sans-serif" font-size="11" fill="#4b5563">5</text>
<line x1="669.1" y1="442" x2="669.1" y2="664" stroke="#f1f5f9"/>
<text x="669.1" y="686" text-anchor="middle" font-family="Helvetica, Arial, sans-serif" font-size="11" fill="#4b5563">6</text>
<line x1="784.6" y1="442" x2="784.6" y2="664" stroke="#f1f5f9"/>
<text x="784.6" y="686" text-anchor="middle" font-family="Helvetica, Arial, sans-serif" font-size="11" fill="#4b5563">7</text>
<line x1="900.0" y1="442" x2="900.0" y2="664" stroke="#f1f5f9"/>
<text x="900.0" y="686" text-anchor="middle" font-family="Helvetica, Arial, sans-serif" font-size="11" fill="#4b5563">8</text>
<line x1="92" y1="664" x2="900" y2="664" stroke="#94a3b8"/>
<line x1="92" y1="442" x2="92" y2="664" stroke="#94a3b8"/>
<polyline points="92.0,616.7 207.4,617.0 322.9,617.7 438.3,618.8 553.7,619.7 669.1,620.3 784.6,608.9 900.0,616.9" fill="none" stroke="#b9413c" stroke-width="2.5"/>
<circle cx="92.0" cy="616.7" r="3.2" fill="#b9413c"/>
<circle cx="207.4" cy="617.0" r="3.2" fill="#b9413c"/>
<circle cx="322.9" cy="617.7" r="3.2" fill="#b9413c"/>
<circle cx="438.3" cy="618.8" r="3.2" fill="#b9413c"/>
<circle cx="553.7" cy="619.7" r="3.2" fill="#b9413c"/>
<circle cx="669.1" cy="620.3" r="3.2" fill="#b9413c"/>
<circle cx="784.6" cy="608.9" r="3.2" fill="#b9413c"/>
<circle cx="900.0" cy="616.9" r="3.2" fill="#b9413c"/>
<polyline points="92.0,573.0 207.4,653.4 322.9,653.1 438.3,648.0 553.7,652.7 669.1,651.6 784.6,650.8 900.0,648.7" fill="none" stroke="#2563eb" stroke-width="2.5"/>
<circle cx="92.0" cy="573.0" r="3.2" fill="#2563eb"/>
<circle cx="207.4" cy="653.4" r="3.2" fill="#2563eb"/>
<circle cx="322.9" cy="653.1" r="3.2" fill="#2563eb"/>
<circle cx="438.3" cy="648.0" r="3.2" fill="#2563eb"/>
<circle cx="553.7" cy="652.7" r="3.2" fill="#2563eb"/>
<circle cx="669.1" cy="651.6" r="3.2" fill="#2563eb"/>
<circle cx="784.6" cy="650.8" r="3.2" fill="#2563eb"/>
<circle cx="900.0" cy="648.7" r="3.2" fill="#2563eb"/>
<text x="24" y="752" font-family="Helvetica, Arial, sans-serif" font-size="16" font-weight="700" fill="#202124">dacapo-lusearch</text>
<line x1="92" y1="990.0" x2="900" y2="990.0" stroke="#e5e7eb"/>
<text x="82" y="994.0" text-anchor="end" font-family="Helvetica, Arial, sans-serif" font-size="11" fill="#4b5563">0</text>
<line x1="92" y1="945.6" x2="900" y2="945.6" stroke="#e5e7eb"/>
<text x="82" y="949.6" text-anchor="end" font-family="Helvetica, Arial, sans-serif" font-size="11" fill="#4b5563">100</text>
<line x1="92" y1="901.2" x2="900" y2="901.2" stroke="#e5e7eb"/>
<text x="82" y="905.2" text-anchor="end" font-family="Helvetica, Arial, sans-serif" font-size="11" fill="#4b5563">200</text>
<line x1="92" y1="856.8" x2="900" y2="856.8" stroke="#e5e7eb"/>
<text x="82" y="860.8" text-anchor="end" font-family="Helvetica, Arial, sans-serif" font-size="11" fill="#4b5563">300</text>
<line x1="92" y1="812.4" x2="900" y2="812.4" stroke="#e5e7eb"/>
<text x="82" y="816.4" text-anchor="end" font-family="Helvetica, Arial, sans-serif" font-size="11" fill="#4b5563">400</text>
<line x1="92" y1="768.0" x2="900" y2="768.0" stroke="#e5e7eb"/>
<text x="82" y="772.0" text-anchor="end" font-family="Helvetica, Arial, sans-serif" font-size="11" fill="#4b5563">500</text>
<line x1="92.0" y1="768" x2="92.0" y2="990" stroke="#f1f5f9"/>
<text x="92.0" y="1012" text-anchor="middle" font-family="Helvetica, Arial, sans-serif" font-size="11" fill="#4b5563">1</text>
<line x1="207.4" y1="768" x2="207.4" y2="990" stroke="#f1f5f9"/>
<text x="207.4" y="1012" text-anchor="middle" font-family="Helvetica, Arial, sans-serif" font-size="11" fill="#4b5563">2</text>
<line x1="322.9" y1="768" x2="322.9" y2="990" stroke="#f1f5f9"/>
<text x="322.9" y="1012" text-anchor="middle" font-family="Helvetica, Arial, sans-serif" font-size="11" fill="#4b5563">3</text>
<line x1="438.3" y1="768" x2="438.3" y2="990" stroke="#f1f5f9"/>
<text x="438.3" y="1012" text-anchor="middle" font-family="Helvetica, Arial, sans-serif" font-size="11" fill="#4b5563">4</text>
<line x1="553.7" y1="768" x2="553.7" y2="990" stroke="#f1f5f9"/>
<text x="553.7" y="1012" text-anchor="middle" font-family="Helvetica, Arial, sans-serif" font-size="11" fill="#4b5563">5</text>
<line x1="669.1" y1="768" x2="669.1" y2="990" stroke="#f1f5f9"/>
<text x="669.1" y="1012" text-anchor="middle" font-family="Helvetica, Arial, sans-serif" font-size="11" fill="#4b5563">6</text>
<line x1="784.6" y1="768" x2="784.6" y2="990" stroke="#f1f5f9"/>
<text x="784.6" y="1012" text-anchor="middle" font-family="Helvetica, Arial, sans-serif" font-size="11" fill="#4b5563">7</text>
<line x1="900.0" y1="768" x2="900.0" y2="990" stroke="#f1f5f9"/>
<text x="900.0" y="1012" text-anchor="middle" font-family="Helvetica, Arial, sans-serif" font-size="11" fill="#4b5563">8</text>
<line x1="92" y1="990" x2="900" y2="990" stroke="#94a3b8"/>
<line x1="92" y1="768" x2="92" y2="990" stroke="#94a3b8"/>
<polyline points="92.0,918.5 207.4,939.8 322.9,943.1 438.3,942.9 553.7,943.1 669.1,941.8 784.6,927.1 900.0,943.6" fill="none" stroke="#b9413c" stroke-width="2.5"/>
<circle cx="92.0" cy="918.5" r="3.2" fill="#b9413c"/>
<circle cx="207.4" cy="939.8" r="3.2" fill="#b9413c"/>
<circle cx="322.9" cy="943.1" r="3.2" fill="#b9413c"/>
<circle cx="438.3" cy="942.9" r="3.2" fill="#b9413c"/>
<circle cx="553.7" cy="943.1" r="3.2" fill="#b9413c"/>
<circle cx="669.1" cy="941.8" r="3.2" fill="#b9413c"/>
<circle cx="784.6" cy="927.1" r="3.2" fill="#b9413c"/>
<circle cx="900.0" cy="943.6" r="3.2" fill="#b9413c"/>
<polyline points="92.0,924.8 207.4,979.8 322.9,979.7 438.3,977.4 553.7,978.7 669.1,979.8 784.6,979.1 900.0,979.9" fill="none" stroke="#2563eb" stroke-width="2.5"/>
<circle cx="92.0" cy="924.8" r="3.2" fill="#2563eb"/>
<circle cx="207.4" cy="979.8" r="3.2" fill="#2563eb"/>
<circle cx="322.9" cy="979.7" r="3.2" fill="#2563eb"/>
<circle cx="438.3" cy="977.4" r="3.2" fill="#2563eb"/>
<circle cx="553.7" cy="978.7" r="3.2" fill="#2563eb"/>
<circle cx="669.1" cy="979.8" r="3.2" fill="#2563eb"/>
<circle cx="784.6" cy="979.1" r="3.2" fill="#2563eb"/>
<circle cx="900.0" cy="979.9" r="3.2" fill="#2563eb"/>
<text x="496.0" y="1036" text-anchor="middle" font-family="Helvetica, Arial, sans-serif" font-size="13" font-weight="600" fill="#334155">Invocation number</text>
<line x1="928" y1="124" x2="960" y2="124" stroke="#b9413c" stroke-width="3"/>
<circle cx="944.0" cy="124.0" r="4.0" fill="#b9413c"/>
<text x="972" y="128" font-family="Helvetica, Arial, sans-serif" font-size="12" font-weight="600" fill="#334155">baseline</text>
<line x1="928" y1="152" x2="960" y2="152" stroke="#2f7d59" stroke-width="3"/>
<circle cx="944.0" cy="152.0" r="4.0" fill="#2f7d59"/>
<text x="972" y="156" font-family="Helvetica, Arial, sans-serif" font-size="12" font-weight="600" fill="#334155">redis-cache</text>
<line x1="928" y1="180" x2="960" y2="180" stroke="#2563eb" stroke-width="3"/>
<circle cx="944.0" cy="180.0" r="4.0" fill="#2563eb"/>
<text x="972" y="184" font-family="Helvetica, Arial, sans-serif" font-size="12" font-weight="600" fill="#334155">progressive-cache</text>
</svg>
