<svg xmlns="http://www.w3.org/2000/svg" width="1120" height="1084" viewBox="0 0 1120 1084">
<rect width="100%" height="100%" fill="#ffffff"/>
<text x="24" y="36" font-family="Helvetica, Arial, sans-serif" font-size="22" font-weight="700" fill="#202124">HTTP first-request latency vs invocation number</text>
<text x="24" y="60" font-family="Helvetica, Arial, sans-serif" font-size="13" fill="#5f6368">Each point is a fresh OpenFaaS pod. Lower is better.</text>
<text x="24" y="100" font-family="Helvetica, Arial, sans-serif" font-size="16" font-weight="700" fill="#202124">dacapo-eclipse</text>
<line x1="92" y1="338.0" x2="900" y2="338.0" stroke="#e5e7eb"/>
<text x="82" y="342.0" text-anchor="end" font-family="Helvetica, Arial, sans-serif" font-size="11" fill="#4b5563">0</text>
<line x1="92" y1="293.6" x2="900" y2="293.6" stroke="#e5e7eb"/>
<text x="82" y="297.6" text-anchor="end" font-family="Helvetica, Arial, sans-serif" font-size="11" fill="#4b5563">200</text>
<line x1="92" y1="249.2" x2="900" y2="249.2" stroke="#e5e7eb"/>
<text x="82" y="253.2" text-anchor="end" font-family="Helvetica, Arial, sans-serif" font-size="11" fill="#4b5563">400</text>
<line x1="92" y1="204.8" x2="900" y2="204.8" stroke="#e5e7eb"/>
<text x="82" y="208.8" text-anchor="end" font-family="Helvetica, Arial, sans-serif" font-size="11" fill="#4b5563">600</text>
<line x1="92" y1="160.4" x2="900" y2="160.4" stroke="#e5e7eb"/>
<text x="82" y="164.4" text-anchor="end" font-family="Helvetica, Arial, sans-serif" font-size="11" fill="#4b5563">800</text>
<line x1="92" y1="116.0" x2="900" y2="116.0" stroke="#e5e7eb"/>
<text x="82" y="120.0" text-anchor="end" font-family="Helvetica, Arial, sans-serif" font-size="11" fill="#4b5563">1000</text>
<line x1="92.0" y1="116" x2="92.0" y2="338" stroke="#f1f5f9"/>
<text x="92.0" y="360" text-anchor="middle" font-family="Helvetica, Arial, sans-serif" font-size="11" fill="#4b5563">1</text>
<line x1="207.4" y1="116" x2="207.4" y2="338" stroke="#f1f5f9"/>
<text x="207.4" y="360" text-anchor="middle" font-family="Helvetica, Arial, sans-serif" font-size="11" fill="#4b5563">2</text>
<line x1="322.9" y1="116" x2="322.9" y2="338" stroke="#f1f5f9"/>
<text x="322.9" y="360" text-anchor="middle" font-family="Helvetica, Arial, sans-serif" font-size="11" fill="#4b5563">3</text>
<line x1="438.3" y1="116" x2="438.3" y2="338" stroke="#f1f5f9"/>
<text x="438.3" y="360" text-anchor="middle" font-family="Helvetica, Arial, sans-serif" font-size="11" fill="#4b5563">4</text>
<line x1="553.7" y1="116" x2="553.7" y2="338" stroke="#f1f5f9"/>
<text x="553.7" y="360" text-anchor="middle" font-family="Helvetica, Arial, sans-serif" font-size="11" fill="#4b5563">5</text>
<line x1="669.1" y1="116" x2="669.1" y2="338" stroke="#f1f5f9"/>
<text x="669.1" y="360" text-anchor="middle" font-family="Helvetica, Arial, sans-serif" font-size="11" fill="#4b5563">6</text>
<line x1="784.6" y1="116" x2="784.6" y2="338" stroke="#f1f5f9"/>
<text x="784.6" y="360" text-anchor="middle" font-family="Helvetica, Arial, sans-serif" font-size="11" fill="#4b5563">7</text>
<line x1="900.0" y1="116" x2="900.0" y2="338" stroke="#f1f5f9"/>
<text x="900.0" y="360" text-anchor="middle" font-family="Helvetica, Arial, sans-serif" font-size="11" fill="#4b5563">8</text>
<line x1="92" y1="338" x2="900" y2="338" stroke="#94a3b8"/>
<line x1="92" y1="116" x2="92" y2="338" stroke="#94a3b8"/>
<polyline points="92.0,225.2 207.4,226.8 322.9,229.9 438.3,239.8 553.7,240.2 669.1,224.4 784.6,228.9 900.0,225.7" fill="none" stroke="#b9413c" stroke-width="2.5"/>
<circle cx="92.0" cy="225.2" r="3.2" fill="#b9413c"/>
<circle cx="207.4" cy="226.8" r="3.2" fill="#b9413c"/>
<circle cx="322.9" cy="229.9" r="3.2" fill="#b9413c"/>
<circle cx="438.3" cy="239.8" r="3.2" fill="#b9413c"/>
<circle cx="553.7" cy="240.2" r="3.2" fill="#b9413c"/>
<circle cx="669.1" cy="224.4" r="3.2" fill="#b9413c"/>
<circle cx="784.6" cy="228.9" r="3.2" fill="#b9413c"/>
<circle cx="900.0" cy="225.7" r="3.2" fill="#b9413c"/>
<polyline points="92.0,198.2 207.4,254.5 322.9,275.8 438.3,238.0 553.7,265.9 669.1,271.2 784.6,273.9 900.0,268.5" fill="none" stroke="#2563eb" stroke-width="2.5"/>
<circle cx="92.0" cy="198.2" r="3.2" fill="#2563eb"/>
<circle cx="207.4" cy="254.5" r="3.2" fill="#2563eb"/>
<circle cx="322.9" cy="275.8" r="3.2" fill="#2563eb"/>
<circle cx="438.3" cy="238.0" r="3.2" fill="#2563eb"/>
<circle cx="553.7" cy="265.9" r="3.2" fill="#2563eb"/>
<circle cx="669.1" cy="271.2" r="3.2" fill="#2563eb"/>
<circle cx="784.6" cy="273.9" r="3.2" fill="#2563eb"/>
<circle cx="900.0" cy="268.5" r="3.2" fill="#2563eb"/>
<text x="24" y="426" font-family="Helvetica, Arial, sans-serif" font-size="16" font-weight="700" fill="#202124">dacapo-h2</text>
<line x1="92" y1="664.0" x2="900" y2="664.0" stroke="#e5e7eb"/>
<text x="82" y="668.0" text-anchor="end" font-family="Helvetica, Arial, sans-serif" font-size="11" fill="#4b5563">0</text>
<line x1="92" y1="619.6" x2="900" y2="619.6" stroke="#e5e7eb"/>
<text x="82" y="623.6" text-anchor="end" font-family="Helvetica, Arial, sans-serif" font-size="11" fill="#4b5563">200</text>
<line x1="92" y1="575.2" x2="900" y2="575.2" stroke="#e5e7eb"/>
<text x="82" y="579.2" text-anchor="end" font-family="Helvetica, Arial, sans-serif" font-size="11" fill="#4b5563">400</text>
<line x1="92" y1="530.8" x2="900" y2="530.8" stroke="#e5e7eb"/>
<text x="82" y="534.8" text-anchor="end" font-family="Helvetica, Arial, sans-serif" font-size="11" fill="#4b5563">600</text>
<line x1="92" y1="486.4" x2="900" y2="486.4" stroke="#e5e7eb"/>
<text x="82" y="490.4" text-anchor="end" font-family="Helvetica, Arial, sans-serif" font-size="11" fill="#4b5563">800</text>
<line x1="92" y1="442.0" x2="900" y2="442.0" stroke="#e5e7eb"/>
<text x="82" y="446.0" text-anchor="end" font-family="Helvetica, Arial, sans-serif" font-size="11" fill="#4b5563">1000</text>
<line x1="92.0" y1="442" x2="92.0" y2="664" stroke="#f1f5f9"/>
<text x="92.0" y="686" text-anchor="middle" font-family="Helvetica, Arial, sans-serif" font-size="11" fill="#4b5563">1</text>
<line x1="207.4" y1="442" x2="207.4" y2="664" stroke="#f1f5f9"/>
<text x="207.4" y="686" text-anchor="middle" font-family="Helvetica, Arial, sans-serif" font-size="11" fill="#4b5563">2</text>
<line x1="322.9" y1="442" x2="322.9" y2="664" stroke="#f1f5f9"/>
<text x="322.9" y="686" text-anchor="middle" font-family="Helvetica, Arial, sans-serif" font-size="11" fill="#4b5563">3</text>
<line x1="438.3" y1="442" x2="438.3" y2="664" stroke="#f1f5f9"/>
<text x="438.3" y="686" text-anchor="middle" font-family="Helvetica, Arial, sans-serif" font-size="11" fill="#4b5563">4</text>
<line x1="553.7" y1="442" x2="553.7" y2="664" stroke="#f1f5f9"/>
<text x="553.7" y="686" text-anchor="middle" font-family="Helvetica, Arial, sans-serif" font-size="11" fill="#4b5563">5</text>
<line x1="669.1" y1="442" x2="669.1" y2="664" stroke="#f1f5f9"/>
<text x="669.1" y="686" text-anchor="middle" font-family="Helvetica, Arial, sans-serif" font-size="11" fill="#4b5563">6</text>
<line x1="784.6" y1="442" x2="784.6" y2="664" stroke="#f1f5f9"/>
<text x="784.6" y="686" text-anchor="middle" font-family="Helvetica, Arial, sans-serif" font-size="11" fill="#4b5563">7</text>
<line x1="900.0" y1="442" x2="900.0" y2="664" stroke="#f1f5f9"/>
<text x="900.0" y="686" text-anchor="middle" font-family="Helvetica, Arial, sans-serif" font-size="11" fill="#4b5563">8</text>
<line x1="92" y1="664" x2="900" y2="664" stroke="#94a3b8"/>
<line x1="92" y1="442" x2="92" y2="664" stroke="#94a3b8"/>
<polyline points="92.0,566.6 207.4,575.5 322.9,579.4 438.3,581.5 553.7,583.3 669.1,581.3 784.6,549.4 900.0,576.9" fill="none" stroke="#b9413c" stroke-width="2.5"/>
<circle cx="92.0" cy="566.6" r="3.2" fill="#b9413c"/>
<circle cx="207.4" cy="575.5" r="3.2" fill="#b9413c"/>
<circle cx="322.9" cy="579.4" r="3.2" fill="#b9413c"/>
<circle cx="438.3" cy="581.5" r="3.2" fill="#b9413c"/>
<circle cx="553.7" cy="583.3" r="3.2" fill="#b9413c"/>
<circle cx="669.1" cy="581.3" r="3.2" fill="#b9413c"/>
<circle cx="784.6" cy="549.4" r="3.2" fill="#b9413c"/>
<circle cx="900.0" cy="576.9" r="3.2" fill="#b9413c"/>
<polyline points="92.0,497.6 207.4,604.5 322.9,607.3 438.3,594.3 553.7,603.9 669.1,594.3 784.6,580.6 900.0,567.5" fill="none" stroke="#2563eb" stroke-width="2.5"/>
<circle cx="92.0" cy="497.6" r="3.2" fill="#2563eb"/>
<circle cx="207.4" cy="604.5" r="3.2" fill="#2563eb"/>
<circle cx="322.9" cy="607.3" r="3.2" fill="#2563eb"/>
<circle cx="438.3" cy="594.3" r="3.2" fill="#2563eb"/>
<circle cx="553.7" cy="603.9" r="3.2" fill="#2563eb"/>
<circle cx="669.1" cy="594.3" r="3.2" fill="#2563eb"/>
<circle cx="784.6" cy="580.6" r="3.2" fill="#2563eb"/>
<circle cx="900.0" cy="567.5" r="3.2" fill="#2563eb"/>
<text x="24" y="752" font-family="Helvetica, Arial, sans-serif" font-size="16" font-weight="700" fill="#202124">dacapo-lusearch</text>
<line x1="92" y1="990.0" x2="900" y2="990.0" stroke="#e5e7eb"/>
<text x="82" y="994.0" text-anchor="end" font-family="Helvetica, Arial, sans-serif" font-size="11" fill="#4b5563">0</text>
<line x1="92" y1="945.6" x2="900" y2="945.6" stroke="#e5e7eb"/>
<text x="82" y="949.6" text-anchor="end" font-family="Helvetica, Arial, sans-serif" font-size="11" fill="#4b5563">200</text>
<line x1="92" y1="901.2" x2="900" y2="901.2" stroke="#e5e7eb"/>
<text x="82" y="905.2" text-anchor="end" font-family="Helvetica, Arial, sans-serif" font-size="11" fill="#4b5563">400</text>
<line x1="92" y1="856.8" x2="900" y2="856.8" stroke="#e5e7eb"/>
<text x="82" y="860.8" text-anchor="end" font-family="Helvetica, Arial, sans-serif" font-size="11" fill="#4b5563">600</text>
<line x1="92" y1="812.4" x2="900" y2="812.4" stroke="#e5e7eb"/>
<text x="82" y="816.4" text-anchor="end" font-family="Helvetica, Arial, sans-serif" font-size="11" fill="#4b5563">800</text>
<line x1="92" y1="768.0" x2="900" y2="768.0" stroke="#e5e7eb"/>
<text x="82" y="772.0" text-anchor="end" font-family="Helvetica, Arial, sans-serif" font-size="11" fill="#4b5563">1000</text>
<line x1="92.0" y1="768" x2="92.0" y2="990" stroke="#f1f5f9"/>
<text x="92.0" y="1012" text-anchor="middle" font-family="Helvetica, Arial, sans-serif" font-size="11" fill="#4b5563">1</text>
<line x1="207.4" y1="768" x2="207.4" y2="990" stroke="#f1f5f9"/>
<text x="207.4" y="1012" text-anchor="middle" font-family="Helvetica, Arial, sans-serif" font-size="11" fill="#4b5563">2</text>
<line x1="322.9" y1="768" x2="322.9" y2="990" stroke="#f1f5f9"/>
<text x="322.9" y="1012" text-anchor="middle" font-family="Helvetica, Arial, sans-serif" font-size="11" fill="#4b5563">3</text>
<line x1="438.3" y1="768" x2="438.3" y2="990" stroke="#f1f5f9"/>
<text x="438.3" y="1012" text-anchor="middle" font-family="Helvetica, Arial, sans-serif" font-size="11" fill="#4b5563">4</text>
<line x1="553.7" y1="768" x2="553.7" y2="990" stroke="#f1f5f9"/>
<text x="553.7" y="1012" text-anchor="middle" font-family="Helvetica, Arial, sans-serif" font-size="11" fill="#4b5563">5</text>
<line x1="669.1" y1="768" x2="669.1" y2="990" stroke="#f1f5f9"/>
<text x="669.1" y="1012" text-anchor="middle" font-family="Helvetica, Arial, sans-serif" font-size="11" fill="#4b5563">6</text>
<line x1="784.6" y1="768" x2="784.6" y2="990" stroke="#f1f5f9"/>
<text x="784.6" y="1012" text-anchor="middle" font-family="Helvetica, Arial, sans-serif" font-size="11" fill="#4b5563">7</text>
<line x1="900.0" y1="768" x2="900.0" y2="990" stroke="#f1f5f9"/>
<text x="900.0" y="1012" text-anchor="middle" font-family="Helvetica, Arial, sans-serif" font-size="11" fill="#4b5563">8</text>
<line x1="92" y1="990" x2="900" y2="990" stroke="#94a3b8"/>
<line x1="92" y1="768" x2="92" y2="990" stroke="#94a3b8"/>
<polyline points="92.0,873.7 207.4,897.7 322.9,896.8 438.3,902.7 553.7,903.8 669.1,903.2 784.6,879.3 900.0,894.1" fill="none" stroke="#b9413c" stroke-width="2.5"/>
<circle cx="92.0" cy="873.7" r="3.2" fill="#b9413c"/>
<circle cx="207.4" cy="897.7" r="3.2" fill="#b9413c"/>
<circle cx="322.9" cy="896.8" r="3.2" fill="#b9413c"/>
<circle cx="438.3" cy="902.7" r="3.2" fill="#b9413c"/>
<circle cx="553.7" cy="903.8" r="3.2" fill="#b9413c"/>
<circle cx="669.1" cy="903.2" r="3.2" fill="#b9413c"/>
<circle cx="784.6" cy="879.3" r="3.2" fill="#b9413c"/>
<circle cx="900.0" cy="894.1" r="3.2" fill="#b9413c"/>
<polyline points="92.0,858.5 207.4,928.8 322.9,931.1 438.3,919.8 553.7,921.4 669.1,929.0 784.6,919.4 900.0,933.4" fill="none" stroke="#2563eb" stroke-width="2.5"/>
<circle cx="92.0" cy="858.5" r="3.2" fill="#2563eb"/>
<circle cx="207.4" cy="928.8" r="3.2" fill="#2563eb"/>
<circle cx="322.9" cy="931.1" r="3.2" fill="#2563eb"/>
<circle cx="438.3" cy="919.8" r="3.2" fill="#2563eb"/>
<circle cx="553.7" cy="921.4" r="3.2" fill="#2563eb"/>
<circle cx="669.1" cy="929.0" r="3.2" fill="#2563eb"/>
<circle cx="784.6" cy="919.4" r="3.2" fill="#2563eb"/>
<circle cx="900.0" cy="933.4" r="3.2" fill="#2563eb"/>
<text x="496.0" y="1036" text-anchor="middle" font-family="Helvetica, Arial, sans-serif" font-size="13" font-weight="600" fill="#334155">Invocation number</text>
<line x1="928" y1="124" x2="960" y2="124" stroke="#b9413c" stroke-width="3"/>
<circle cx="944.0" cy="124.0" r="4.0" fill="#b9413c"/>
<text x="972" y="128" font-family="Helvetica, Arial, sans-serif" font-size="12" font-weight="600" fill="#334155">baseline</text>
<line x1="928" y1="152" x2="960" y2="152" stroke="#2f7d59" stroke-width="3"/>
<circle cx="944.0" cy="152.0" r="4.0" fill="#2f7d59"/>
<text x="972" y="156" font-family="Helvetica, Arial, sans-serif" font-size="12" font-weight="600" fill="#334155">redis-cache</text>
<line x1="928" y1="180" x2="960" y2="180" stroke="#2563eb" stroke-width="3"/>
<circle cx="944.0" cy="180.0" r="4.0" fill="#2563eb"/>
<text x="972" y="184" font-family="Helvetica, Arial, sans-serif" font-size="12" font-weight="600" fill="#334155">progressive-cache</text>
</svg>
