<svg xmlns="http://www.w3.org/2000/svg" width="1120" height="1084" viewBox="0 0 1120 1084">
<rect width="100%" height="100%" fill="#ffffff"/>
<text x="24" y="36" font-family="Helvetica, Arial, sans-serif" font-size="22" font-weight="700" fill="#202124">End-to-end cold-start latency vs invocation number</text>
<text x="24" y="60" font-family="Helvetica, Arial, sans-serif" font-size="13" fill="#5f6368">Each point is a fresh OpenFaaS pod. Lower is better.</text>
<text x="24" y="100" font-family="Helvetica, Arial, sans-serif" font-size="16" font-weight="700" fill="#202124">dacapo-eclipse</text>
<line x1="92" y1="338.0" x2="900" y2="338.0" stroke="#e5e7eb"/>
<text x="82" y="342.0" text-anchor="end" font-family="Helvetica, Arial, sans-serif" font-size="11" fill="#4b5563">0</text>
<line x1="92" y1="293.6" x2="900" y2="293.6" stroke="#e5e7eb"/>
<text x="82" y="297.6" text-anchor="end" font-family="Helvetica, Arial, sans-serif" font-size="11" fill="#4b5563">2000</text>
<line x1="92" y1="249.2" x2="900" y2="249.2" stroke="#e5e7eb"/>
<text x="82" y="253.2" text-anchor="end" font-family="Helvetica, Arial, sans-serif" font-size="11" fill="#4b5563">4000</text>
<line x1="92" y1="204.8" x2="900" y2="204.8" stroke="#e5e7eb"/>
<text x="82" y="208.8" text-anchor="end" font-family="Helvetica, Arial, sans-serif" font-size="11" fill="#4b5563">6000</text>
<line x1="92" y1="160.4" x2="900" y2="160.4" stroke="#e5e7eb"/>
<text x="82" y="164.4" text-anchor="end" font-family="Helvetica, Arial, sans-serif" font-size="11" fill="#4b5563">8000</text>
<line x1="92" y1="116.0" x2="900" y2="116.0" stroke="#e5e7eb"/>
<text x="82" y="120.0" text-anchor="end" font-family="Helvetica, Arial, sans-serif" font-size="11" fill="#4b5563">10000</text>
<line x1="92.0" y1="116" x2="92.0" y2="338" stroke="#f1f5f9"/>
<text x="92.0" y="360" text-anchor="middle" font-family="Helvetica, Arial, sans-serif" font-size="11" fill="#4b5563">1</text>
<line x1="207.4" y1="116" x2="207.4" y2="338" stroke="#f1f5f9"/>
<text x="207.4" y="360" text-anchor="middle" font-family="Helvetica, Arial, sans-serif" font-size="11" fill="#4b5563">2</text>
<line x1="322.9" y1="116" x2="322.9" y2="338" stroke="#f1f5f9"/>
<text x="322.9" y="360" text-anchor="middle" font-family="Helvetica, Arial, sans-serif" font-size="11" fill="#4b5563">3</text>
<line x1="438.3" y1="116" x2="438.3" y2="338" stroke="#f1f5f9"/>
<text x="438.3" y="360" text-anchor="middle" font-family="Helvetica, Arial, sans-serif" font-size="11" fill="#4b5563">4</text>
<line x1="553.7" y1="116" x2="553.7" y2="338" stroke="#f1f5f9"/>
<text x="553.7" y="360" text-anchor="middle" font-family="Helvetica, Arial, sans-serif" font-size="11" fill="#4b5563">5</text>
<line x1="669.1" y1="116" x2="669.1" y2="338" stroke="#f1f5f9"/>
<text x="669.1" y="360" text-anchor="middle" font-family="Helvetica, Arial, sans-serif" font-size="11" fill="#4b5563">6</text>
<line x1="784.6" y1="116" x2="784.6" y2="338" stroke="#f1f5f9"/>
<text x="784.6" y="360" text-anchor="middle" font-family="Helvetica, Arial, sans-serif" font-size="11" fill="#4b5563">7</text>
<line x1="900.0" y1="116" x2="900.0" y2="338" stroke="#f1f5f9"/>
<text x="900.0" y="360" text-anchor="middle" font-family="Helvetica, Arial, sans-serif" font-size="11" fill="#4b5563">8</text>
<line x1="92" y1="338" x2="900" y2="338" stroke="#94a3b8"/>
<line x1="92" y1="116" x2="92" y2="338" stroke="#94a3b8"/>
<polyline points="92.0,212.5 207.4,265.7 322.9,210.1 438.3,196.7 553.7,209.9 669.1,195.4 784.6,213.5 900.0,196.0" fill="none" stroke="#b9413c" stroke-width="2.5"/>
<circle cx="92.0" cy="212.5" r="3.2" fill="#b9413c"/>
<circle cx="207.4" cy="265.7" r="3.2" fill="#b9413c"/>
<circle cx="322.9" cy="210.1" r="3.2" fill="#b9413c"/>
<circle cx="438.3" cy="196.7" r="3.2" fill="#b9413c"/>
<circle cx="553.7" cy="209.9" r="3.2" fill="#b9413c"/>
<circle cx="669.1" cy="195.4" r="3.2" fill="#b9413c"/>
<circle cx="784.6" cy="213.5" r="3.2" fill="#b9413c"/>
<circle cx="900.0" cy="196.0" r="3.2" fill="#b9413c"/>
<polyline points="92.0,256.3 207.4,276.5 322.9,274.7 438.3,265.6 553.7,275.2 669.1,225.2 784.6,272.7 900.0,225.3" fill="none" stroke="#2563eb" stroke-width="2.5"/>
<circle cx="92.0" cy="256.3" r="3.2" fill="#2563eb"/>
<circle cx="207.4" cy="276.5" r="3.2" fill="#2563eb"/>
<circle cx="322.9" cy="274.7" r="3.2" fill="#2563eb"/>
<circle cx="438.3" cy="265.6" r="3.2" fill="#2563eb"/>
<circle cx="553.7" cy="275.2" r="3.2" fill="#2563eb"/>
<circle cx="669.1" cy="225.2" r="3.2" fill="#2563eb"/>
<circle cx="784.6" cy="272.7" r="3.2" fill="#2563eb"/>
<circle cx="900.0" cy="225.3" r="3.2" fill="#2563eb"/>
<text x="24" y="426" font-family="Helvetica, Arial, sans-serif" font-size="16" font-weight="700" fill="#202124">dacapo-h2</text>
<line x1="92" y1="664.0" x2="900" y2="664.0" stroke="#e5e7eb"/>
<text x="82" y="668.0" text-anchor="end" font-family="Helvetica, Arial, sans-serif" font-size="11" fill="#4b5563">0</text>
<line x1="92" y1="619.6" x2="900" y2="619.6" stroke="#e5e7eb"/>
<text x="82" y="623.6" text-anchor="end" font-family="Helvetica, Arial, sans-serif" font-size="11" fill="#4b5563">2000</text>
<line x1="92" y1="575.2" x2="900" y2="575.2" stroke="#e5e7eb"/>
<text x="82" y="579.2" text-anchor="end" font-family="Helvetica, Arial, sans-serif" font-size="11" fill="#4b5563">4000</text>
<line x1="92" y1="530.8" x2="900" y2="530.8" stroke="#e5e7eb"/>
<text x="82" y="534.8" text-anchor="end" font-family="Helvetica, Arial, sans-serif" font-size="11" fill="#4b5563">6000</text>
<line x1="92" y1="486.4" x2="900" y2="486.4" stroke="#e5e7eb"/>
<text x="82" y="490.4" text-anchor="end" font-family="Helvetica, Arial, sans-serif" font-size="11" fill="#4b5563">8000</text>
<line x1="92" y1="442.0" x2="900" y2="442.0" stroke="#e5e7eb"/>
<text x="82" y="446.0" text-anchor="end" font-family="Helvetica, Arial, sans-serif" font-size="11" fill="#4b5563">10000</text>
<line x1="92.0" y1="442" x2="92.0" y2="664" stroke="#f1f5f9"/>
<text x="92.0" y="686" text-anchor="middle" font-family="Helvetica, Arial, sans-serif" font-size="11" fill="#4b5563">1</text>
<line x1="207.4" y1="442" x2="207.4" y2="664" stroke="#f1f5f9"/>
<text x="207.4" y="686" text-anchor="middle" font-family="Helvetica, Arial, sans-serif" font-size="11" fill="#4b5563">2</text>
<line x1="322.9" y1="442" x2="322.9" y2="664" stroke="#f1f5f9"/>
<text x="322.9" y="686" text-anchor="middle" font-family="Helvetica, Arial, sans-serif" font-size="11" fill="#4b5563">3</text>
<line x1="438.3" y1="442" x2="438.3" y2="664" stroke="#f1f5f9"/>
<text x="438.3" y="686" text-anchor="middle" font-family="Helvetica, Arial, sans-serif" font-size="11" fill="#4b5563">4</text>
<line x1="553.7" y1="442" x2="553.7" y2="664" stroke="#f1f5f9"/>
<text x="553.7" y="686" text-anchor="middle" font-family="Helvetica, Arial, sans-serif" font-size="11" fill="#4b5563">5</text>
<line x1="669.1" y1="442" x2="669.1" y2="664" stroke="#f1f5f9"/>
<text x="669.1" y="686" text-anchor="middle" font-family="Helvetica, Arial, sans-serif" font-size="11" fill="#4b5563">6</text>
<line x1="784.6" y1="442" x2="784.6" y2="664" stroke="#f1f5f9"/>
<text x="784.6" y="686" text-anchor="middle" font-family="Helvetica, Arial, sans-serif" font-size="11" fill="#4b5563">7</text>
<line x1="900.0" y1="442" x2="900.0" y2="664" stroke="#f1f5f9"/>
<text x="900.0" y="686" text-anchor="middle" font-family="Helvetica, Arial, sans-serif" font-size="11" fill="#4b5563">8</text>
<line x1="92" y1="664" x2="900" y2="664" stroke="#94a3b8"/>
<line x1="92" y1="442" x2="92" y2="664" stroke="#94a3b8"/>
<polyline points="92.0,539.7 207.4,591.9 322.9,535.6 438.3,600.8 553.7,598.4 669.1,550.6 784.6,594.1 900.0,601.0" fill="none" stroke="#b9413c" stroke-width="2.5"/>
<circle cx="92.0" cy="539.7" r="3.2" fill="#b9413c"/>
<circle cx="207.4" cy="591.9" r="3.2" fill="#b9413c"/>
<circle cx="322.9" cy="535.6" r="3.2" fill="#b9413c"/>
<circle cx="438.3" cy="600.8" r="3.2" fill="#b9413c"/>
<circle cx="553.7" cy="598.4" r="3.2" fill="#b9413c"/>
<circle cx="669.1" cy="550.6" r="3.2" fill="#b9413c"/>
<circle cx="784.6" cy="594.1" r="3.2" fill="#b9413c"/>
<circle cx="900.0" cy="601.0" r="3.2" fill="#b9413c"/>
<polyline points="92.0,509.4 207.4,542.8 322.9,599.2 438.3,550.3 553.7,599.9 669.1,549.9 784.6,592.7 900.0,548.6" fill="none" stroke="#2563eb" stroke-width="2.5"/>
<circle cx="92.0" cy="509.4" r="3.2" fill="#2563eb"/>
<circle cx="207.4" cy="542.8" r="3.2" fill="#2563eb"/>
<circle cx="322.9" cy="599.2" r="3.2" fill="#2563eb"/>
<circle cx="438.3" cy="550.3" r="3.2" fill="#2563eb"/>
<circle cx="553.7" cy="599.9" r="3.2" fill="#2563eb"/>
<circle cx="669.1" cy="549.9" r="3.2" fill="#2563eb"/>
<circle cx="784.6" cy="592.7" r="3.2" fill="#2563eb"/>
<circle cx="900.0" cy="548.6" r="3.2" fill="#2563eb"/>
<text x="24" y="752" font-family="Helvetica, Arial, sans-serif" font-size="16" font-weight="700" fill="#202124">dacapo-lusearch</text>
<line x1="92" y1="990.0" x2="900" y2="990.0" stroke="#e5e7eb"/>
<text x="82" y="994.0" text-anchor="end" font-family="Helvetica, Arial, sans-serif" font-size="11" fill="#4b5563">0</text>
<line x1="92" y1="945.6" x2="900" y2="945.6" stroke="#e5e7eb"/>
<text x="82" y="949.6" text-anchor="end" font-family="Helvetica, Arial, sans-serif" font-size="11" fill="#4b5563">2000</text>
<line x1="92" y1="901.2" x2="900" y2="901.2" stroke="#e5e7eb"/>
<text x="82" y="905.2" text-anchor="end" font-family="Helvetica, Arial, sans-serif" font-size="11" fill="#4b5563">4000</text>
<line x1="92" y1="856.8" x2="900" y2="856.8" stroke="#e5e7eb"/>
<text x="82" y="860.8" text-anchor="end" font-family="Helvetica, Arial, sans-serif" font-size="11" fill="#4b5563">6000</text>
<line x1="92" y1="812.4" x2="900" y2="812.4" stroke="#e5e7eb"/>
<text x="82" y="816.4" text-anchor="end" font-family="Helvetica, Arial, sans-serif" font-size="11" fill="#4b5563">8000</text>
<line x1="92" y1="768.0" x2="900" y2="768.0" stroke="#e5e7eb"/>
<text x="82" y="772.0" text-anchor="end" font-family="Helvetica, Arial, sans-serif" font-size="11" fill="#4b5563">10000</text>
<line x1="92.0" y1="768" x2="92.0" y2="990" stroke="#f1f5f9"/>
<text x="92.0" y="1012" text-anchor="middle" font-family="Helvetica, Arial, sans-serif" font-size="11" fill="#4b5563">1</text>
<line x1="207.4" y1="768" x2="207.4" y2="990" stroke="#f1f5f9"/>
<text x="207.4" y="1012" text-anchor="middle" font-family="Helvetica, Arial, sans-serif" font-size="11" fill="#4b5563">2</text>
<line x1="322.9" y1="768" x2="322.9" y2="990" stroke="#f1f5f9"/>
<text x="322.9" y="1012" text-anchor="middle" font-family="Helvetica, Arial, sans-serif" font-size="11" fill="#4b5563">3</text>
<line x1="438.3" y1="768" x2="438.3" y2="990" stroke="#f1f5f9"/>
<text x="438.3" y="1012" text-anchor="middle" font-family="Helvetica, Arial, sans-serif" font-size="11" fill="#4b5563">4</text>
<line x1="553.7" y1="768" x2="553.7" y2="990" stroke="#f1f5f9"/>
<text x="553.7" y="1012" text-anchor="middle" font-family="Helvetica, Arial, sans-serif" font-size="11" fill="#4b5563">5</text>
<line x1="669.1" y1="768" x2="669.1" y2="990" stroke="#f1f5f9"/>
<text x="669.1" y="1012" text-anchor="middle" font-family="Helvetica, Arial, sans-serif" font-size="11" fill="#4b5563">6</text>
<line x1="784.6" y1="768" x2="784.6" y2="990" stroke="#f1f5f9"/>
<text x="784.6" y="1012" text-anchor="middle" font-family="Helvetica, Arial, sans-serif" font-size="11" fill="#4b5563">7</text>
<line x1="900.0" y1="768" x2="900.0" y2="990" stroke="#f1f5f9"/>
<text x="900.0" y="1012" text-anchor="middle" font-family="Helvetica, Arial, sans-serif" font-size="11" fill="#4b5563">8</text>
<line x1="92" y1="990" x2="900" y2="990" stroke="#94a3b8"/>
<line x1="92" y1="768" x2="92" y2="990" stroke="#94a3b8"/>
<polyline points="92.0,911.9 207.4,926.5 322.9,923.1 438.3,923.6 553.7,877.1 669.1,923.4 784.6,921.4 900.0,924.6" fill="none" stroke="#b9413c" stroke-width="2.5"/>
<circle cx="92.0" cy="911.9" r="3.2" fill="#b9413c"/>
<circle cx="207.4" cy="926.5" r="3.2" fill="#b9413c"/>
<circle cx="322.9" cy="923.1" r="3.2" fill="#b9413c"/>
<circle cx="438.3" cy="923.6" r="3.2" fill="#b9413c"/>
<circle cx="553.7" cy="877.1" r="3.2" fill="#b9413c"/>
<circle cx="669.1" cy="923.4" r="3.2" fill="#b9413c"/>
<circle cx="784.6" cy="921.4" r="3.2" fill="#b9413c"/>
<circle cx="900.0" cy="924.6" r="3.2" fill="#b9413c"/>
<polyline points="92.0,840.6 207.4,864.4 322.9,926.2 438.3,876.4 553.7,924.0 669.1,925.6 784.6,875.1 900.0,925.6" fill="none" stroke="#2563eb" stroke-width="2.5"/>
<circle cx="92.0" cy="840.6" r="3.2" fill="#2563eb"/>
<circle cx="207.4" cy="864.4" r="3.2" fill="#2563eb"/>
<circle cx="322.9" cy="926.2" r="3.2" fill="#2563eb"/>
<circle cx="438.3" cy="876.4" r="3.2" fill="#2563eb"/>
<circle cx="553.7" cy="924.0" r="3.2" fill="#2563eb"/>
<circle cx="669.1" cy="925.6" r="3.2" fill="#2563eb"/>
<circle cx="784.6" cy="875.1" r="3.2" fill="#2563eb"/>
<circle cx="900.0" cy="925.6" r="3.2" fill="#2563eb"/>
<text x="496.0" y="1036" text-anchor="middle" font-family="Helvetica, Arial, sans-serif" font-size="13" font-weight="600" fill="#334155">Invocation number</text>
<line x1="928" y1="124" x2="960" y2="124" stroke="#b9413c" stroke-width="3"/>
<circle cx="944.0" cy="124.0" r="4.0" fill="#b9413c"/>
<text x="972" y="128" font-family="Helvetica, Arial, sans-serif" font-size="12" font-weight="600" fill="#334155">baseline</text>
<line x1="928" y1="152" x2="960" y2="152" stroke="#2f7d59" stroke-width="3"/>
<circle cx="944.0" cy="152.0" r="4.0" fill="#2f7d59"/>
<text x="972" y="156" font-family="Helvetica, Arial, sans-serif" font-size="12" font-weight="600" fill="#334155">redis-cache</text>
<line x1="928" y1="180" x2="960" y2="180" stroke="#2563eb" stroke-width="3"/>
<circle cx="944.0" cy="180.0" r="4.0" fill="#2563eb"/>
<text x="972" y="184" font-family="Helvetica, Arial, sans-serif" font-size="12" font-weight="600" fill="#334155">progressive-cache</text>
</svg>
