<svg xmlns="http://www.w3.org/2000/svg" width="980" height="620" viewBox="0 0 980 620">
<rect width="100%" height="100%" fill="#ffffff"/>
<text x="490.0" y="34" text-anchor="middle" font-family="Helvetica, Arial, sans-serif" font-size="24" font-weight="700" fill="#111827">OpenFaaS JAX/XLA h2 warm starts</text>
<line x1="82" y1="544.0" x2="946" y2="544.0" stroke="#c7c7c7"/>
<text x="70" y="548.0" text-anchor="end" font-family="Helvetica, Arial, sans-serif" font-size="13" fill="#111827">3.6</text>
<line x1="82" y1="465.0" x2="946" y2="465.0" stroke="#c7c7c7"/>
<text x="70" y="469.0" text-anchor="end" font-family="Helvetica, Arial, sans-serif" font-size="13" fill="#111827">5.7</text>
<line x1="82" y1="386.0" x2="946" y2="386.0" stroke="#c7c7c7"/>
<text x="70" y="390.0" text-anchor="end" font-family="Helvetica, Arial, sans-serif" font-size="13" fill="#111827">7.7</text>
<line x1="82" y1="307.0" x2="946" y2="307.0" stroke="#c7c7c7"/>
<text x="70" y="311.0" text-anchor="end" font-family="Helvetica, Arial, sans-serif" font-size="13" fill="#111827">9.8</text>
<line x1="82" y1="228.0" x2="946" y2="228.0" stroke="#c7c7c7"/>
<text x="70" y="232.0" text-anchor="end" font-family="Helvetica, Arial, sans-serif" font-size="13" fill="#111827">11.8</text>
<line x1="82" y1="149.0" x2="946" y2="149.0" stroke="#c7c7c7"/>
<text x="70" y="153.0" text-anchor="end" font-family="Helvetica, Arial, sans-serif" font-size="13" fill="#111827">13.9</text>
<line x1="82" y1="70.0" x2="946" y2="70.0" stroke="#c7c7c7"/>
<text x="70" y="74.0" text-anchor="end" font-family="Helvetica, Arial, sans-serif" font-size="13" fill="#111827">15.9</text>
<line x1="127.5" y1="70" x2="127.5" y2="544" stroke="#d6d6d6"/>
<text x="127.5" y="570" text-anchor="middle" font-family="Helvetica, Arial, sans-serif" font-size="13" fill="#111827">2</text>
<line x1="218.4" y1="70" x2="218.4" y2="544" stroke="#d6d6d6"/>
<text x="218.4" y="570" text-anchor="middle" font-family="Helvetica, Arial, sans-serif" font-size="13" fill="#111827">4</text>
<line x1="309.4" y1="70" x2="309.4" y2="544" stroke="#d6d6d6"/>
<text x="309.4" y="570" text-anchor="middle" font-family="Helvetica, Arial, sans-serif" font-size="13" fill="#111827">6</text>
<line x1="400.3" y1="70" x2="400.3" y2="544" stroke="#d6d6d6"/>
<text x="400.3" y="570" text-anchor="middle" font-family="Helvetica, Arial, sans-serif" font-size="13" fill="#111827">8</text>
<line x1="491.3" y1="70" x2="491.3" y2="544" stroke="#d6d6d6"/>
<text x="491.3" y="570" text-anchor="middle" font-family="Helvetica, Arial, sans-serif" font-size="13" fill="#111827">10</text>
<line x1="582.2" y1="70" x2="582.2" y2="544" stroke="#d6d6d6"/>
<text x="582.2" y="570" text-anchor="middle" font-family="Helvetica, Arial, sans-serif" font-size="13" fill="#111827">12</text>
<line x1="673.2" y1="70" x2="673.2" y2="544" stroke="#d6d6d6"/>
<text x="673.2" y="570" text-anchor="middle" font-family="Helvetica, Arial, sans-serif" font-size="13" fill="#111827">14</text>
<line x1="764.1" y1="70" x2="764.1" y2="544" stroke="#d6d6d6"/>
<text x="764.1" y="570" text-anchor="middle" font-family="Helvetica, Arial, sans-serif" font-size="13" fill="#111827">16</text>
<line x1="855.1" y1="70" x2="855.1" y2="544" stroke="#d6d6d6"/>
<text x="855.1" y="570" text-anchor="middle" font-family="Helvetica, Arial, sans-serif" font-size="13" fill="#111827">18</text>
<line x1="946.0" y1="70" x2="946.0" y2="544" stroke="#d6d6d6"/>
<text x="946.0" y="570" text-anchor="middle" font-family="Helvetica, Arial, sans-serif" font-size="13" fill="#111827">20</text>
<line x1="82" y1="544" x2="946" y2="544" stroke="#111827"/>
<line x1="82" y1="70" x2="82" y2="544" stroke="#111827"/>
<polyline points="127.5,356.1 172.9,431.3 218.4,453.6 263.9,476.4 309.4,464.3 354.8,464.3 400.3,475.8 445.8,478.2 491.3,476.5 536.7,475.9 582.2,453.5 627.7,458.2 673.2,464.9 718.6,476.6 764.1,470.1 809.6,466.2 855.1,481.3 900.5,461.2 946.0,460.6" fill="none" stroke="#1f77b4" stroke-width="2.6"/>
<circle cx="127.5" cy="356.1" r="4.4" fill="#1f77b4"/>
<circle cx="172.9" cy="431.3" r="4.4" fill="#1f77b4"/>
<circle cx="218.4" cy="453.6" r="4.4" fill="#1f77b4"/>
<circle cx="263.9" cy="476.4" r="4.4" fill="#1f77b4"/>
<circle cx="309.4" cy="464.3" r="4.4" fill="#1f77b4"/>
<circle cx="354.8" cy="464.3" r="4.4" fill="#1f77b4"/>
<circle cx="400.3" cy="475.8" r="4.4" fill="#1f77b4"/>
<circle cx="445.8" cy="478.2" r="4.4" fill="#1f77b4"/>
<circle cx="491.3" cy="476.5" r="4.4" fill="#1f77b4"/>
<circle cx="536.7" cy="475.9" r="4.4" fill="#1f77b4"/>
<circle cx="582.2" cy="453.5" r="4.4" fill="#1f77b4"/>
<circle cx="627.7" cy="458.2" r="4.4" fill="#1f77b4"/>
<circle cx="673.2" cy="464.9" r="4.4" fill="#1f77b4"/>
<circle cx="718.6" cy="476.6" r="4.4" fill="#1f77b4"/>
<circle cx="764.1" cy="470.1" r="4.4" fill="#1f77b4"/>
<circle cx="809.6" cy="466.2" r="4.4" fill="#1f77b4"/>
<circle cx="855.1" cy="481.3" r="4.4" fill="#1f77b4"/>
<circle cx="900.5" cy="461.2" r="4.4" fill="#1f77b4"/>
<circle cx="946.0" cy="460.6" r="4.4" fill="#1f77b4"/>
<polyline points="127.5,334.9 172.9,423.0 218.4,279.6 263.9,277.3 309.4,333.4 354.8,132.7 400.3,299.4 445.8,287.1 491.3,335.0 536.7,217.4 582.2,363.5 627.7,298.3 673.2,413.5 718.6,406.3 764.1,419.8 809.6,333.3 855.1,388.9 900.5,395.8 946.0,422.8" fill="none" stroke="#2ca02c" stroke-width="2.6"/>
<circle cx="127.5" cy="334.9" r="4.4" fill="#2ca02c"/>
<circle cx="172.9" cy="423.0" r="4.4" fill="#2ca02c"/>
<circle cx="218.4" cy="279.6" r="4.4" fill="#2ca02c"/>
<circle cx="263.9" cy="277.3" r="4.4" fill="#2ca02c"/>
<circle cx="309.4" cy="333.4" r="4.4" fill="#2ca02c"/>
<circle cx="354.8" cy="132.7" r="4.4" fill="#2ca02c"/>
<circle cx="400.3" cy="299.4" r="4.4" fill="#2ca02c"/>
<circle cx="445.8" cy="287.1" r="4.4" fill="#2ca02c"/>
<circle cx="491.3" cy="335.0" r="4.4" fill="#2ca02c"/>
<circle cx="536.7" cy="217.4" r="4.4" fill="#2ca02c"/>
<circle cx="582.2" cy="363.5" r="4.4" fill="#2ca02c"/>
<circle cx="627.7" cy="298.3" r="4.4" fill="#2ca02c"/>
<circle cx="673.2" cy="413.5" r="4.4" fill="#2ca02c"/>
<circle cx="718.6" cy="406.3" r="4.4" fill="#2ca02c"/>
<circle cx="764.1" cy="419.8" r="4.4" fill="#2ca02c"/>
<circle cx="809.6" cy="333.3" r="4.4" fill="#2ca02c"/>
<circle cx="855.1" cy="388.9" r="4.4" fill="#2ca02c"/>
<circle cx="900.5" cy="395.8" r="4.4" fill="#2ca02c"/>
<circle cx="946.0" cy="422.8" r="4.4" fill="#2ca02c"/>
<line x1="766" y1="78" x2="800" y2="78" stroke="#1f77b4" stroke-width="3"/>
<circle cx="783" cy="78" r="4.4" fill="#1f77b4"/>
<text x="810" y="82" font-family="Helvetica, Arial, sans-serif" font-size="13" fill="#111827">baseline</text>
<line x1="766" y1="106" x2="800" y2="106" stroke="#2ca02c" stroke-width="3"/>
<circle cx="783" cy="106" r="4.4" fill="#2ca02c"/>
<text x="810" y="110" font-family="Helvetica, Arial, sans-serif" font-size="13" fill="#111827">redis-cache</text>
<text x="514.0" y="598" text-anchor="middle" font-family="Helvetica, Arial, sans-serif" font-size="17" fill="#111827">Invocation #</text>
<text x="26" y="307.0" text-anchor="middle" font-family="Helvetica, Arial, sans-serif" font-size="17" fill="#111827" transform="rotate(-90 26 307.0)">Latency (ms)</text>
</svg>
