<svg xmlns="http://www.w3.org/2000/svg" width="1120" height="1084" viewBox="0 0 1120 1084">
<rect width="100%" height="100%" fill="#ffffff"/>
<text x="24" y="36" font-family="Helvetica, Arial, sans-serif" font-size="22" font-weight="700" fill="#202124">HTTP first-request latency vs invocation number</text>
<text x="24" y="60" font-family="Helvetica, Arial, sans-serif" font-size="13" fill="#5f6368">Each point is a fresh OpenFaaS pod. Lower is better.</text>
<text x="24" y="100" font-family="Helvetica, Arial, sans-serif" font-size="16" font-weight="700" fill="#202124">dacapo-eclipse</text>
<line x1="92" y1="338.0" x2="900" y2="338.0" stroke="#e5e7eb"/>
<text x="82" y="342.0" text-anchor="end" font-family="Helvetica, Arial, sans-serif" font-size="11" fill="#4b5563">0</text>
<line x1="92" y1="293.6" x2="900" y2="293.6" stroke="#e5e7eb"/>
<text x="82" y="297.6" text-anchor="end" font-family="Helvetica, Arial, sans-serif" font-size="11" fill="#4b5563">400</text>
<line x1="92" y1="249.2" x2="900" y2="249.2" stroke="#e5e7eb"/>
<text x="82" y="253.2" text-anchor="end" font-family="Helvetica, Arial, sans-serif" font-size="11" fill="#4b5563">800</text>
<line x1="92" y1="204.8" x2="900" y2="204.8" stroke="#e5e7eb"/>
<text x="82" y="208.8" text-anchor="end" font-family="Helvetica, Arial, sans-serif" font-size="11" fill="#4b5563">1200</text>
<line x1="92" y1="160.4" x2="900" y2="160.4" stroke="#e5e7eb"/>
<text x="82" y="164.4" text-anchor="end" font-family="Helvetica, Arial, sans-serif" font-size="11" fill="#4b5563">1600</text>
<line x1="92" y1="116.0" x2="900" y2="116.0" stroke="#e5e7eb"/>
<text x="82" y="120.0" text-anchor="end" font-family="Helvetica, Arial, sans-serif" font-size="11" fill="#4b5563">2000</text>
<line x1="92.0" y1="116" x2="92.0" y2="338" stroke="#f1f5f9"/>
<text x="92.0" y="360" text-anchor="middle" font-family="Helvetica, Arial, sans-serif" font-size="11" fill="#4b5563">1</text>
<line x1="294.0" y1="116" x2="294.0" y2="338" stroke="#f1f5f9"/>
<text x="294.0" y="360" text-anchor="middle" font-family="Helvetica, Arial, sans-serif" font-size="11" fill="#4b5563">2</text>
<line x1="496.0" y1="116" x2="496.0" y2="338" stroke="#f1f5f9"/>
<text x="496.0" y="360" text-anchor="middle" font-family="Helvetica, Arial, sans-serif" font-size="11" fill="#4b5563">3</text>
<line x1="698.0" y1="116" x2="698.0" y2="338" stroke="#f1f5f9"/>
<text x="698.0" y="360" text-anchor="middle" font-family="Helvetica, Arial, sans-serif" font-size="11" fill="#4b5563">4</text>
<line x1="900.0" y1="116" x2="900.0" y2="338" stroke="#f1f5f9"/>
<text x="900.0" y="360" text-anchor="middle" font-family="Helvetica, Arial, sans-serif" font-size="11" fill="#4b5563">5</text>
<line x1="92" y1="338" x2="900" y2="338" stroke="#94a3b8"/>
<line x1="92" y1="116" x2="92" y2="338" stroke="#94a3b8"/>
<polyline points="92.0,269.7 294.0,285.5 496.0,281.0 698.0,280.3 900.0,269.3" fill="none" stroke="#b9413c" stroke-width="2.5"/>
<circle cx="92.0" cy="269.7" r="3.2" fill="#b9413c"/>
<circle cx="294.0" cy="285.5" r="3.2" fill="#b9413c"/>
<circle cx="496.0" cy="281.0" r="3.2" fill="#b9413c"/>
<circle cx="698.0" cy="280.3" r="3.2" fill="#b9413c"/>
<circle cx="900.0" cy="269.3" r="3.2" fill="#b9413c"/>
<polyline points="92.0,266.5 294.0,290.0 496.0,286.7 698.0,301.9 900.0,301.6" fill="none" stroke="#2f7d59" stroke-width="2.5"/>
<circle cx="92.0" cy="266.5" r="3.2" fill="#2f7d59"/>
<circle cx="294.0" cy="290.0" r="3.2" fill="#2f7d59"/>
<circle cx="496.0" cy="286.7" r="3.2" fill="#2f7d59"/>
<circle cx="698.0" cy="301.9" r="3.2" fill="#2f7d59"/>
<circle cx="900.0" cy="301.6" r="3.2" fill="#2f7d59"/>
<text x="24" y="426" font-family="Helvetica, Arial, sans-serif" font-size="16" font-weight="700" fill="#202124">dacapo-h2</text>
<line x1="92" y1="664.0" x2="900" y2="664.0" stroke="#e5e7eb"/>
<text x="82" y="668.0" text-anchor="end" font-family="Helvetica, Arial, sans-serif" font-size="11" fill="#4b5563">0</text>
<line x1="92" y1="619.6" x2="900" y2="619.6" stroke="#e5e7eb"/>
<text x="82" y="623.6" text-anchor="end" font-family="Helvetica, Arial, sans-serif" font-size="11" fill="#4b5563">400</text>
<line x1="92" y1="575.2" x2="900" y2="575.2" stroke="#e5e7eb"/>
<text x="82" y="579.2" text-anchor="end" font-family="Helvetica, Arial, sans-serif" font-size="11" fill="#4b5563">800</text>
<line x1="92" y1="530.8" x2="900" y2="530.8" stroke="#e5e7eb"/>
<text x="82" y="534.8" text-anchor="end" font-family="Helvetica, Arial, sans-serif" font-size="11" fill="#4b5563">1200</text>
<line x1="92" y1="486.4" x2="900" y2="486.4" stroke="#e5e7eb"/>
<text x="82" y="490.4" text-anchor="end" font-family="Helvetica, Arial, sans-serif" font-size="11" fill="#4b5563">1600</text>
<line x1="92" y1="442.0" x2="900" y2="442.0" stroke="#e5e7eb"/>
<text x="82" y="446.0" text-anchor="end" font-family="Helvetica, Arial, sans-serif" font-size="11" fill="#4b5563">2000</text>
<line x1="92.0" y1="442" x2="92.0" y2="664" stroke="#f1f5f9"/>
<text x="92.0" y="686" text-anchor="middle" font-family="Helvetica, Arial, sans-serif" font-size="11" fill="#4b5563">1</text>
<line x1="294.0" y1="442" x2="294.0" y2="664" stroke="#f1f5f9"/>
<text x="294.0" y="686" text-anchor="middle" font-family="Helvetica, Arial, sans-serif" font-size="11" fill="#4b5563">2</text>
<line x1="496.0" y1="442" x2="496.0" y2="664" stroke="#f1f5f9"/>
<text x="496.0" y="686" text-anchor="middle" font-family="Helvetica, Arial, sans-serif" font-size="11" fill="#4b5563">3</text>
<line x1="698.0" y1="442" x2="698.0" y2="664" stroke="#f1f5f9"/>
<text x="698.0" y="686" text-anchor="middle" font-family="Helvetica, Arial, sans-serif" font-size="11" fill="#4b5563">4</text>
<line x1="900.0" y1="442" x2="900.0" y2="664" stroke="#f1f5f9"/>
<text x="900.0" y="686" text-anchor="middle" font-family="Helvetica, Arial, sans-serif" font-size="11" fill="#4b5563">5</text>
<line x1="92" y1="664" x2="900" y2="664" stroke="#94a3b8"/>
<line x1="92" y1="442" x2="92" y2="664" stroke="#94a3b8"/>
<polyline points="92.0,600.1 294.0,611.5 496.0,608.8 698.0,619.0 900.0,612.4" fill="none" stroke="#b9413c" stroke-width="2.5"/>
<circle cx="92.0" cy="600.1" r="3.2" fill="#b9413c"/>
<circle cx="294.0" cy="611.5" r="3.2" fill="#b9413c"/>
<circle cx="496.0" cy="608.8" r="3.2" fill="#b9413c"/>
<circle cx="698.0" cy="619.0" r="3.2" fill="#b9413c"/>
<circle cx="900.0" cy="612.4" r="3.2" fill="#b9413c"/>
<polyline points="92.0,622.2 294.0,605.6 496.0,524.8 698.0,612.2 900.0,620.9" fill="none" stroke="#2f7d59" stroke-width="2.5"/>
<circle cx="92.0" cy="622.2" r="3.2" fill="#2f7d59"/>
<circle cx="294.0" cy="605.6" r="3.2" fill="#2f7d59"/>
<circle cx="496.0" cy="524.8" r="3.2" fill="#2f7d59"/>
<circle cx="698.0" cy="612.2" r="3.2" fill="#2f7d59"/>
<circle cx="900.0" cy="620.9" r="3.2" fill="#2f7d59"/>
<text x="24" y="752" font-family="Helvetica, Arial, sans-serif" font-size="16" font-weight="700" fill="#202124">dacapo-lusearch</text>
<line x1="92" y1="990.0" x2="900" y2="990.0" stroke="#e5e7eb"/>
<text x="82" y="994.0" text-anchor="end" font-family="Helvetica, Arial, sans-serif" font-size="11" fill="#4b5563">0</text>
<line x1="92" y1="945.6" x2="900" y2="945.6" stroke="#e5e7eb"/>
<text x="82" y="949.6" text-anchor="end" font-family="Helvetica, Arial, sans-serif" font-size="11" fill="#4b5563">400</text>
<line x1="92" y1="901.2" x2="900" y2="901.2" stroke="#e5e7eb"/>
<text x="82" y="905.2" text-anchor="end" font-family="Helvetica, Arial, sans-serif" font-size="11" fill="#4b5563">800</text>
<line x1="92" y1="856.8" x2="900" y2="856.8" stroke="#e5e7eb"/>
<text x="82" y="860.8" text-anchor="end" font-family="Helvetica, Arial, sans-serif" font-size="11" fill="#4b5563">1200</text>
<line x1="92" y1="812.4" x2="900" y2="812.4" stroke="#e5e7eb"/>
<text x="82" y="816.4" text-anchor="end" font-family="Helvetica, Arial, sans-serif" font-size="11" fill="#4b5563">1600</text>
<line x1="92" y1="768.0" x2="900" y2="768.0" stroke="#e5e7eb"/>
<text x="82" y="772.0" text-anchor="end" font-family="Helvetica, Arial, sans-serif" font-size="11" fill="#4b5563">2000</text>
<line x1="92.0" y1="768" x2="92.0" y2="990" stroke="#f1f5f9"/>
<text x="92.0" y="1012" text-anchor="middle" font-family="Helvetica, Arial, sans-serif" font-size="11" fill="#4b5563">1</text>
<line x1="294.0" y1="768" x2="294.0" y2="990" stroke="#f1f5f9"/>
<text x="294.0" y="1012" text-anchor="middle" font-family="Helvetica, Arial, sans-serif" font-size="11" fill="#4b5563">2</text>
<line x1="496.0" y1="768" x2="496.0" y2="990" stroke="#f1f5f9"/>
<text x="496.0" y="1012" text-anchor="middle" font-family="Helvetica, Arial, sans-serif" font-size="11" fill="#4b5563">3</text>
<line x1="698.0" y1="768" x2="698.0" y2="990" stroke="#f1f5f9"/>
<text x="698.0" y="1012" text-anchor="middle" font-family="Helvetica, Arial, sans-serif" font-size="11" fill="#4b5563">4</text>
<line x1="900.0" y1="768" x2="900.0" y2="990" stroke="#f1f5f9"/>
<text x="900.0" y="1012" text-anchor="middle" font-family="Helvetica, Arial, sans-serif" font-size="11" fill="#4b5563">5</text>
<line x1="92" y1="990" x2="900" y2="990" stroke="#94a3b8"/>
<line x1="92" y1="768" x2="92" y2="990" stroke="#94a3b8"/>
<polyline points="92.0,930.5 294.0,939.5 496.0,917.9 698.0,939.7 900.0,943.8" fill="none" stroke="#b9413c" stroke-width="2.5"/>
<circle cx="92.0" cy="930.5" r="3.2" fill="#b9413c"/>
<circle cx="294.0" cy="939.5" r="3.2" fill="#b9413c"/>
<circle cx="496.0" cy="917.9" r="3.2" fill="#b9413c"/>
<circle cx="698.0" cy="939.7" r="3.2" fill="#b9413c"/>
<circle cx="900.0" cy="943.8" r="3.2" fill="#b9413c"/>
<polyline points="92.0,929.0 294.0,950.8 496.0,952.4 698.0,944.0 900.0,957.9" fill="none" stroke="#2f7d59" stroke-width="2.5"/>
<circle cx="92.0" cy="929.0" r="3.2" fill="#2f7d59"/>
<circle cx="294.0" cy="950.8" r="3.2" fill="#2f7d59"/>
<circle cx="496.0" cy="952.4" r="3.2" fill="#2f7d59"/>
<circle cx="698.0" cy="944.0" r="3.2" fill="#2f7d59"/>
<circle cx="900.0" cy="957.9" r="3.2" fill="#2f7d59"/>
<text x="496.0" y="1036" text-anchor="middle" font-family="Helvetica, Arial, sans-serif" font-size="13" font-weight="600" fill="#334155">Invocation number</text>
<line x1="928" y1="124" x2="960" y2="124" stroke="#b9413c" stroke-width="3"/>
<circle cx="944.0" cy="124.0" r="4.0" fill="#b9413c"/>
<text x="972" y="128" font-family="Helvetica, Arial, sans-serif" font-size="12" font-weight="600" fill="#334155">baseline</text>
<line x1="928" y1="152" x2="960" y2="152" stroke="#2f7d59" stroke-width="3"/>
<circle cx="944.0" cy="152.0" r="4.0" fill="#2f7d59"/>
<text x="972" y="156" font-family="Helvetica, Arial, sans-serif" font-size="12" font-weight="600" fill="#334155">redis-cache</text>
</svg>
