<svg xmlns="http://www.w3.org/2000/svg" width="1120" height="680" viewBox="0 0 1120 680">
<rect width="100%" height="100%" fill="#ffffff"/>
<text x="560.0" y="36" text-anchor="middle" font-family="Georgia, Times New Roman, serif" font-size="28" font-weight="700" fill="#111827">OpenFaaS JAX/XLA h2: saved warm state vs none</text>
<text x="560.0" y="62" text-anchor="middle" font-family="Helvetica, Arial, sans-serif" font-size="13" fill="#374151">Log scale; each line compares against not saving warm state across fresh-pod/warm/hot requests</text>
<rect x="118.0" y="96" width="20.0" height="44" fill="#5b84d7" opacity="0.85"/>
<rect x="138.0" y="96" width="330.7" height="44" fill="#f4d7ad" opacity="0.9"/>
<rect x="468.7" y="96" width="601.3" height="44" fill="#df7774" opacity="0.9"/>
<text x="303.4" y="126" text-anchor="middle" font-family="Helvetica, Arial, sans-serif" font-size="26" font-weight="700" fill="#111827">Warm</text>
<text x="769.4" y="126" text-anchor="middle" font-family="Helvetica, Arial, sans-serif" font-size="26" font-weight="700" fill="#111827">Hot</text>
<line x1="118" y1="588.0" x2="1070" y2="588.0" stroke="#cbd5e1"/>
<text x="104" y="593.0" text-anchor="end" font-family="Helvetica, Arial, sans-serif" font-size="18" fill="#111827">10<tspan baseline-shift="super" font-size="12">0</tspan></text>
<line x1="118" y1="538.6" x2="1070" y2="538.6" stroke="#e5e7eb"/>
<line x1="118" y1="473.4" x2="1070" y2="473.4" stroke="#e5e7eb"/>
<line x1="118" y1="424.0" x2="1070" y2="424.0" stroke="#cbd5e1"/>
<text x="104" y="429.0" text-anchor="end" font-family="Helvetica, Arial, sans-serif" font-size="18" fill="#111827">10<tspan baseline-shift="super" font-size="12">1</tspan></text>
<line x1="118" y1="374.6" x2="1070" y2="374.6" stroke="#e5e7eb"/>
<line x1="118" y1="309.4" x2="1070" y2="309.4" stroke="#e5e7eb"/>
<line x1="118" y1="260.0" x2="1070" y2="260.0" stroke="#cbd5e1"/>
<text x="104" y="265.0" text-anchor="end" font-family="Helvetica, Arial, sans-serif" font-size="18" fill="#111827">10<tspan baseline-shift="super" font-size="12">2</tspan></text>
<line x1="118" y1="210.6" x2="1070" y2="210.6" stroke="#e5e7eb"/>
<line x1="118" y1="145.4" x2="1070" y2="145.4" stroke="#e5e7eb"/>
<line x1="118" y1="96.0" x2="1070" y2="96.0" stroke="#cbd5e1"/>
<text x="104" y="101.0" text-anchor="end" font-family="Helvetica, Arial, sans-serif" font-size="18" fill="#111827">10<tspan baseline-shift="super" font-size="12">3</tspan></text>
<line x1="138.0" y1="96" x2="138.0" y2="588" stroke="#f4c08a" stroke-dasharray="7 7" stroke-width="2.0" opacity="0.95"/>
<line x1="468.7" y1="96" x2="468.7" y2="588" stroke="#df7774" stroke-dasharray="7 7" stroke-width="2.0" opacity="0.95"/>
<line x1="118.0" y1="588" x2="118.0" y2="595" stroke="#111827"/>
<text x="118.0" y="619" text-anchor="middle" font-family="Helvetica, Arial, sans-serif" font-size="16" fill="#111827">1</text>
<line x1="318.4" y1="588" x2="318.4" y2="595" stroke="#111827"/>
<text x="318.4" y="619" text-anchor="middle" font-family="Helvetica, Arial, sans-serif" font-size="16" fill="#111827">5</text>
<line x1="568.9" y1="588" x2="568.9" y2="595" stroke="#111827"/>
<text x="568.9" y="619" text-anchor="middle" font-family="Helvetica, Arial, sans-serif" font-size="16" fill="#111827">10</text>
<line x1="819.5" y1="588" x2="819.5" y2="595" stroke="#111827"/>
<text x="819.5" y="619" text-anchor="middle" font-family="Helvetica, Arial, sans-serif" font-size="16" fill="#111827">15</text>
<line x1="1070.0" y1="588" x2="1070.0" y2="595" stroke="#111827"/>
<text x="1070.0" y="619" text-anchor="middle" font-family="Helvetica, Arial, sans-serif" font-size="16" fill="#111827">20</text>
<line x1="118" y1="588" x2="1070" y2="588" stroke="#111827"/>
<line x1="118" y1="96" x2="118" y2="588" stroke="#111827"/>
<polyline points="118.0,129.9 168.1,435.4 218.2,454.0 268.3,460.5 318.4,468.0 368.5,463.9 418.6,463.9 468.7,467.8 518.8,468.6 568.9,468.0 619.1,467.8 669.2,460.5 719.3,462.0 769.4,464.1 819.5,468.0 869.6,465.8 919.7,464.5 969.8,469.6 1019.9,462.9 1070.0,462.7" fill="none" stroke="#1d4ed8" stroke-width="2.8"/>
<circle cx="118.0" cy="129.9" r="4.0" fill="#1d4ed8"/>
<circle cx="168.1" cy="435.4" r="4.0" fill="#1d4ed8"/>
<circle cx="218.2" cy="454.0" r="4.0" fill="#1d4ed8"/>
<circle cx="268.3" cy="460.5" r="4.0" fill="#1d4ed8"/>
<circle cx="318.4" cy="468.0" r="4.0" fill="#1d4ed8"/>
<circle cx="368.5" cy="463.9" r="4.0" fill="#1d4ed8"/>
<circle cx="418.6" cy="463.9" r="4.0" fill="#1d4ed8"/>
<circle cx="468.7" cy="467.8" r="4.0" fill="#1d4ed8"/>
<circle cx="518.8" cy="468.6" r="4.0" fill="#1d4ed8"/>
<circle cx="568.9" cy="468.0" r="4.0" fill="#1d4ed8"/>
<circle cx="619.1" cy="467.8" r="4.0" fill="#1d4ed8"/>
<circle cx="669.2" cy="460.5" r="4.0" fill="#1d4ed8"/>
<circle cx="719.3" cy="462.0" r="4.0" fill="#1d4ed8"/>
<circle cx="769.4" cy="464.1" r="4.0" fill="#1d4ed8"/>
<circle cx="819.5" cy="468.0" r="4.0" fill="#1d4ed8"/>
<circle cx="869.6" cy="465.8" r="4.0" fill="#1d4ed8"/>
<circle cx="919.7" cy="464.5" r="4.0" fill="#1d4ed8"/>
<circle cx="969.8" cy="469.6" r="4.0" fill="#1d4ed8"/>
<circle cx="1019.9" cy="462.9" r="4.0" fill="#1d4ed8"/>
<circle cx="1070.0" cy="462.7" r="4.0" fill="#1d4ed8"/>
<polyline points="118.0,142.8 168.1,431.0 218.2,451.7 268.3,420.5 318.4,420.1 368.5,430.7 418.6,398.5 468.7,424.1 518.8,421.9 568.9,431.0 619.1,410.4 669.2,437.1 719.3,423.9 769.4,449.1 819.5,447.3 869.6,450.8 919.7,430.7 969.8,442.9 1019.9,444.6 1070.0,451.6" fill="none" stroke="#16a34a" stroke-width="2.8"/>
<circle cx="118.0" cy="142.8" r="4.0" fill="#16a34a"/>
<circle cx="168.1" cy="431.0" r="4.0" fill="#16a34a"/>
<circle cx="218.2" cy="451.7" r="4.0" fill="#16a34a"/>
<circle cx="268.3" cy="420.5" r="4.0" fill="#16a34a"/>
<circle cx="318.4" cy="420.1" r="4.0" fill="#16a34a"/>
<circle cx="368.5" cy="430.7" r="4.0" fill="#16a34a"/>
<circle cx="418.6" cy="398.5" r="4.0" fill="#16a34a"/>
<circle cx="468.7" cy="424.1" r="4.0" fill="#16a34a"/>
<circle cx="518.8" cy="421.9" r="4.0" fill="#16a34a"/>
<circle cx="568.9" cy="431.0" r="4.0" fill="#16a34a"/>
<circle cx="619.1" cy="410.4" r="4.0" fill="#16a34a"/>
<circle cx="669.2" cy="437.1" r="4.0" fill="#16a34a"/>
<circle cx="719.3" cy="423.9" r="4.0" fill="#16a34a"/>
<circle cx="769.4" cy="449.1" r="4.0" fill="#16a34a"/>
<circle cx="819.5" cy="447.3" r="4.0" fill="#16a34a"/>
<circle cx="869.6" cy="450.8" r="4.0" fill="#16a34a"/>
<circle cx="919.7" cy="430.7" r="4.0" fill="#16a34a"/>
<circle cx="969.8" cy="442.9" r="4.0" fill="#16a34a"/>
<circle cx="1019.9" cy="444.6" r="4.0" fill="#16a34a"/>
<circle cx="1070.0" cy="451.6" r="4.0" fill="#16a34a"/>
<line x1="118" y1="465.8" x2="990.0" y2="465.8" stroke="#7e22ce" stroke-dasharray="7 5" stroke-width="2"/>
<line x1="118" y1="437.1" x2="990.0" y2="437.1" stroke="#7e22ce" stroke-dasharray="7 5" stroke-width="2"/>
<line x1="990.0" y1="465.8" x2="990.0" y2="437.1" stroke="#111827" stroke-width="2.4"/>
<path d="M 983.0 474.8 L 990.0 465.8 L 997.0 474.8" fill="none" stroke="#111827" stroke-width="2.4"/>
<path d="M 983.0 428.1 L 990.0 437.1 L 997.0 428.1" fill="none" stroke="#111827" stroke-width="2.4"/>
<text x="1006.0" y="456.5" font-family="Helvetica, Arial, sans-serif" font-size="18" font-weight="700" fill="#111827">0.67x</text>
<text x="118" y="654" font-family="Helvetica, Arial, sans-serif" font-size="13" fill="#111827">Hot median: No saved warm state 5.6 ms, Saved XLA warm state 8.3 ms; saved-state line below no-save baseline on 0/13 hot requests.</text>
<rect x="136.0" y="164.8" width="80" height="30" rx="3" fill="#5b84d7" opacity="0.9"/>
<text x="176.0" y="186.8" text-anchor="middle" font-family="Helvetica, Arial, sans-serif" font-size="22" font-weight="700" fill="#111827">Cold</text>
<line x1="216.0" y1="164.8" x2="112.0" y2="146.8" stroke="#111827" stroke-width="2.2"/>
<line x1="468.7" y1="142.8" x2="468.7" y2="437.1" stroke="#111827" stroke-width="2.2"/>
<path d="M 461.7 151.8 L 468.7 142.8 L 475.7 151.8" fill="none" stroke="#111827" stroke-width="2.2"/>
<path d="M 461.7 428.1 L 468.7 437.1 L 475.7 428.1" fill="none" stroke="#111827" stroke-width="2.2"/>
<text x="482.7" y="295.0" font-family="Helvetica, Arial, sans-serif" font-size="18" font-weight="700" fill="#111827">62.2x</text>
<line x1="820" y1="518" x2="852" y2="518" stroke="#1d4ed8" stroke-width="3"/>
<circle cx="836" cy="518" r="4" fill="#1d4ed8"/>
<text x="862" y="522" font-family="Helvetica, Arial, sans-serif" font-size="13" fill="#111827">No saved warm state</text>
<line x1="820" y1="544" x2="852" y2="544" stroke="#16a34a" stroke-width="3"/>
<circle cx="836" cy="544" r="4" fill="#16a34a"/>
<text x="862" y="548" font-family="Helvetica, Arial, sans-serif" font-size="13" fill="#111827">Saved XLA warm state</text>
<text x="594.0" y="632" text-anchor="middle" font-family="Helvetica, Arial, sans-serif" font-size="24" fill="#111827">Request Number</text>
<text x="42" y="342.0" text-anchor="middle" font-family="Helvetica, Arial, sans-serif" font-size="24" fill="#111827" transform="rotate(-90 42 342.0)">Latency (ms)</text>
</svg>
