<svg xmlns="http://www.w3.org/2000/svg" width="860" height="430" viewBox="0 0 860 430">
  <rect width="100%" height="100%" fill="#ffffff" />
  <text x="82" y="29" font-family="Arial, sans-serif" font-size="20" font-weight="700" fill="#111827">JVM DaCapo on OpenFaaS p50/p95</text>
  <text x="82" y="48" font-family="Arial, sans-serif" font-size="12" fill="#475569">Gateway request latency in milliseconds.</text>
  <g font-family="Arial, sans-serif">
    <line x1="82" y1="354.0" x2="822" y2="354.0" stroke="#e5e7eb" /><text x="72" y="358.0" text-anchor="end" font-size="12" fill="#475569">0</text><line x1="82" y1="294.0" x2="822" y2="294.0" stroke="#e5e7eb" /><text x="72" y="298.0" text-anchor="end" font-size="12" fill="#475569">2140</text><line x1="82" y1="234.0" x2="822" y2="234.0" stroke="#e5e7eb" /><text x="72" y="238.0" text-anchor="end" font-size="12" fill="#475569">4280</text><line x1="82" y1="174.0" x2="822" y2="174.0" stroke="#e5e7eb" /><text x="72" y="178.0" text-anchor="end" font-size="12" fill="#475569">6420</text><line x1="82" y1="114.0" x2="822" y2="114.0" stroke="#e5e7eb" /><text x="72" y="118.0" text-anchor="end" font-size="12" fill="#475569">8560</text><line x1="82" y1="54.0" x2="822" y2="54.0" stroke="#e5e7eb" /><text x="72" y="58.0" text-anchor="end" font-size="12" fill="#475569">10700</text>
    <line x1="82" y1="354" x2="822" y2="354" stroke="#94a3b8" />
    <line x1="82" y1="54" x2="82" y2="354" stroke="#94a3b8" />
    <rect x="148.6" y="70.5" width="42.0" height="283.5" fill="#2563eb" /><text x="169.6" y="63.5" text-anchor="middle" font-size="12" fill="#334155">10113</text><rect x="202.6" y="55.0" width="42.0" height="299.0" fill="#dc8618" /><text x="223.6" y="48.0" text-anchor="middle" font-size="12" fill="#334155">10665</text><text x="194.6" y="387" text-anchor="middle" font-size="12" fill="#334155">lusearch-default</text><rect x="518.6" y="295.4" width="42.0" height="58.6" fill="#2563eb" /><text x="539.6" y="288.4" text-anchor="middle" font-size="12" fill="#334155">2090</text><rect x="572.6" y="294.7" width="42.0" height="59.3" fill="#dc8618" /><text x="593.6" y="287.7" text-anchor="middle" font-size="12" fill="#334155">2113</text><text x="564.6" y="387" text-anchor="middle" font-size="12" fill="#334155">lusearch-small</text>
    <rect x="676" y="23" width="12" height="12" fill="#2563eb" />
    <text x="694" y="34" font-size="12" fill="#334155">p50</text>
    <rect x="738" y="23" width="12" height="12" fill="#dc8618" />
    <text x="756" y="34" font-size="12" fill="#334155">p95</text>
    <text x="18" y="204.0" text-anchor="middle" font-size="13" fill="#334155" transform="rotate(-90 18 204.0)">Latency (ms)</text>
  </g>
</svg>
