<svg xmlns="http://www.w3.org/2000/svg" width="1180" height="560" viewBox="0 0 1180 560">
  <rect width="100%" height="100%" fill="#ffffff" />
  <text x="76" y="26" font-family="Arial, sans-serif" font-size="19" font-weight="700" fill="#111827">Latency percentile comparison</text>
  <text x="76" y="46" font-family="Arial, sans-serif" font-size="12" fill="#4b5563">p50 and p95 across the Java/OpenFaaS JVM HTTP run and non-JVM profile-cache prototypes.</text>
  <g font-family="Arial, sans-serif">
    <line x1="76" y1="420.0" x2="1156" y2="420.0" stroke="#e5e7eb" /><text x="66" y="424.0" text-anchor="end" font-size="12" fill="#4b5563">0</text><line x1="76" y1="347.6" x2="1156" y2="347.6" stroke="#e5e7eb" /><text x="66" y="351.6" text-anchor="end" font-size="12" fill="#4b5563">66</text><line x1="76" y1="275.2" x2="1156" y2="275.2" stroke="#e5e7eb" /><text x="66" y="279.2" text-anchor="end" font-size="12" fill="#4b5563">132</text><line x1="76" y1="202.8" x2="1156" y2="202.8" stroke="#e5e7eb" /><text x="66" y="206.8" text-anchor="end" font-size="12" fill="#4b5563">198</text><line x1="76" y1="130.4" x2="1156" y2="130.4" stroke="#e5e7eb" /><text x="66" y="134.4" text-anchor="end" font-size="12" fill="#4b5563">264</text><line x1="76" y1="58.0" x2="1156" y2="58.0" stroke="#e5e7eb" /><text x="66" y="62.0" text-anchor="end" font-size="12" fill="#4b5563">330</text>
    <line x1="76" y1="420" x2="1156" y2="420" stroke="#9ca3af" />
    <line x1="76" y1="58" x2="76" y2="420" stroke="#9ca3af" />
    <rect x="99.4" y="376.7" width="33.6" height="43.3" fill="#2563eb" rx="2" /><text x="116.2" y="371.7" text-anchor="middle" font-size="10" fill="#2563eb">39.5</text><rect x="139.0" y="362.1" width="33.6" height="57.9" fill="#dc2626" rx="2" /><text x="155.8" y="357.1" text-anchor="middle" font-size="10" fill="#dc2626">52.7</text><text x="136.0" y="462" text-anchor="end" font-size="11" fill="#111827" transform="rotate(-32 136.0 462)">Java/OpenFaaS George JVM</text><rect x="219.4" y="389.2" width="33.6" height="30.8" fill="#2563eb" rx="2" /><text x="236.2" y="384.2" text-anchor="middle" font-size="10" fill="#2563eb">28.1</text><rect x="259.0" y="380.0" width="33.6" height="40.0" fill="#dc2626" rx="2" /><text x="275.8" y="375.0" text-anchor="middle" font-size="10" fill="#dc2626">36.4</text><text x="256.0" y="462" text-anchor="end" font-size="11" fill="#111827" transform="rotate(-32 256.0 462)">Go baseline hot</text><rect x="339.4" y="394.9" width="33.6" height="25.1" fill="#2563eb" rx="2" /><text x="356.2" y="389.9" text-anchor="middle" font-size="10" fill="#2563eb">22.9</text><rect x="379.0" y="381.7" width="33.6" height="38.3" fill="#dc2626" rx="2" /><text x="395.8" y="376.7" text-anchor="middle" font-size="10" fill="#dc2626">34.9</text><text x="376.0" y="462" text-anchor="end" font-size="11" fill="#111827" transform="rotate(-32 376.0 462)">Go PGO hot</text><rect x="459.4" y="377.5" width="33.6" height="42.5" fill="#2563eb" rx="2" /><text x="476.2" y="372.5" text-anchor="middle" font-size="10" fill="#2563eb">38.8</text><rect x="499.0" y="357.1" width="33.6" height="62.9" fill="#dc2626" rx="2" /><text x="515.8" y="352.1" text-anchor="middle" font-size="10" fill="#dc2626">57.3</text><text x="496.0" y="462" text-anchor="end" font-size="11" fill="#111827" transform="rotate(-32 496.0 462)">.NET IL hot</text><rect x="579.4" y="363.7" width="33.6" height="56.3" fill="#2563eb" rx="2" /><text x="596.2" y="358.7" text-anchor="middle" font-size="10" fill="#2563eb">51.3</text><rect x="619.0" y="300.3" width="33.6" height="119.7" fill="#dc2626" rx="2" /><text x="635.8" y="295.3" text-anchor="middle" font-size="10" fill="#dc2626">109.1</text><text x="616.0" y="462" text-anchor="end" font-size="11" fill="#111827" transform="rotate(-32 616.0 462)">.NET ReadyToRun hot</text><rect x="699.4" y="384.6" width="33.6" height="35.4" fill="#2563eb" rx="2" /><text x="716.2" y="379.6" text-anchor="middle" font-size="10" fill="#2563eb">32.3</text><rect x="739.0" y="301.2" width="33.6" height="118.8" fill="#dc2626" rx="2" /><text x="755.8" y="296.2" text-anchor="middle" font-size="10" fill="#dc2626">108.3</text><text x="736.0" y="462" text-anchor="end" font-size="11" fill="#111827" transform="rotate(-32 736.0 462)">Go baseline mixed</text><rect x="819.4" y="368.3" width="33.6" height="51.7" fill="#2563eb" rx="2" /><text x="836.2" y="363.3" text-anchor="middle" font-size="10" fill="#2563eb">47.1</text><rect x="859.0" y="355.0" width="33.6" height="65.0" fill="#dc2626" rx="2" /><text x="875.8" y="350.0" text-anchor="middle" font-size="10" fill="#dc2626">59.2</text><text x="856.0" y="462" text-anchor="end" font-size="11" fill="#111827" transform="rotate(-32 856.0 462)">Go PGO mixed</text><rect x="939.4" y="266.8" width="33.6" height="153.2" fill="#2563eb" rx="2" /><text x="956.2" y="261.8" text-anchor="middle" font-size="10" fill="#2563eb">139.7</text><rect x="979.0" y="62.6" width="33.6" height="357.4" fill="#dc2626" rx="2" /><text x="995.8" y="57.6" text-anchor="middle" font-size="10" fill="#dc2626">325.8</text><text x="976.0" y="462" text-anchor="end" font-size="11" fill="#111827" transform="rotate(-32 976.0 462)">.NET IL mixed</text><rect x="1059.4" y="294.6" width="33.6" height="125.4" fill="#2563eb" rx="2" /><text x="1076.2" y="289.6" text-anchor="middle" font-size="10" fill="#2563eb">114.3</text><rect x="1099.0" y="169.2" width="33.6" height="250.8" fill="#dc2626" rx="2" /><text x="1115.8" y="164.2" text-anchor="middle" font-size="10" fill="#dc2626">228.6</text><text x="1096.0" y="462" text-anchor="end" font-size="11" fill="#111827" transform="rotate(-32 1096.0 462)">.NET ReadyToRun mixed</text>
    <rect x="990" y="18" width="12" height="12" fill="#2563eb" /><text x="1008" y="29" font-size="12" fill="#111827">p50</text>
    <rect x="1050" y="18" width="12" height="12" fill="#dc2626" /><text x="1068" y="29" font-size="12" fill="#111827">p95</text>
    <text x="20" y="239.0" text-anchor="middle" font-size="13" fill="#374151" transform="rotate(-90 20 239.0)">Latency (ms)</text>
  </g>
</svg>
