<svg xmlns="http://www.w3.org/2000/svg" width="1040" height="460" viewBox="0 0 1040 460">
  <rect width="100%" height="100%" fill="#ffffff" />
  <text x="74" y="29" font-family="Arial, sans-serif" font-size="20" font-weight="700" fill="#111827">JVM DaCapo on OpenFaaS latency</text>
  <text x="74" y="48" font-family="Arial, sans-serif" font-size="12" fill="#475569">Gateway request latency through OpenFaaS; lower is better.</text>
  <g font-family="Arial, sans-serif">
    <line x1="74" y1="382.0" x2="1008" y2="382.0" stroke="#e5e7eb" /><text x="64" y="386.0" text-anchor="end" font-size="12" fill="#475569">0</text><line x1="74" y1="317.2" x2="1008" y2="317.2" stroke="#e5e7eb" /><text x="64" y="321.2" text-anchor="end" font-size="12" fill="#475569">2160</text><line x1="74" y1="252.4" x2="1008" y2="252.4" stroke="#e5e7eb" /><text x="64" y="256.4" text-anchor="end" font-size="12" fill="#475569">4320</text><line x1="74" y1="187.6" x2="1008" y2="187.6" stroke="#e5e7eb" /><text x="64" y="191.6" text-anchor="end" font-size="12" fill="#475569">6480</text><line x1="74" y1="122.8" x2="1008" y2="122.8" stroke="#e5e7eb" /><text x="64" y="126.8" text-anchor="end" font-size="12" fill="#475569">8640</text><line x1="74" y1="58.0" x2="1008" y2="58.0" stroke="#e5e7eb" /><text x="64" y="62.0" text-anchor="end" font-size="12" fill="#475569">10800</text>
    <line x1="74" y1="382" x2="1008" y2="382" stroke="#94a3b8" />
    <line x1="74" y1="58" x2="74" y2="382" stroke="#94a3b8" />
    <polyline points="74.0,75.0 177.8,89.2 281.6,86.9 385.3,78.6 489.1,58.8" fill="none" stroke="#2563eb" stroke-width="2.4" opacity="0.86" /><polyline points="74.0,319.5 177.8,319.1 281.6,319.1 385.3,319.1 489.1,319.5 592.9,319.0 696.7,320.6 800.4,318.3 904.2,319.7 1008.0,320.4" fill="none" stroke="#0f766e" stroke-width="2.4" opacity="0.86" />
    <text x="541.0" y="442" text-anchor="middle" font-size="13" fill="#334155">HTTP invocation number</text>
    <text x="18" y="220.0" text-anchor="middle" font-size="13" fill="#334155" transform="rotate(-90 18 220.0)">Latency (ms)</text>
    <rect x="74" y="401" width="13" height="13" fill="#2563eb" /><text x="92" y="412" font-size="12" fill="#334155">lusearch-default p50=10112.6ms p95=10664.6ms</text><rect x="389" y="401" width="13" height="13" fill="#0f766e" /><text x="407" y="412" font-size="12" fill="#334155">lusearch-small p50=2089.9ms p95=2113.3ms</text>
  </g>
</svg>
