<svg xmlns="http://www.w3.org/2000/svg" width="1100" height="560" viewBox="0 0 1100 560">
  <rect width="100%" height="100%" fill="#ffffff" />
  <text x="76" y="26" font-family="Arial, sans-serif" font-size="19" font-weight="700" fill="#111827">Invocation latency curves: JVM HTTP vs non-JVM profile-cache prototypes</text>
  <text x="76" y="46" font-family="Arial, sans-serif" font-size="12" fill="#4b5563">Java is the OpenFaaS/George JVM HTTP CSV; Go and .NET are local prototype handler loops after profile/AOT artifact import.</text>
  <g font-family="Arial, sans-serif">
    <line x1="76" y1="492.0" x2="840" y2="492.0" stroke="#e5e7eb" /><text x="66" y="496.0" text-anchor="end" font-size="12" fill="#4b5563">0</text><line x1="76" y1="405.2" x2="840" y2="405.2" stroke="#e5e7eb" /><text x="66" y="409.2" text-anchor="end" font-size="12" fill="#4b5563">22</text><line x1="76" y1="318.4" x2="840" y2="318.4" stroke="#e5e7eb" /><text x="66" y="322.4" text-anchor="end" font-size="12" fill="#4b5563">44</text><line x1="76" y1="231.6" x2="840" y2="231.6" stroke="#e5e7eb" /><text x="66" y="235.6" text-anchor="end" font-size="12" fill="#4b5563">66</text><line x1="76" y1="144.8" x2="840" y2="144.8" stroke="#e5e7eb" /><text x="66" y="148.8" text-anchor="end" font-size="12" fill="#4b5563">88</text><line x1="76" y1="58.0" x2="840" y2="58.0" stroke="#e5e7eb" /><text x="66" y="62.0" text-anchor="end" font-size="12" fill="#4b5563">110</text>
    <line x1="76" y1="492" x2="840" y2="492" stroke="#9ca3af" />
    <line x1="76" y1="58" x2="76" y2="492" stroke="#9ca3af" />
    <polyline points="76.0,303.4 130.6,283.9 185.1,329.1 239.7,334.2 294.3,346.1 348.9,334.6 403.4,356.3 458.0,339.8 512.6,329.2 567.1,349.7 621.7,352.6 676.3,336.2 730.9,353.6 785.4,328.7 840.0,361.6" fill="none" stroke="#2563eb" stroke-width="2.4" /><circle cx="76.0" cy="303.4" r="3" fill="#2563eb" /><circle cx="130.6" cy="283.9" r="3" fill="#2563eb" /><circle cx="185.1" cy="329.1" r="3" fill="#2563eb" /><circle cx="239.7" cy="334.2" r="3" fill="#2563eb" /><circle cx="294.3" cy="346.1" r="3" fill="#2563eb" /><circle cx="348.9" cy="334.6" r="3" fill="#2563eb" /><circle cx="403.4" cy="356.3" r="3" fill="#2563eb" /><circle cx="458.0" cy="339.8" r="3" fill="#2563eb" /><circle cx="512.6" cy="329.2" r="3" fill="#2563eb" /><circle cx="567.1" cy="349.7" r="3" fill="#2563eb" /><circle cx="621.7" cy="352.6" r="3" fill="#2563eb" /><circle cx="676.3" cy="336.2" r="3" fill="#2563eb" /><circle cx="730.9" cy="353.6" r="3" fill="#2563eb" /><circle cx="785.4" cy="328.7" r="3" fill="#2563eb" /><circle cx="840.0" cy="361.6" r="3" fill="#2563eb" /><polyline points="76.0,379.4 130.6,348.3 185.1,404.2 239.7,411.1 294.3,381.2 348.9,410.5" fill="none" stroke="#059669" stroke-width="2.4" /><circle cx="76.0" cy="379.4" r="3" fill="#059669" /><circle cx="130.6" cy="348.3" r="3" fill="#059669" /><circle cx="185.1" cy="404.2" r="3" fill="#059669" /><circle cx="239.7" cy="411.1" r="3" fill="#059669" /><circle cx="294.3" cy="381.2" r="3" fill="#059669" /><circle cx="348.9" cy="410.5" r="3" fill="#059669" /><polyline points="76.0,393.4 130.6,409.1 185.1,405.1 239.7,354.2 294.3,401.7 348.9,425.6" fill="none" stroke="#d97706" stroke-width="2.4" /><circle cx="76.0" cy="393.4" r="3" fill="#d97706" /><circle cx="130.6" cy="409.1" r="3" fill="#d97706" /><circle cx="185.1" cy="405.1" r="3" fill="#d97706" /><circle cx="239.7" cy="354.2" r="3" fill="#d97706" /><circle cx="294.3" cy="401.7" r="3" fill="#d97706" /><circle cx="348.9" cy="425.6" r="3" fill="#d97706" /><polyline points="76.0,364.7 130.6,353.8 185.1,351.8 239.7,339.1 294.3,320.9 348.9,265.9" fill="none" stroke="#7c3aed" stroke-width="2.4" /><circle cx="76.0" cy="364.7" r="3" fill="#7c3aed" /><circle cx="130.6" cy="353.8" r="3" fill="#7c3aed" /><circle cx="185.1" cy="351.8" r="3" fill="#7c3aed" /><circle cx="239.7" cy="339.1" r="3" fill="#7c3aed" /><circle cx="294.3" cy="320.9" r="3" fill="#7c3aed" /><circle cx="348.9" cy="265.9" r="3" fill="#7c3aed" /><polyline points="76.0,395.6 130.6,383.5 185.1,318.1 239.7,289.4 294.3,274.4 348.9,61.6" fill="none" stroke="#dc2626" stroke-width="2.4" /><circle cx="76.0" cy="395.6" r="3" fill="#dc2626" /><circle cx="130.6" cy="383.5" r="3" fill="#dc2626" /><circle cx="185.1" cy="318.1" r="3" fill="#dc2626" /><circle cx="239.7" cy="289.4" r="3" fill="#dc2626" /><circle cx="294.3" cy="274.4" r="3" fill="#dc2626" /><circle cx="348.9" cy="61.6" r="3" fill="#dc2626" />
    <line x1="868" y1="58" x2="892" y2="58" stroke="#2563eb" stroke-width="3" /><text x="900" y="62" font-size="12" fill="#111827">Java/OpenFaaS George JVM</text><line x1="868" y1="80" x2="892" y2="80" stroke="#059669" stroke-width="3" /><text x="900" y="84" font-size="12" fill="#111827">Go baseline hot</text><line x1="868" y1="102" x2="892" y2="102" stroke="#d97706" stroke-width="3" /><text x="900" y="106" font-size="12" fill="#111827">Go PGO hot</text><line x1="868" y1="124" x2="892" y2="124" stroke="#7c3aed" stroke-width="3" /><text x="900" y="128" font-size="12" fill="#111827">.NET IL hot</text><line x1="868" y1="146" x2="892" y2="146" stroke="#dc2626" stroke-width="3" /><text x="900" y="150" font-size="12" fill="#111827">.NET ReadyToRun hot</text>
    <text x="458.0" y="540" text-anchor="middle" font-size="13" fill="#374151">Invocation number within run</text>
    <text x="20" y="275.0" text-anchor="middle" font-size="13" fill="#374151" transform="rotate(-90 20 275.0)">Latency (ms)</text>
  </g>
</svg>
