<svg xmlns="http://www.w3.org/2000/svg" width="980" height="420" viewBox="0 0 980 420">
  <rect width="100%" height="100%" fill="#ffffff" />
  <text x="72" y="24" font-family="Arial, sans-serif" font-size="18" font-weight="700" fill="#111827">OpenFaaS DaCapo lusearch HTTP latency</text>
  <text x="72" y="42" font-family="Arial, sans-serif" font-size="12" fill="#4b5563">requests=15 mean=39.6ms p50=39.5ms p95=52.7ms p99=52.7ms max=52.7ms</text>
  <g font-family="Arial, sans-serif">
    <line x1="72" y1="356.0" x2="956" y2="356.0" stroke="#e5e7eb" /><text x="62" y="360.0" text-anchor="end" font-size="12" fill="#4b5563">0</text><line x1="72" y1="294.4" x2="956" y2="294.4" stroke="#e5e7eb" /><text x="62" y="298.4" text-anchor="end" font-size="12" fill="#4b5563">12</text><line x1="72" y1="232.8" x2="956" y2="232.8" stroke="#e5e7eb" /><text x="62" y="236.8" text-anchor="end" font-size="12" fill="#4b5563">24</text><line x1="72" y1="171.2" x2="956" y2="171.2" stroke="#e5e7eb" /><text x="62" y="175.2" text-anchor="end" font-size="12" fill="#4b5563">36</text><line x1="72" y1="109.6" x2="956" y2="109.6" stroke="#e5e7eb" /><text x="62" y="113.6" text-anchor="end" font-size="12" fill="#4b5563">48</text><line x1="72" y1="48.0" x2="956" y2="48.0" stroke="#e5e7eb" /><text x="62" y="52.0" text-anchor="end" font-size="12" fill="#4b5563">60</text><line x1="72" y1="153.3" x2="956" y2="153.3" stroke="#059669" stroke-dasharray="6 5" /><text x="952" y="147.3" text-anchor="end" font-size="12" fill="#059669">p50: 39.5 ms</text><line x1="72" y1="85.3" x2="956" y2="85.3" stroke="#d97706" stroke-dasharray="6 5" /><text x="952" y="79.3" text-anchor="end" font-size="12" fill="#d97706">p95: 52.7 ms</text><line x1="72" y1="85.3" x2="956" y2="85.3" stroke="#7c3aed" stroke-dasharray="6 5" /><text x="952" y="79.3" text-anchor="end" font-size="12" fill="#7c3aed">p99: 52.7 ms</text>
    <line x1="72" y1="356" x2="956" y2="356" stroke="#9ca3af" />
    <line x1="72" y1="48" x2="72" y2="356" stroke="#9ca3af" />
    <polyline points="72.0,110.6 135.1,85.3 198.3,144.1 261.4,150.6 324.6,166.2 387.7,151.2 450.9,179.4 514.0,158.0 577.1,144.2 640.3,170.9 703.4,174.6 766.6,153.3 829.7,175.9 892.9,143.5 956.0,186.4" fill="none" stroke="#1d4ed8" stroke-width="2" opacity="0.7" />
    <circle cx="72.0" cy="110.6" r="3" fill="#dc2626" /><circle cx="135.1" cy="85.3" r="3" fill="#dc2626" /><circle cx="198.3" cy="144.1" r="3" fill="#dc2626" /><circle cx="261.4" cy="150.6" r="3" fill="#dc2626" /><circle cx="324.6" cy="166.2" r="3" fill="#dc2626" /><circle cx="387.7" cy="151.2" r="3" fill="#dc2626" /><circle cx="450.9" cy="179.4" r="3" fill="#dc2626" /><circle cx="514.0" cy="158.0" r="3" fill="#dc2626" /><circle cx="577.1" cy="144.2" r="3" fill="#dc2626" /><circle cx="640.3" cy="170.9" r="3" fill="#dc2626" /><circle cx="703.4" cy="174.6" r="3" fill="#dc2626" /><circle cx="766.6" cy="153.3" r="3" fill="#dc2626" /><circle cx="829.7" cy="175.9" r="3" fill="#dc2626" /><circle cx="892.9" cy="143.5" r="3" fill="#dc2626" /><circle cx="956.0" cy="186.4" r="3" fill="#dc2626" />
    <text x="514.0" y="402" text-anchor="middle" font-size="13" fill="#374151">HTTP invocation number</text>
    <text x="18" y="202.0" text-anchor="middle" font-size="13" fill="#374151" transform="rotate(-90 18 202.0)">Latency (ms)</text>
    <text x="956" y="402" text-anchor="end" font-size="12" fill="#2563eb">blue: 2xx/3xx</text>
    <text x="956" y="386" text-anchor="end" font-size="12" fill="#dc2626">red: error status</text>
  </g>
</svg>
