<svg xmlns="http://www.w3.org/2000/svg" width="1220" height="720" viewBox="0 0 1220 720">
<rect width="100%" height="100%" fill="#ffffff"/>
<text x="610.0" y="36.0" text-anchor="middle" font-family="Georgia, Times New Roman, serif" font-size="28" fill="#111827" font-weight="700">OpenFaaS Python h2 median pod lifecycle</text>
<text x="610.0" y="62.0" text-anchor="middle" font-family="Helvetica, Arial, sans-serif" font-size="13" fill="#374151">Median gateway latency at each request position across repeated real pod restarts</text>
<rect x="44.4" y="102" width="135.3" height="42" fill="#5b84d7" opacity="0.82"/>
<rect x="194.7" y="102" width="135.3" height="42" fill="#f4d7ad" opacity="0.66"/>
<rect x="344.9" y="102" width="135.3" height="42" fill="#f4d7ad" opacity="0.66"/>
<rect x="495.2" y="102" width="135.3" height="42" fill="#df7774" opacity="0.56"/>
<rect x="645.5" y="102" width="135.3" height="42" fill="#df7774" opacity="0.56"/>
<rect x="795.8" y="102" width="135.3" height="42" fill="#df7774" opacity="0.56"/>
<rect x="946.1" y="102" width="135.3" height="42" fill="#df7774" opacity="0.56"/>
<rect x="1096.4" y="102" width="135.3" height="42" fill="#df7774" opacity="0.56"/>
<rect x="112.0" y="70.0" width="18" height="12" fill="#5b84d7" opacity="0.82"/>
<text x="137.0" y="80.0" text-anchor="start" font-family="Helvetica, Arial, sans-serif" font-size="12" fill="#374151" font-weight="600">Cold start</text>
<rect x="234.0" y="70.0" width="18" height="12" fill="#f4d7ad" opacity="0.82"/>
<text x="259.0" y="80.0" text-anchor="start" font-family="Helvetica, Arial, sans-serif" font-size="12" fill="#374151" font-weight="600">Warmup</text>
<rect x="338.0" y="70.0" width="18" height="12" fill="#df7774" opacity="0.82"/>
<text x="363.0" y="80.0" text-anchor="start" font-family="Helvetica, Arial, sans-serif" font-size="12" fill="#374151" font-weight="600">Hot</text>
<line x1="112" y1="608.0" x2="1164" y2="608.0" stroke="#e5e7eb"/>
<text x="98.0" y="613.0" text-anchor="end" font-family="Helvetica, Arial, sans-serif" font-size="14" fill="#111827">0</text>
<line x1="112" y1="506.8" x2="1164" y2="506.8" stroke="#e5e7eb"/>
<text x="98.0" y="511.8" text-anchor="end" font-family="Helvetica, Arial, sans-serif" font-size="14" fill="#111827">100</text>
<line x1="112" y1="405.6" x2="1164" y2="405.6" stroke="#e5e7eb"/>
<text x="98.0" y="410.6" text-anchor="end" font-family="Helvetica, Arial, sans-serif" font-size="14" fill="#111827">200</text>
<line x1="112" y1="304.4" x2="1164" y2="304.4" stroke="#e5e7eb"/>
<text x="98.0" y="309.4" text-anchor="end" font-family="Helvetica, Arial, sans-serif" font-size="14" fill="#111827">300</text>
<line x1="112" y1="203.2" x2="1164" y2="203.2" stroke="#e5e7eb"/>
<text x="98.0" y="208.2" text-anchor="end" font-family="Helvetica, Arial, sans-serif" font-size="14" fill="#111827">400</text>
<line x1="112" y1="102.0" x2="1164" y2="102.0" stroke="#e5e7eb"/>
<text x="98.0" y="107.0" text-anchor="end" font-family="Helvetica, Arial, sans-serif" font-size="14" fill="#111827">500</text>
<line x1="112.0" y1="102" x2="112.0" y2="608" stroke="#111827" stroke-dasharray="5 7" opacity="0.38"/>
<text x="120.0" y="120.0" text-anchor="start" font-family="Helvetica, Arial, sans-serif" font-size="11" fill="#374151" font-weight="600">new pod starts</text>
<polyline points="112.0,251.8 262.3,286.3 412.6,242.8 562.9,288.2 713.1,287.6 863.4,296.9 1013.7,297.5 1164.0,295.7" fill="none" stroke="#334155" stroke-width="2.8"/>
<circle cx="112.0" cy="251.8" r="4.7" fill="#334155"/>
<circle cx="262.3" cy="286.3" r="3.7" fill="#334155"/>
<circle cx="412.6" cy="242.8" r="3.7" fill="#334155"/>
<circle cx="562.9" cy="288.2" r="3.7" fill="#334155"/>
<circle cx="713.1" cy="287.6" r="3.7" fill="#334155"/>
<circle cx="863.4" cy="296.9" r="3.7" fill="#334155"/>
<circle cx="1013.7" cy="297.5" r="3.7" fill="#334155"/>
<circle cx="1164.0" cy="295.7" r="3.7" fill="#334155"/>
<polyline points="112.0,328.2 262.3,371.7 412.6,376.4 562.9,372.3 713.1,378.7 863.4,376.5 1013.7,374.8 1164.0,380.1" fill="none" stroke="#0f766e" stroke-width="2.8"/>
<circle cx="112.0" cy="328.2" r="4.7" fill="#0f766e"/>
<circle cx="262.3" cy="371.7" r="3.7" fill="#0f766e"/>
<circle cx="412.6" cy="376.4" r="3.7" fill="#0f766e"/>
<circle cx="562.9" cy="372.3" r="3.7" fill="#0f766e"/>
<circle cx="713.1" cy="378.7" r="3.7" fill="#0f766e"/>
<circle cx="863.4" cy="376.5" r="3.7" fill="#0f766e"/>
<circle cx="1013.7" cy="374.8" r="3.7" fill="#0f766e"/>
<circle cx="1164.0" cy="380.1" r="3.7" fill="#0f766e"/>
<line x1="112.0" y1="608" x2="112.0" y2="615" stroke="#111827"/>
<text x="112.0" y="637.0" text-anchor="middle" font-family="Helvetica, Arial, sans-serif" font-size="14" fill="#111827">1</text>
<line x1="262.3" y1="608" x2="262.3" y2="615" stroke="#111827"/>
<text x="262.3" y="637.0" text-anchor="middle" font-family="Helvetica, Arial, sans-serif" font-size="14" fill="#111827">2</text>
<line x1="412.6" y1="608" x2="412.6" y2="615" stroke="#111827"/>
<text x="412.6" y="637.0" text-anchor="middle" font-family="Helvetica, Arial, sans-serif" font-size="14" fill="#111827">3</text>
<line x1="562.9" y1="608" x2="562.9" y2="615" stroke="#111827"/>
<text x="562.9" y="637.0" text-anchor="middle" font-family="Helvetica, Arial, sans-serif" font-size="14" fill="#111827">4</text>
<line x1="713.1" y1="608" x2="713.1" y2="615" stroke="#111827"/>
<text x="713.1" y="637.0" text-anchor="middle" font-family="Helvetica, Arial, sans-serif" font-size="14" fill="#111827">5</text>
<line x1="863.4" y1="608" x2="863.4" y2="615" stroke="#111827"/>
<text x="863.4" y="637.0" text-anchor="middle" font-family="Helvetica, Arial, sans-serif" font-size="14" fill="#111827">6</text>
<line x1="1013.7" y1="608" x2="1013.7" y2="615" stroke="#111827"/>
<text x="1013.7" y="637.0" text-anchor="middle" font-family="Helvetica, Arial, sans-serif" font-size="14" fill="#111827">7</text>
<line x1="1164.0" y1="608" x2="1164.0" y2="615" stroke="#111827"/>
<text x="1164.0" y="637.0" text-anchor="middle" font-family="Helvetica, Arial, sans-serif" font-size="14" fill="#111827">8</text>
<line x1="112" y1="608" x2="1164" y2="608" stroke="#111827"/>
<line x1="112" y1="102" x2="112" y2="608" stroke="#111827"/>
<text x="638.0" y="666.0" text-anchor="middle" font-family="Helvetica, Arial, sans-serif" font-size="24" fill="#111827">Invocation # within a new pod</text>
<text x="42" y="355.0" text-anchor="middle" font-family="Helvetica, Arial, sans-serif" font-size="24" fill="#111827" transform="rotate(-90 42 355.0)">Median Gateway latency (ms)</text>
<text x="112.0" y="694.0" text-anchor="start" font-family="Helvetica, Arial, sans-serif" font-size="13" fill="#111827">Cold median: No saved specialization state 352.0 ms, Saved specialization artifact 276.5 ms. Hot median: 308.6 ms vs 228.8 ms. Saved-state wins 8/8 request positions.</text>
<line x1="854.0" y1="188.0" x2="888.0" y2="188.0" stroke="#334155" stroke-width="3"/>
<circle cx="871.0" cy="188.0" r="4" fill="#334155"/>
<text x="898.0" y="193.0" text-anchor="start" font-family="Helvetica, Arial, sans-serif" font-size="13" fill="#111827">No saved specialization state</text>
<line x1="854.0" y1="216.0" x2="888.0" y2="216.0" stroke="#0f766e" stroke-width="3"/>
<circle cx="871.0" cy="216.0" r="4" fill="#0f766e"/>
<text x="898.0" y="221.0" text-anchor="start" font-family="Helvetica, Arial, sans-serif" font-size="13" fill="#111827">Saved specialization artifact</text>
</svg>
