<svg xmlns="http://www.w3.org/2000/svg" width="1120" height="680" viewBox="0 0 1120 680">
<rect width="100%" height="100%" fill="#ffffff"/>
<text x="560.0" y="36" text-anchor="middle" font-family="Georgia, Times New Roman, serif" font-size="28" font-weight="700" fill="#111827">Python lusearch profile specialization</text>
<text x="560.0" y="62" text-anchor="middle" font-family="Helvetica, Arial, sans-serif" font-size="13" fill="#374151">Saved runtime profile artifact versus not saving warm state</text>
<rect x="118.0" y="96" width="25.4" height="44" fill="#5b84d7" opacity="0.85"/>
<rect x="143.4" y="96" width="355.4" height="44" fill="#f4d7ad" opacity="0.9"/>
<rect x="498.8" y="96" width="571.2" height="44" fill="#df7774" opacity="0.9"/>
<text x="321.1" y="126" text-anchor="middle" font-family="Helvetica, Arial, sans-serif" font-size="26" font-weight="700" fill="#111827">Warm</text>
<text x="784.4" y="126" text-anchor="middle" font-family="Helvetica, Arial, sans-serif" font-size="26" font-weight="700" fill="#111827">Hot</text>
<line x1="118" y1="588.0" x2="1070" y2="588.0" stroke="#cbd5e1"/>
<text x="104" y="593.0" text-anchor="end" font-family="Helvetica, Arial, sans-serif" font-size="18" fill="#111827">10<tspan baseline-shift="super" font-size="12">2</tspan></text>
<line x1="118" y1="439.9" x2="1070" y2="439.9" stroke="#e5e7eb"/>
<line x1="118" y1="244.1" x2="1070" y2="244.1" stroke="#e5e7eb"/>
<line x1="118" y1="96.0" x2="1070" y2="96.0" stroke="#cbd5e1"/>
<text x="104" y="101.0" text-anchor="end" font-family="Helvetica, Arial, sans-serif" font-size="18" fill="#111827">10<tspan baseline-shift="super" font-size="12">3</tspan></text>
<line x1="143.4" y1="96" x2="143.4" y2="588" stroke="#f4c08a" stroke-dasharray="7 7" stroke-width="2.0" opacity="0.95"/>
<line x1="498.8" y1="96" x2="498.8" y2="588" stroke="#df7774" stroke-dasharray="7 7" stroke-width="2.0" opacity="0.95"/>
<line x1="118.0" y1="588" x2="118.0" y2="595" stroke="#111827"/>
<text x="118.0" y="619" text-anchor="middle" font-family="Helvetica, Arial, sans-serif" font-size="16" fill="#111827">1</text>
<line x1="371.9" y1="588" x2="371.9" y2="595" stroke="#111827"/>
<text x="371.9" y="619" text-anchor="middle" font-family="Helvetica, Arial, sans-serif" font-size="16" fill="#111827">5</text>
<line x1="689.2" y1="588" x2="689.2" y2="595" stroke="#111827"/>
<text x="689.2" y="619" text-anchor="middle" font-family="Helvetica, Arial, sans-serif" font-size="16" fill="#111827">10</text>
<line x1="1006.5" y1="588" x2="1006.5" y2="595" stroke="#111827"/>
<text x="1006.5" y="619" text-anchor="middle" font-family="Helvetica, Arial, sans-serif" font-size="16" fill="#111827">15</text>
<line x1="1070.0" y1="588" x2="1070.0" y2="595" stroke="#111827"/>
<text x="1070.0" y="619" text-anchor="middle" font-family="Helvetica, Arial, sans-serif" font-size="16" fill="#111827">16</text>
<line x1="118" y1="588" x2="1070" y2="588" stroke="#111827"/>
<line x1="118" y1="96" x2="118" y2="588" stroke="#111827"/>
<polyline points="118.0,426.3 181.5,422.7 244.9,429.5 308.4,430.6 371.9,432.1 435.3,423.6 498.8,431.9 562.3,429.0 625.7,433.0 689.2,441.2 752.7,436.9 816.1,443.9 879.6,440.2 943.1,441.6 1006.5,445.4 1070.0,442.8" fill="none" stroke="#334155" stroke-width="2.8"/>
<circle cx="118.0" cy="426.3" r="4.0" fill="#334155"/>
<circle cx="181.5" cy="422.7" r="4.0" fill="#334155"/>
<circle cx="244.9" cy="429.5" r="4.0" fill="#334155"/>
<circle cx="308.4" cy="430.6" r="4.0" fill="#334155"/>
<circle cx="371.9" cy="432.1" r="4.0" fill="#334155"/>
<circle cx="435.3" cy="423.6" r="4.0" fill="#334155"/>
<circle cx="498.8" cy="431.9" r="4.0" fill="#334155"/>
<circle cx="562.3" cy="429.0" r="4.0" fill="#334155"/>
<circle cx="625.7" cy="433.0" r="4.0" fill="#334155"/>
<circle cx="689.2" cy="441.2" r="4.0" fill="#334155"/>
<circle cx="752.7" cy="436.9" r="4.0" fill="#334155"/>
<circle cx="816.1" cy="443.9" r="4.0" fill="#334155"/>
<circle cx="879.6" cy="440.2" r="4.0" fill="#334155"/>
<circle cx="943.1" cy="441.6" r="4.0" fill="#334155"/>
<circle cx="1006.5" cy="445.4" r="4.0" fill="#334155"/>
<circle cx="1070.0" cy="442.8" r="4.0" fill="#334155"/>
<polyline points="118.0,455.9 181.5,450.9 244.9,461.0 308.4,459.2 371.9,453.7 435.3,455.5 498.8,458.8 562.3,452.3 625.7,460.1 689.2,457.5 752.7,459.9 816.1,460.6 879.6,462.0 943.1,457.3 1006.5,455.2 1070.0,458.9" fill="none" stroke="#0f766e" stroke-width="2.8"/>
<circle cx="118.0" cy="455.9" r="4.0" fill="#0f766e"/>
<circle cx="181.5" cy="450.9" r="4.0" fill="#0f766e"/>
<circle cx="244.9" cy="461.0" r="4.0" fill="#0f766e"/>
<circle cx="308.4" cy="459.2" r="4.0" fill="#0f766e"/>
<circle cx="371.9" cy="453.7" r="4.0" fill="#0f766e"/>
<circle cx="435.3" cy="455.5" r="4.0" fill="#0f766e"/>
<circle cx="498.8" cy="458.8" r="4.0" fill="#0f766e"/>
<circle cx="562.3" cy="452.3" r="4.0" fill="#0f766e"/>
<circle cx="625.7" cy="460.1" r="4.0" fill="#0f766e"/>
<circle cx="689.2" cy="457.5" r="4.0" fill="#0f766e"/>
<circle cx="752.7" cy="459.9" r="4.0" fill="#0f766e"/>
<circle cx="816.1" cy="460.6" r="4.0" fill="#0f766e"/>
<circle cx="879.6" cy="462.0" r="4.0" fill="#0f766e"/>
<circle cx="943.1" cy="457.3" r="4.0" fill="#0f766e"/>
<circle cx="1006.5" cy="455.2" r="4.0" fill="#0f766e"/>
<circle cx="1070.0" cy="458.9" r="4.0" fill="#0f766e"/>
<line x1="118" y1="440.7" x2="990.0" y2="440.7" stroke="#7e22ce" stroke-dasharray="7 5" stroke-width="2"/>
<line x1="118" y1="458.9" x2="990.0" y2="458.9" stroke="#7e22ce" stroke-dasharray="7 5" stroke-width="2"/>
<line x1="990.0" y1="440.7" x2="990.0" y2="458.9" stroke="#111827" stroke-width="2.4"/>
<path d="M 983.0 449.7 L 990.0 440.7 L 997.0 449.7" fill="none" stroke="#111827" stroke-width="2.4"/>
<path d="M 983.0 449.9 L 990.0 458.9 L 997.0 449.9" fill="none" stroke="#111827" stroke-width="2.4"/>
<text x="1006.0" y="454.8" font-family="Helvetica, Arial, sans-serif" font-size="18" font-weight="700" fill="#111827">1.09x</text>
<text x="118" y="654" font-family="Helvetica, Arial, sans-serif" font-size="13" fill="#111827">Hot median: No saved specialization state 199.2 ms, Saved specialization artifact 183.0 ms; saved-state line below no-save baseline on 10/10 hot requests.</text>
<rect x="136.0" y="477.9" width="80" height="30" rx="3" fill="#5b84d7" opacity="0.9"/>
<text x="176.0" y="499.9" text-anchor="middle" font-family="Helvetica, Arial, sans-serif" font-size="22" font-weight="700" fill="#111827">Cold</text>
<line x1="216.0" y1="477.9" x2="112.0" y2="459.9" stroke="#111827" stroke-width="2.2"/>
<line x1="820" y1="518" x2="852" y2="518" stroke="#334155" stroke-width="3"/>
<circle cx="836" cy="518" r="4" fill="#334155"/>
<text x="862" y="522" font-family="Helvetica, Arial, sans-serif" font-size="13" fill="#111827">No saved specialization state</text>
<line x1="820" y1="544" x2="852" y2="544" stroke="#0f766e" stroke-width="3"/>
<circle cx="836" cy="544" r="4" fill="#0f766e"/>
<text x="862" y="548" font-family="Helvetica, Arial, sans-serif" font-size="13" fill="#111827">Saved specialization artifact</text>
<text x="594.0" y="632" text-anchor="middle" font-family="Helvetica, Arial, sans-serif" font-size="24" fill="#111827">Request Number</text>
<text x="42" y="342.0" text-anchor="middle" font-family="Helvetica, Arial, sans-serif" font-size="24" fill="#111827" transform="rotate(-90 42 342.0)">Latency (ms)</text>
</svg>
