<svg xmlns="http://www.w3.org/2000/svg" width="1220" height="720" viewBox="0 0 1220 720">
<rect width="100%" height="100%" fill="#ffffff"/>
<text x="610.0" y="36.0" text-anchor="middle" font-family="Georgia, Times New Roman, serif" font-size="28" fill="#111827" font-weight="700">OpenFaaS Python eclipse pod lifecycle</text>
<text x="610.0" y="62.0" text-anchor="middle" font-family="Helvetica, Arial, sans-serif" font-size="13" fill="#374151">Real OpenFaaS pod restarts; saved Redis specialization artifact versus no saved state</text>
<rect x="99.9" y="102" width="24.3" height="42" fill="#5b84d7" opacity="0.82"/>
<rect x="126.8" y="102" width="24.3" height="42" fill="#f4d7ad" opacity="0.66"/>
<rect x="153.8" y="102" width="24.3" height="42" fill="#f4d7ad" opacity="0.66"/>
<rect x="180.8" y="102" width="24.3" height="42" fill="#df7774" opacity="0.56"/>
<rect x="207.8" y="102" width="24.3" height="42" fill="#df7774" opacity="0.56"/>
<rect x="234.7" y="102" width="24.3" height="42" fill="#df7774" opacity="0.56"/>
<rect x="261.7" y="102" width="24.3" height="42" fill="#df7774" opacity="0.56"/>
<rect x="288.7" y="102" width="24.3" height="42" fill="#df7774" opacity="0.56"/>
<rect x="315.7" y="102" width="24.3" height="42" fill="#5b84d7" opacity="0.82"/>
<rect x="342.6" y="102" width="24.3" height="42" fill="#f4d7ad" opacity="0.66"/>
<rect x="369.6" y="102" width="24.3" height="42" fill="#f4d7ad" opacity="0.66"/>
<rect x="396.6" y="102" width="24.3" height="42" fill="#df7774" opacity="0.56"/>
<rect x="423.6" y="102" width="24.3" height="42" fill="#df7774" opacity="0.56"/>
<rect x="450.5" y="102" width="24.3" height="42" fill="#df7774" opacity="0.56"/>
<rect x="477.5" y="102" width="24.3" height="42" fill="#df7774" opacity="0.56"/>
<rect x="504.5" y="102" width="24.3" height="42" fill="#df7774" opacity="0.56"/>
<rect x="531.5" y="102" width="24.3" height="42" fill="#5b84d7" opacity="0.82"/>
<rect x="558.4" y="102" width="24.3" height="42" fill="#f4d7ad" opacity="0.66"/>
<rect x="585.4" y="102" width="24.3" height="42" fill="#f4d7ad" opacity="0.66"/>
<rect x="612.4" y="102" width="24.3" height="42" fill="#df7774" opacity="0.56"/>
<rect x="639.3" y="102" width="24.3" height="42" fill="#df7774" opacity="0.56"/>
<rect x="666.3" y="102" width="24.3" height="42" fill="#df7774" opacity="0.56"/>
<rect x="693.3" y="102" width="24.3" height="42" fill="#df7774" opacity="0.56"/>
<rect x="720.3" y="102" width="24.3" height="42" fill="#df7774" opacity="0.56"/>
<rect x="747.2" y="102" width="24.3" height="42" fill="#5b84d7" opacity="0.82"/>
<rect x="774.2" y="102" width="24.3" height="42" fill="#f4d7ad" opacity="0.66"/>
<rect x="801.2" y="102" width="24.3" height="42" fill="#f4d7ad" opacity="0.66"/>
<rect x="828.2" y="102" width="24.3" height="42" fill="#df7774" opacity="0.56"/>
<rect x="855.1" y="102" width="24.3" height="42" fill="#df7774" opacity="0.56"/>
<rect x="882.1" y="102" width="24.3" height="42" fill="#df7774" opacity="0.56"/>
<rect x="909.1" y="102" width="24.3" height="42" fill="#df7774" opacity="0.56"/>
<rect x="936.1" y="102" width="24.3" height="42" fill="#df7774" opacity="0.56"/>
<rect x="963.0" y="102" width="24.3" height="42" fill="#5b84d7" opacity="0.82"/>
<rect x="990.0" y="102" width="24.3" height="42" fill="#f4d7ad" opacity="0.66"/>
<rect x="1017.0" y="102" width="24.3" height="42" fill="#f4d7ad" opacity="0.66"/>
<rect x="1044.0" y="102" width="24.3" height="42" fill="#df7774" opacity="0.56"/>
<rect x="1070.9" y="102" width="24.3" height="42" fill="#df7774" opacity="0.56"/>
<rect x="1097.9" y="102" width="24.3" height="42" fill="#df7774" opacity="0.56"/>
<rect x="1124.9" y="102" width="24.3" height="42" fill="#df7774" opacity="0.56"/>
<rect x="1151.9" y="102" width="24.3" height="42" fill="#df7774" opacity="0.56"/>
<rect x="112.0" y="70.0" width="18" height="12" fill="#5b84d7" opacity="0.82"/>
<text x="137.0" y="80.0" text-anchor="start" font-family="Helvetica, Arial, sans-serif" font-size="12" fill="#374151" font-weight="600">Cold start</text>
<rect x="234.0" y="70.0" width="18" height="12" fill="#f4d7ad" opacity="0.82"/>
<text x="259.0" y="80.0" text-anchor="start" font-family="Helvetica, Arial, sans-serif" font-size="12" fill="#374151" font-weight="600">Warmup</text>
<rect x="338.0" y="70.0" width="18" height="12" fill="#df7774" opacity="0.82"/>
<text x="363.0" y="80.0" text-anchor="start" font-family="Helvetica, Arial, sans-serif" font-size="12" fill="#374151" font-weight="600">Hot</text>
<line x1="112" y1="608.0" x2="1164" y2="608.0" stroke="#e5e7eb"/>
<text x="98.0" y="613.0" text-anchor="end" font-family="Helvetica, Arial, sans-serif" font-size="14" fill="#111827">0</text>
<line x1="112" y1="506.8" x2="1164" y2="506.8" stroke="#e5e7eb"/>
<text x="98.0" y="511.8" text-anchor="end" font-family="Helvetica, Arial, sans-serif" font-size="14" fill="#111827">1000</text>
<line x1="112" y1="405.6" x2="1164" y2="405.6" stroke="#e5e7eb"/>
<text x="98.0" y="410.6" text-anchor="end" font-family="Helvetica, Arial, sans-serif" font-size="14" fill="#111827">2000</text>
<line x1="112" y1="304.4" x2="1164" y2="304.4" stroke="#e5e7eb"/>
<text x="98.0" y="309.4" text-anchor="end" font-family="Helvetica, Arial, sans-serif" font-size="14" fill="#111827">3000</text>
<line x1="112" y1="203.2" x2="1164" y2="203.2" stroke="#e5e7eb"/>
<text x="98.0" y="208.2" text-anchor="end" font-family="Helvetica, Arial, sans-serif" font-size="14" fill="#111827">4000</text>
<line x1="112" y1="102.0" x2="1164" y2="102.0" stroke="#e5e7eb"/>
<text x="98.0" y="107.0" text-anchor="end" font-family="Helvetica, Arial, sans-serif" font-size="14" fill="#111827">5000</text>
<line x1="112.0" y1="102" x2="112.0" y2="608" stroke="#111827" stroke-dasharray="5 7" opacity="0.38"/>
<text x="120.0" y="120.0" text-anchor="start" font-family="Helvetica, Arial, sans-serif" font-size="11" fill="#374151" font-weight="600">pod 1 start</text>
<line x1="327.8" y1="102" x2="327.8" y2="608" stroke="#111827" stroke-dasharray="5 7" opacity="0.38"/>
<text x="335.8" y="120.0" text-anchor="start" font-family="Helvetica, Arial, sans-serif" font-size="11" fill="#374151" font-weight="600">pod 2 start</text>
<line x1="543.6" y1="102" x2="543.6" y2="608" stroke="#111827" stroke-dasharray="5 7" opacity="0.38"/>
<text x="551.6" y="120.0" text-anchor="start" font-family="Helvetica, Arial, sans-serif" font-size="11" fill="#374151" font-weight="600">pod 3 start</text>
<line x1="759.4" y1="102" x2="759.4" y2="608" stroke="#111827" stroke-dasharray="5 7" opacity="0.38"/>
<text x="767.4" y="120.0" text-anchor="start" font-family="Helvetica, Arial, sans-serif" font-size="11" fill="#374151" font-weight="600">pod 4 start</text>
<line x1="975.2" y1="102" x2="975.2" y2="608" stroke="#111827" stroke-dasharray="5 7" opacity="0.38"/>
<text x="983.2" y="120.0" text-anchor="start" font-family="Helvetica, Arial, sans-serif" font-size="11" fill="#374151" font-weight="600">pod 5 start</text>
<polyline points="112.0,378.9 139.0,378.2 165.9,401.1 192.9,396.9 219.9,398.6 246.9,398.7 273.8,399.7 300.8,395.1 327.8,388.2 354.8,389.3 381.7,392.9 408.7,393.5 435.7,391.1 462.7,392.6 489.6,394.8 516.6,394.8 543.6,389.5 570.6,392.0 597.5,392.5 624.5,391.3 651.5,384.7 678.5,384.5 705.4,393.3 732.4,391.5 759.4,382.6 786.4,392.9 813.3,394.2 840.3,394.0 867.3,393.0 894.3,382.9 921.2,358.3 948.2,393.5 975.2,398.4 1002.2,399.6 1029.1,398.8 1056.1,401.5 1083.1,397.9 1110.1,396.2 1137.0,400.3 1164.0,399.9" fill="none" stroke="#334155" stroke-width="2.8"/>
<circle cx="112.0" cy="378.9" r="4.7" fill="#334155"/>
<circle cx="139.0" cy="378.2" r="3.7" fill="#334155"/>
<circle cx="165.9" cy="401.1" r="3.7" fill="#334155"/>
<circle cx="192.9" cy="396.9" r="3.7" fill="#334155"/>
<circle cx="219.9" cy="398.6" r="3.7" fill="#334155"/>
<circle cx="246.9" cy="398.7" r="3.7" fill="#334155"/>
<circle cx="273.8" cy="399.7" r="3.7" fill="#334155"/>
<circle cx="300.8" cy="395.1" r="3.7" fill="#334155"/>
<circle cx="327.8" cy="388.2" r="4.7" fill="#334155"/>
<circle cx="354.8" cy="389.3" r="3.7" fill="#334155"/>
<circle cx="381.7" cy="392.9" r="3.7" fill="#334155"/>
<circle cx="408.7" cy="393.5" r="3.7" fill="#334155"/>
<circle cx="435.7" cy="391.1" r="3.7" fill="#334155"/>
<circle cx="462.7" cy="392.6" r="3.7" fill="#334155"/>
<circle cx="489.6" cy="394.8" r="3.7" fill="#334155"/>
<circle cx="516.6" cy="394.8" r="3.7" fill="#334155"/>
<circle cx="543.6" cy="389.5" r="4.7" fill="#334155"/>
<circle cx="570.6" cy="392.0" r="3.7" fill="#334155"/>
<circle cx="597.5" cy="392.5" r="3.7" fill="#334155"/>
<circle cx="624.5" cy="391.3" r="3.7" fill="#334155"/>
<circle cx="651.5" cy="384.7" r="3.7" fill="#334155"/>
<circle cx="678.5" cy="384.5" r="3.7" fill="#334155"/>
<circle cx="705.4" cy="393.3" r="3.7" fill="#334155"/>
<circle cx="732.4" cy="391.5" r="3.7" fill="#334155"/>
<circle cx="759.4" cy="382.6" r="4.7" fill="#334155"/>
<circle cx="786.4" cy="392.9" r="3.7" fill="#334155"/>
<circle cx="813.3" cy="394.2" r="3.7" fill="#334155"/>
<circle cx="840.3" cy="394.0" r="3.7" fill="#334155"/>
<circle cx="867.3" cy="393.0" r="3.7" fill="#334155"/>
<circle cx="894.3" cy="382.9" r="3.7" fill="#334155"/>
<circle cx="921.2" cy="358.3" r="3.7" fill="#334155"/>
<circle cx="948.2" cy="393.5" r="3.7" fill="#334155"/>
<circle cx="975.2" cy="398.4" r="4.7" fill="#334155"/>
<circle cx="1002.2" cy="399.6" r="3.7" fill="#334155"/>
<circle cx="1029.1" cy="398.8" r="3.7" fill="#334155"/>
<circle cx="1056.1" cy="401.5" r="3.7" fill="#334155"/>
<circle cx="1083.1" cy="397.9" r="3.7" fill="#334155"/>
<circle cx="1110.1" cy="396.2" r="3.7" fill="#334155"/>
<circle cx="1137.0" cy="400.3" r="3.7" fill="#334155"/>
<circle cx="1164.0" cy="399.9" r="3.7" fill="#334155"/>
<polyline points="112.0,414.6 139.0,420.1 165.9,422.2 192.9,417.0 219.9,420.3 246.9,421.8 273.8,421.2 300.8,420.7 327.8,413.9 354.8,419.6 381.7,419.8 408.7,420.6 435.7,420.6 462.7,420.7 489.6,419.4 516.6,415.9 543.6,424.2 570.6,424.7 597.5,422.4 624.5,407.7 651.5,425.5 678.5,424.0 705.4,425.4 732.4,423.6 759.4,421.5 786.4,406.8 813.3,387.8 840.3,387.7 867.3,393.9 894.3,394.8 921.2,386.6 948.2,391.3 975.2,386.4 1002.2,385.1 1029.1,378.3 1056.1,404.2 1083.1,410.3 1110.1,413.0 1137.0,393.0 1164.0,398.0" fill="none" stroke="#0f766e" stroke-width="2.8"/>
<circle cx="112.0" cy="414.6" r="4.7" fill="#0f766e"/>
<circle cx="139.0" cy="420.1" r="3.7" fill="#0f766e"/>
<circle cx="165.9" cy="422.2" r="3.7" fill="#0f766e"/>
<circle cx="192.9" cy="417.0" r="3.7" fill="#0f766e"/>
<circle cx="219.9" cy="420.3" r="3.7" fill="#0f766e"/>
<circle cx="246.9" cy="421.8" r="3.7" fill="#0f766e"/>
<circle cx="273.8" cy="421.2" r="3.7" fill="#0f766e"/>
<circle cx="300.8" cy="420.7" r="3.7" fill="#0f766e"/>
<circle cx="327.8" cy="413.9" r="4.7" fill="#0f766e"/>
<circle cx="354.8" cy="419.6" r="3.7" fill="#0f766e"/>
<circle cx="381.7" cy="419.8" r="3.7" fill="#0f766e"/>
<circle cx="408.7" cy="420.6" r="3.7" fill="#0f766e"/>
<circle cx="435.7" cy="420.6" r="3.7" fill="#0f766e"/>
<circle cx="462.7" cy="420.7" r="3.7" fill="#0f766e"/>
<circle cx="489.6" cy="419.4" r="3.7" fill="#0f766e"/>
<circle cx="516.6" cy="415.9" r="3.7" fill="#0f766e"/>
<circle cx="543.6" cy="424.2" r="4.7" fill="#0f766e"/>
<circle cx="570.6" cy="424.7" r="3.7" fill="#0f766e"/>
<circle cx="597.5" cy="422.4" r="3.7" fill="#0f766e"/>
<circle cx="624.5" cy="407.7" r="3.7" fill="#0f766e"/>
<circle cx="651.5" cy="425.5" r="3.7" fill="#0f766e"/>
<circle cx="678.5" cy="424.0" r="3.7" fill="#0f766e"/>
<circle cx="705.4" cy="425.4" r="3.7" fill="#0f766e"/>
<circle cx="732.4" cy="423.6" r="3.7" fill="#0f766e"/>
<circle cx="759.4" cy="421.5" r="4.7" fill="#0f766e"/>
<circle cx="786.4" cy="406.8" r="3.7" fill="#0f766e"/>
<circle cx="813.3" cy="387.8" r="3.7" fill="#0f766e"/>
<circle cx="840.3" cy="387.7" r="3.7" fill="#0f766e"/>
<circle cx="867.3" cy="393.9" r="3.7" fill="#0f766e"/>
<circle cx="894.3" cy="394.8" r="3.7" fill="#0f766e"/>
<circle cx="921.2" cy="386.6" r="3.7" fill="#0f766e"/>
<circle cx="948.2" cy="391.3" r="3.7" fill="#0f766e"/>
<circle cx="975.2" cy="386.4" r="4.7" fill="#0f766e"/>
<circle cx="1002.2" cy="385.1" r="3.7" fill="#0f766e"/>
<circle cx="1029.1" cy="378.3" r="3.7" fill="#0f766e"/>
<circle cx="1056.1" cy="404.2" r="3.7" fill="#0f766e"/>
<circle cx="1083.1" cy="410.3" r="3.7" fill="#0f766e"/>
<circle cx="1110.1" cy="413.0" r="3.7" fill="#0f766e"/>
<circle cx="1137.0" cy="393.0" r="3.7" fill="#0f766e"/>
<circle cx="1164.0" cy="398.0" r="3.7" fill="#0f766e"/>
<line x1="112.0" y1="608" x2="112.0" y2="615" stroke="#111827"/>
<text x="112.0" y="637.0" text-anchor="middle" font-family="Helvetica, Arial, sans-serif" font-size="14" fill="#111827">1</text>
<line x1="219.9" y1="608" x2="219.9" y2="615" stroke="#111827"/>
<text x="219.9" y="637.0" text-anchor="middle" font-family="Helvetica, Arial, sans-serif" font-size="14" fill="#111827">5</text>
<line x1="354.8" y1="608" x2="354.8" y2="615" stroke="#111827"/>
<text x="354.8" y="637.0" text-anchor="middle" font-family="Helvetica, Arial, sans-serif" font-size="14" fill="#111827">10</text>
<line x1="489.6" y1="608" x2="489.6" y2="615" stroke="#111827"/>
<text x="489.6" y="637.0" text-anchor="middle" font-family="Helvetica, Arial, sans-serif" font-size="14" fill="#111827">15</text>
<line x1="624.5" y1="608" x2="624.5" y2="615" stroke="#111827"/>
<text x="624.5" y="637.0" text-anchor="middle" font-family="Helvetica, Arial, sans-serif" font-size="14" fill="#111827">20</text>
<line x1="759.4" y1="608" x2="759.4" y2="615" stroke="#111827"/>
<text x="759.4" y="637.0" text-anchor="middle" font-family="Helvetica, Arial, sans-serif" font-size="14" fill="#111827">25</text>
<line x1="894.3" y1="608" x2="894.3" y2="615" stroke="#111827"/>
<text x="894.3" y="637.0" text-anchor="middle" font-family="Helvetica, Arial, sans-serif" font-size="14" fill="#111827">30</text>
<line x1="1029.1" y1="608" x2="1029.1" y2="615" stroke="#111827"/>
<text x="1029.1" y="637.0" text-anchor="middle" font-family="Helvetica, Arial, sans-serif" font-size="14" fill="#111827">35</text>
<line x1="1164.0" y1="608" x2="1164.0" y2="615" stroke="#111827"/>
<text x="1164.0" y="637.0" text-anchor="middle" font-family="Helvetica, Arial, sans-serif" font-size="14" fill="#111827">40</text>
<line x1="112" y1="608" x2="1164" y2="608" stroke="#111827"/>
<line x1="112" y1="102" x2="112" y2="608" stroke="#111827"/>
<text x="638.0" y="666.0" text-anchor="middle" font-family="Helvetica, Arial, sans-serif" font-size="24" fill="#111827">Invocation Number</text>
<text x="42" y="355.0" text-anchor="middle" font-family="Helvetica, Arial, sans-serif" font-size="24" fill="#111827" transform="rotate(-90 42 355.0)">Gateway latency (ms)</text>
<text x="112.0" y="694.0" text-anchor="start" font-family="Helvetica, Arial, sans-serif" font-size="13" fill="#111827">Cold median: No saved specialization state 2172.2 ms, Saved specialization artifact 1911.2 ms. Hot median: 2114.3 ms vs 1887.1 ms. Saved-state wins 32/40 requests.</text>
<line x1="854.0" y1="188.0" x2="888.0" y2="188.0" stroke="#334155" stroke-width="3"/>
<circle cx="871.0" cy="188.0" r="4" fill="#334155"/>
<text x="898.0" y="193.0" text-anchor="start" font-family="Helvetica, Arial, sans-serif" font-size="13" fill="#111827">No saved specialization state</text>
<line x1="854.0" y1="216.0" x2="888.0" y2="216.0" stroke="#0f766e" stroke-width="3"/>
<circle cx="871.0" cy="216.0" r="4" fill="#0f766e"/>
<text x="898.0" y="221.0" text-anchor="start" font-family="Helvetica, Arial, sans-serif" font-size="13" fill="#111827">Saved specialization artifact</text>
</svg>
