<svg xmlns="http://www.w3.org/2000/svg" width="1220" height="720" viewBox="0 0 1220 720">
<rect width="100%" height="100%" fill="#ffffff"/>
<text x="610.0" y="36.0" text-anchor="middle" font-family="Georgia, Times New Roman, serif" font-size="28" fill="#111827" font-weight="700">OpenFaaS Python h2 pod lifecycle</text>
<text x="610.0" y="62.0" text-anchor="middle" font-family="Helvetica, Arial, sans-serif" font-size="13" fill="#374151">Real OpenFaaS pod restarts; saved Redis specialization artifact versus no saved state</text>
<rect x="80.4" y="102" width="63.1" height="42" fill="#5b84d7" opacity="0.82"/>
<rect x="150.6" y="102" width="63.1" height="42" fill="#f4d7ad" opacity="0.66"/>
<rect x="220.7" y="102" width="63.1" height="42" fill="#f4d7ad" opacity="0.66"/>
<rect x="290.8" y="102" width="63.1" height="42" fill="#df7774" opacity="0.56"/>
<rect x="361.0" y="102" width="63.1" height="42" fill="#df7774" opacity="0.56"/>
<rect x="431.1" y="102" width="63.1" height="42" fill="#df7774" opacity="0.56"/>
<rect x="501.2" y="102" width="63.1" height="42" fill="#df7774" opacity="0.56"/>
<rect x="571.4" y="102" width="63.1" height="42" fill="#df7774" opacity="0.56"/>
<rect x="641.5" y="102" width="63.1" height="42" fill="#5b84d7" opacity="0.82"/>
<rect x="711.6" y="102" width="63.1" height="42" fill="#f4d7ad" opacity="0.66"/>
<rect x="781.8" y="102" width="63.1" height="42" fill="#f4d7ad" opacity="0.66"/>
<rect x="851.9" y="102" width="63.1" height="42" fill="#df7774" opacity="0.56"/>
<rect x="922.0" y="102" width="63.1" height="42" fill="#df7774" opacity="0.56"/>
<rect x="992.2" y="102" width="63.1" height="42" fill="#df7774" opacity="0.56"/>
<rect x="1062.3" y="102" width="63.1" height="42" fill="#df7774" opacity="0.56"/>
<rect x="1132.4" y="102" width="63.1" height="42" fill="#df7774" opacity="0.56"/>
<rect x="112.0" y="70.0" width="18" height="12" fill="#5b84d7" opacity="0.82"/>
<text x="137.0" y="80.0" text-anchor="start" font-family="Helvetica, Arial, sans-serif" font-size="12" fill="#374151" font-weight="600">Cold start</text>
<rect x="234.0" y="70.0" width="18" height="12" fill="#f4d7ad" opacity="0.82"/>
<text x="259.0" y="80.0" text-anchor="start" font-family="Helvetica, Arial, sans-serif" font-size="12" fill="#374151" font-weight="600">Warmup</text>
<rect x="338.0" y="70.0" width="18" height="12" fill="#df7774" opacity="0.82"/>
<text x="363.0" y="80.0" text-anchor="start" font-family="Helvetica, Arial, sans-serif" font-size="12" fill="#374151" font-weight="600">Hot</text>
<line x1="112" y1="608.0" x2="1164" y2="608.0" stroke="#e5e7eb"/>
<text x="98.0" y="613.0" text-anchor="end" font-family="Helvetica, Arial, sans-serif" font-size="14" fill="#111827">0</text>
<line x1="112" y1="506.8" x2="1164" y2="506.8" stroke="#e5e7eb"/>
<text x="98.0" y="511.8" text-anchor="end" font-family="Helvetica, Arial, sans-serif" font-size="14" fill="#111827">100</text>
<line x1="112" y1="405.6" x2="1164" y2="405.6" stroke="#e5e7eb"/>
<text x="98.0" y="410.6" text-anchor="end" font-family="Helvetica, Arial, sans-serif" font-size="14" fill="#111827">200</text>
<line x1="112" y1="304.4" x2="1164" y2="304.4" stroke="#e5e7eb"/>
<text x="98.0" y="309.4" text-anchor="end" font-family="Helvetica, Arial, sans-serif" font-size="14" fill="#111827">300</text>
<line x1="112" y1="203.2" x2="1164" y2="203.2" stroke="#e5e7eb"/>
<text x="98.0" y="208.2" text-anchor="end" font-family="Helvetica, Arial, sans-serif" font-size="14" fill="#111827">400</text>
<line x1="112" y1="102.0" x2="1164" y2="102.0" stroke="#e5e7eb"/>
<text x="98.0" y="107.0" text-anchor="end" font-family="Helvetica, Arial, sans-serif" font-size="14" fill="#111827">500</text>
<line x1="112.0" y1="102" x2="112.0" y2="608" stroke="#111827" stroke-dasharray="5 7" opacity="0.38"/>
<text x="120.0" y="120.0" text-anchor="start" font-family="Helvetica, Arial, sans-serif" font-size="11" fill="#374151" font-weight="600">pod 1 start</text>
<line x1="673.1" y1="102" x2="673.1" y2="608" stroke="#111827" stroke-dasharray="5 7" opacity="0.38"/>
<text x="681.1" y="120.0" text-anchor="start" font-family="Helvetica, Arial, sans-serif" font-size="11" fill="#374151" font-weight="600">pod 2 start</text>
<polyline points="112.0,211.3 182.1,272.1 252.3,188.4 322.4,276.8 392.5,292.3 462.7,297.9 532.8,297.8 602.9,291.9 673.1,292.3 743.2,300.5 813.3,297.1 883.5,299.6 953.6,282.9 1023.7,295.9 1093.9,297.1 1164.0,299.5" fill="none" stroke="#334155" stroke-width="2.8"/>
<circle cx="112.0" cy="211.3" r="4.7" fill="#334155"/>
<circle cx="182.1" cy="272.1" r="3.7" fill="#334155"/>
<circle cx="252.3" cy="188.4" r="3.7" fill="#334155"/>
<circle cx="322.4" cy="276.8" r="3.7" fill="#334155"/>
<circle cx="392.5" cy="292.3" r="3.7" fill="#334155"/>
<circle cx="462.7" cy="297.9" r="3.7" fill="#334155"/>
<circle cx="532.8" cy="297.8" r="3.7" fill="#334155"/>
<circle cx="602.9" cy="291.9" r="3.7" fill="#334155"/>
<circle cx="673.1" cy="292.3" r="4.7" fill="#334155"/>
<circle cx="743.2" cy="300.5" r="3.7" fill="#334155"/>
<circle cx="813.3" cy="297.1" r="3.7" fill="#334155"/>
<circle cx="883.5" cy="299.6" r="3.7" fill="#334155"/>
<circle cx="953.6" cy="282.9" r="3.7" fill="#334155"/>
<circle cx="1023.7" cy="295.9" r="3.7" fill="#334155"/>
<circle cx="1093.9" cy="297.1" r="3.7" fill="#334155"/>
<circle cx="1164.0" cy="299.5" r="3.7" fill="#334155"/>
<polyline points="112.0,323.8 182.1,379.2 252.3,380.1 322.4,378.1 392.5,382.0 462.7,378.8 532.8,384.0 602.9,386.4 673.1,332.6 743.2,364.2 813.3,372.6 883.5,366.5 953.6,375.4 1023.7,374.2 1093.9,365.6 1164.0,373.8" fill="none" stroke="#0f766e" stroke-width="2.8"/>
<circle cx="112.0" cy="323.8" r="4.7" fill="#0f766e"/>
<circle cx="182.1" cy="379.2" r="3.7" fill="#0f766e"/>
<circle cx="252.3" cy="380.1" r="3.7" fill="#0f766e"/>
<circle cx="322.4" cy="378.1" r="3.7" fill="#0f766e"/>
<circle cx="392.5" cy="382.0" r="3.7" fill="#0f766e"/>
<circle cx="462.7" cy="378.8" r="3.7" fill="#0f766e"/>
<circle cx="532.8" cy="384.0" r="3.7" fill="#0f766e"/>
<circle cx="602.9" cy="386.4" r="3.7" fill="#0f766e"/>
<circle cx="673.1" cy="332.6" r="4.7" fill="#0f766e"/>
<circle cx="743.2" cy="364.2" r="3.7" fill="#0f766e"/>
<circle cx="813.3" cy="372.6" r="3.7" fill="#0f766e"/>
<circle cx="883.5" cy="366.5" r="3.7" fill="#0f766e"/>
<circle cx="953.6" cy="375.4" r="3.7" fill="#0f766e"/>
<circle cx="1023.7" cy="374.2" r="3.7" fill="#0f766e"/>
<circle cx="1093.9" cy="365.6" r="3.7" fill="#0f766e"/>
<circle cx="1164.0" cy="373.8" r="3.7" fill="#0f766e"/>
<line x1="112.0" y1="608" x2="112.0" y2="615" stroke="#111827"/>
<text x="112.0" y="637.0" text-anchor="middle" font-family="Helvetica, Arial, sans-serif" font-size="14" fill="#111827">1</text>
<line x1="182.1" y1="608" x2="182.1" y2="615" stroke="#111827"/>
<text x="182.1" y="637.0" text-anchor="middle" font-family="Helvetica, Arial, sans-serif" font-size="14" fill="#111827">2</text>
<line x1="252.3" y1="608" x2="252.3" y2="615" stroke="#111827"/>
<text x="252.3" y="637.0" text-anchor="middle" font-family="Helvetica, Arial, sans-serif" font-size="14" fill="#111827">3</text>
<line x1="322.4" y1="608" x2="322.4" y2="615" stroke="#111827"/>
<text x="322.4" y="637.0" text-anchor="middle" font-family="Helvetica, Arial, sans-serif" font-size="14" fill="#111827">4</text>
<line x1="392.5" y1="608" x2="392.5" y2="615" stroke="#111827"/>
<text x="392.5" y="637.0" text-anchor="middle" font-family="Helvetica, Arial, sans-serif" font-size="14" fill="#111827">5</text>
<line x1="462.7" y1="608" x2="462.7" y2="615" stroke="#111827"/>
<text x="462.7" y="637.0" text-anchor="middle" font-family="Helvetica, Arial, sans-serif" font-size="14" fill="#111827">6</text>
<line x1="532.8" y1="608" x2="532.8" y2="615" stroke="#111827"/>
<text x="532.8" y="637.0" text-anchor="middle" font-family="Helvetica, Arial, sans-serif" font-size="14" fill="#111827">7</text>
<line x1="602.9" y1="608" x2="602.9" y2="615" stroke="#111827"/>
<text x="602.9" y="637.0" text-anchor="middle" font-family="Helvetica, Arial, sans-serif" font-size="14" fill="#111827">8</text>
<line x1="673.1" y1="608" x2="673.1" y2="615" stroke="#111827"/>
<text x="673.1" y="637.0" text-anchor="middle" font-family="Helvetica, Arial, sans-serif" font-size="14" fill="#111827">9</text>
<line x1="743.2" y1="608" x2="743.2" y2="615" stroke="#111827"/>
<text x="743.2" y="637.0" text-anchor="middle" font-family="Helvetica, Arial, sans-serif" font-size="14" fill="#111827">10</text>
<line x1="813.3" y1="608" x2="813.3" y2="615" stroke="#111827"/>
<text x="813.3" y="637.0" text-anchor="middle" font-family="Helvetica, Arial, sans-serif" font-size="14" fill="#111827">11</text>
<line x1="883.5" y1="608" x2="883.5" y2="615" stroke="#111827"/>
<text x="883.5" y="637.0" text-anchor="middle" font-family="Helvetica, Arial, sans-serif" font-size="14" fill="#111827">12</text>
<line x1="953.6" y1="608" x2="953.6" y2="615" stroke="#111827"/>
<text x="953.6" y="637.0" text-anchor="middle" font-family="Helvetica, Arial, sans-serif" font-size="14" fill="#111827">13</text>
<line x1="1023.7" y1="608" x2="1023.7" y2="615" stroke="#111827"/>
<text x="1023.7" y="637.0" text-anchor="middle" font-family="Helvetica, Arial, sans-serif" font-size="14" fill="#111827">14</text>
<line x1="1093.9" y1="608" x2="1093.9" y2="615" stroke="#111827"/>
<text x="1093.9" y="637.0" text-anchor="middle" font-family="Helvetica, Arial, sans-serif" font-size="14" fill="#111827">15</text>
<line x1="1164.0" y1="608" x2="1164.0" y2="615" stroke="#111827"/>
<text x="1164.0" y="637.0" text-anchor="middle" font-family="Helvetica, Arial, sans-serif" font-size="14" fill="#111827">16</text>
<line x1="112" y1="608" x2="1164" y2="608" stroke="#111827"/>
<line x1="112" y1="102" x2="112" y2="608" stroke="#111827"/>
<text x="638.0" y="666.0" text-anchor="middle" font-family="Helvetica, Arial, sans-serif" font-size="24" fill="#111827">Invocation Number</text>
<text x="42" y="355.0" text-anchor="middle" font-family="Helvetica, Arial, sans-serif" font-size="24" fill="#111827" transform="rotate(-90 42 355.0)">Latency (ms)</text>
<text x="112.0" y="694.0" text-anchor="start" font-family="Helvetica, Arial, sans-serif" font-size="13" fill="#111827">Cold median: No saved specialization state 352.0 ms, Saved specialization artifact 276.5 ms. Hot median: 307.8 ms vs 228.5 ms. Saved-state wins 16/16 requests.</text>
<line x1="854.0" y1="188.0" x2="888.0" y2="188.0" stroke="#334155" stroke-width="3"/>
<circle cx="871.0" cy="188.0" r="4" fill="#334155"/>
<text x="898.0" y="193.0" text-anchor="start" font-family="Helvetica, Arial, sans-serif" font-size="13" fill="#111827">No saved specialization state</text>
<line x1="854.0" y1="216.0" x2="888.0" y2="216.0" stroke="#0f766e" stroke-width="3"/>
<circle cx="871.0" cy="216.0" r="4" fill="#0f766e"/>
<text x="898.0" y="221.0" text-anchor="start" font-family="Helvetica, Arial, sans-serif" font-size="13" fill="#111827">Saved specialization artifact</text>
</svg>
