<svg xmlns="http://www.w3.org/2000/svg" width="1220" height="720" viewBox="0 0 1220 720">
<rect width="100%" height="100%" fill="#ffffff"/>
<text x="610.0" y="36.0" text-anchor="middle" font-family="Georgia, Times New Roman, serif" font-size="28" fill="#111827" font-weight="700">Python eclipse pod lifecycle</text>
<text x="610.0" y="62.0" text-anchor="middle" font-family="Helvetica, Arial, sans-serif" font-size="13" fill="#374151">Cold starts at each new pod; warmup and hot requests stay in the same pod</text>
<rect x="80.4" y="102" width="63.1" height="42" fill="#5b84d7" opacity="0.82"/>
<rect x="150.6" y="102" width="63.1" height="42" fill="#f4d7ad" opacity="0.66"/>
<rect x="220.7" y="102" width="63.1" height="42" fill="#f4d7ad" opacity="0.66"/>
<rect x="290.8" y="102" width="63.1" height="42" fill="#df7774" opacity="0.56"/>
<rect x="361.0" y="102" width="63.1" height="42" fill="#df7774" opacity="0.56"/>
<rect x="431.1" y="102" width="63.1" height="42" fill="#df7774" opacity="0.56"/>
<rect x="501.2" y="102" width="63.1" height="42" fill="#df7774" opacity="0.56"/>
<rect x="571.4" y="102" width="63.1" height="42" fill="#df7774" opacity="0.56"/>
<rect x="641.5" y="102" width="63.1" height="42" fill="#5b84d7" opacity="0.82"/>
<rect x="711.6" y="102" width="63.1" height="42" fill="#f4d7ad" opacity="0.66"/>
<rect x="781.8" y="102" width="63.1" height="42" fill="#f4d7ad" opacity="0.66"/>
<rect x="851.9" y="102" width="63.1" height="42" fill="#df7774" opacity="0.56"/>
<rect x="922.0" y="102" width="63.1" height="42" fill="#df7774" opacity="0.56"/>
<rect x="992.2" y="102" width="63.1" height="42" fill="#df7774" opacity="0.56"/>
<rect x="1062.3" y="102" width="63.1" height="42" fill="#df7774" opacity="0.56"/>
<rect x="1132.4" y="102" width="63.1" height="42" fill="#df7774" opacity="0.56"/>
<rect x="112.0" y="70.0" width="18" height="12" fill="#5b84d7" opacity="0.82"/>
<text x="137.0" y="80.0" text-anchor="start" font-family="Helvetica, Arial, sans-serif" font-size="12" fill="#374151" font-weight="600">Cold start</text>
<rect x="234.0" y="70.0" width="18" height="12" fill="#f4d7ad" opacity="0.82"/>
<text x="259.0" y="80.0" text-anchor="start" font-family="Helvetica, Arial, sans-serif" font-size="12" fill="#374151" font-weight="600">Warmup</text>
<rect x="338.0" y="70.0" width="18" height="12" fill="#df7774" opacity="0.82"/>
<text x="363.0" y="80.0" text-anchor="start" font-family="Helvetica, Arial, sans-serif" font-size="12" fill="#374151" font-weight="600">Hot</text>
<line x1="112" y1="608.0" x2="1164" y2="608.0" stroke="#e5e7eb"/>
<text x="98.0" y="613.0" text-anchor="end" font-family="Helvetica, Arial, sans-serif" font-size="14" fill="#111827">0</text>
<line x1="112" y1="506.8" x2="1164" y2="506.8" stroke="#e5e7eb"/>
<text x="98.0" y="511.8" text-anchor="end" font-family="Helvetica, Arial, sans-serif" font-size="14" fill="#111827">400</text>
<line x1="112" y1="405.6" x2="1164" y2="405.6" stroke="#e5e7eb"/>
<text x="98.0" y="410.6" text-anchor="end" font-family="Helvetica, Arial, sans-serif" font-size="14" fill="#111827">800</text>
<line x1="112" y1="304.4" x2="1164" y2="304.4" stroke="#e5e7eb"/>
<text x="98.0" y="309.4" text-anchor="end" font-family="Helvetica, Arial, sans-serif" font-size="14" fill="#111827">1200</text>
<line x1="112" y1="203.2" x2="1164" y2="203.2" stroke="#e5e7eb"/>
<text x="98.0" y="208.2" text-anchor="end" font-family="Helvetica, Arial, sans-serif" font-size="14" fill="#111827">1600</text>
<line x1="112" y1="102.0" x2="1164" y2="102.0" stroke="#e5e7eb"/>
<text x="98.0" y="107.0" text-anchor="end" font-family="Helvetica, Arial, sans-serif" font-size="14" fill="#111827">2000</text>
<line x1="112.0" y1="102" x2="112.0" y2="608" stroke="#111827" stroke-dasharray="5 7" opacity="0.38"/>
<text x="120.0" y="120.0" text-anchor="start" font-family="Helvetica, Arial, sans-serif" font-size="11" fill="#374151" font-weight="600">pod 1 start</text>
<line x1="673.1" y1="102" x2="673.1" y2="608" stroke="#111827" stroke-dasharray="5 7" opacity="0.38"/>
<text x="681.1" y="120.0" text-anchor="start" font-family="Helvetica, Arial, sans-serif" font-size="11" fill="#374151" font-weight="600">pod 2 start</text>
<polyline points="112.0,269.6 182.1,357.3 252.3,344.9 322.4,192.4 392.5,327.5 462.7,344.2 532.8,362.5 602.9,356.7 673.1,257.8 743.2,341.0 813.3,299.7 883.5,342.3 953.6,255.9 1023.7,336.7 1093.9,320.4 1164.0,334.1" fill="none" stroke="#334155" stroke-width="2.8"/>
<circle cx="112.0" cy="269.6" r="4.7" fill="#334155"/>
<circle cx="182.1" cy="357.3" r="3.7" fill="#334155"/>
<circle cx="252.3" cy="344.9" r="3.7" fill="#334155"/>
<circle cx="322.4" cy="192.4" r="3.7" fill="#334155"/>
<circle cx="392.5" cy="327.5" r="3.7" fill="#334155"/>
<circle cx="462.7" cy="344.2" r="3.7" fill="#334155"/>
<circle cx="532.8" cy="362.5" r="3.7" fill="#334155"/>
<circle cx="602.9" cy="356.7" r="3.7" fill="#334155"/>
<circle cx="673.1" cy="257.8" r="4.7" fill="#334155"/>
<circle cx="743.2" cy="341.0" r="3.7" fill="#334155"/>
<circle cx="813.3" cy="299.7" r="3.7" fill="#334155"/>
<circle cx="883.5" cy="342.3" r="3.7" fill="#334155"/>
<circle cx="953.6" cy="255.9" r="3.7" fill="#334155"/>
<circle cx="1023.7" cy="336.7" r="3.7" fill="#334155"/>
<circle cx="1093.9" cy="320.4" r="3.7" fill="#334155"/>
<circle cx="1164.0" cy="334.1" r="3.7" fill="#334155"/>
<polyline points="112.0,301.0 182.1,391.8 252.3,396.3 322.4,391.5 392.5,392.6 462.7,394.3 532.8,394.8 602.9,394.2 673.1,302.8 743.2,389.7 813.3,379.3 883.5,390.6 953.6,394.7 1023.7,393.5 1093.9,397.0 1164.0,376.1" fill="none" stroke="#0f766e" stroke-width="2.8"/>
<circle cx="112.0" cy="301.0" r="4.7" fill="#0f766e"/>
<circle cx="182.1" cy="391.8" r="3.7" fill="#0f766e"/>
<circle cx="252.3" cy="396.3" r="3.7" fill="#0f766e"/>
<circle cx="322.4" cy="391.5" r="3.7" fill="#0f766e"/>
<circle cx="392.5" cy="392.6" r="3.7" fill="#0f766e"/>
<circle cx="462.7" cy="394.3" r="3.7" fill="#0f766e"/>
<circle cx="532.8" cy="394.8" r="3.7" fill="#0f766e"/>
<circle cx="602.9" cy="394.2" r="3.7" fill="#0f766e"/>
<circle cx="673.1" cy="302.8" r="4.7" fill="#0f766e"/>
<circle cx="743.2" cy="389.7" r="3.7" fill="#0f766e"/>
<circle cx="813.3" cy="379.3" r="3.7" fill="#0f766e"/>
<circle cx="883.5" cy="390.6" r="3.7" fill="#0f766e"/>
<circle cx="953.6" cy="394.7" r="3.7" fill="#0f766e"/>
<circle cx="1023.7" cy="393.5" r="3.7" fill="#0f766e"/>
<circle cx="1093.9" cy="397.0" r="3.7" fill="#0f766e"/>
<circle cx="1164.0" cy="376.1" r="3.7" fill="#0f766e"/>
<line x1="112.0" y1="608" x2="112.0" y2="615" stroke="#111827"/>
<text x="112.0" y="637.0" text-anchor="middle" font-family="Helvetica, Arial, sans-serif" font-size="14" fill="#111827">1</text>
<line x1="182.1" y1="608" x2="182.1" y2="615" stroke="#111827"/>
<text x="182.1" y="637.0" text-anchor="middle" font-family="Helvetica, Arial, sans-serif" font-size="14" fill="#111827">2</text>
<line x1="252.3" y1="608" x2="252.3" y2="615" stroke="#111827"/>
<text x="252.3" y="637.0" text-anchor="middle" font-family="Helvetica, Arial, sans-serif" font-size="14" fill="#111827">3</text>
<line x1="322.4" y1="608" x2="322.4" y2="615" stroke="#111827"/>
<text x="322.4" y="637.0" text-anchor="middle" font-family="Helvetica, Arial, sans-serif" font-size="14" fill="#111827">4</text>
<line x1="392.5" y1="608" x2="392.5" y2="615" stroke="#111827"/>
<text x="392.5" y="637.0" text-anchor="middle" font-family="Helvetica, Arial, sans-serif" font-size="14" fill="#111827">5</text>
<line x1="462.7" y1="608" x2="462.7" y2="615" stroke="#111827"/>
<text x="462.7" y="637.0" text-anchor="middle" font-family="Helvetica, Arial, sans-serif" font-size="14" fill="#111827">6</text>
<line x1="532.8" y1="608" x2="532.8" y2="615" stroke="#111827"/>
<text x="532.8" y="637.0" text-anchor="middle" font-family="Helvetica, Arial, sans-serif" font-size="14" fill="#111827">7</text>
<line x1="602.9" y1="608" x2="602.9" y2="615" stroke="#111827"/>
<text x="602.9" y="637.0" text-anchor="middle" font-family="Helvetica, Arial, sans-serif" font-size="14" fill="#111827">8</text>
<line x1="673.1" y1="608" x2="673.1" y2="615" stroke="#111827"/>
<text x="673.1" y="637.0" text-anchor="middle" font-family="Helvetica, Arial, sans-serif" font-size="14" fill="#111827">9</text>
<line x1="743.2" y1="608" x2="743.2" y2="615" stroke="#111827"/>
<text x="743.2" y="637.0" text-anchor="middle" font-family="Helvetica, Arial, sans-serif" font-size="14" fill="#111827">10</text>
<line x1="813.3" y1="608" x2="813.3" y2="615" stroke="#111827"/>
<text x="813.3" y="637.0" text-anchor="middle" font-family="Helvetica, Arial, sans-serif" font-size="14" fill="#111827">11</text>
<line x1="883.5" y1="608" x2="883.5" y2="615" stroke="#111827"/>
<text x="883.5" y="637.0" text-anchor="middle" font-family="Helvetica, Arial, sans-serif" font-size="14" fill="#111827">12</text>
<line x1="953.6" y1="608" x2="953.6" y2="615" stroke="#111827"/>
<text x="953.6" y="637.0" text-anchor="middle" font-family="Helvetica, Arial, sans-serif" font-size="14" fill="#111827">13</text>
<line x1="1023.7" y1="608" x2="1023.7" y2="615" stroke="#111827"/>
<text x="1023.7" y="637.0" text-anchor="middle" font-family="Helvetica, Arial, sans-serif" font-size="14" fill="#111827">14</text>
<line x1="1093.9" y1="608" x2="1093.9" y2="615" stroke="#111827"/>
<text x="1093.9" y="637.0" text-anchor="middle" font-family="Helvetica, Arial, sans-serif" font-size="14" fill="#111827">15</text>
<line x1="1164.0" y1="608" x2="1164.0" y2="615" stroke="#111827"/>
<text x="1164.0" y="637.0" text-anchor="middle" font-family="Helvetica, Arial, sans-serif" font-size="14" fill="#111827">16</text>
<line x1="112" y1="608" x2="1164" y2="608" stroke="#111827"/>
<line x1="112" y1="102" x2="112" y2="608" stroke="#111827"/>
<text x="638.0" y="666.0" text-anchor="middle" font-family="Helvetica, Arial, sans-serif" font-size="24" fill="#111827">Invocation Number</text>
<text x="42" y="355.0" text-anchor="middle" font-family="Helvetica, Arial, sans-serif" font-size="24" fill="#111827" transform="rotate(-90 42 355.0)">Latency (ms)</text>
<text x="112.0" y="694.0" text-anchor="start" font-family="Helvetica, Arial, sans-serif" font-size="13" fill="#111827">Cold median: No saved specialization state 1360.9 ms, Saved specialization artifact 1209.7 ms. Hot median: 1077.4 ms vs 846.5 ms. Saved-state wins 16/16 requests.</text>
<line x1="854.0" y1="188.0" x2="888.0" y2="188.0" stroke="#334155" stroke-width="3"/>
<circle cx="871.0" cy="188.0" r="4" fill="#334155"/>
<text x="898.0" y="193.0" text-anchor="start" font-family="Helvetica, Arial, sans-serif" font-size="13" fill="#111827">No saved specialization state</text>
<line x1="854.0" y1="216.0" x2="888.0" y2="216.0" stroke="#0f766e" stroke-width="3"/>
<circle cx="871.0" cy="216.0" r="4" fill="#0f766e"/>
<text x="898.0" y="221.0" text-anchor="start" font-family="Helvetica, Arial, sans-serif" font-size="13" fill="#111827">Saved specialization artifact</text>
</svg>
