<svg xmlns="http://www.w3.org/2000/svg" width="1120" height="680" viewBox="0 0 1120 680">
<rect width="100%" height="100%" fill="#ffffff"/>
<text x="560.0" y="36" text-anchor="middle" font-family="Georgia, Times New Roman, serif" font-size="28" font-weight="700" fill="#111827">Python h2 profile specialization</text>
<text x="560.0" y="62" text-anchor="middle" font-family="Helvetica, Arial, sans-serif" font-size="13" fill="#374151">Saved runtime profile artifact versus not saving warm state</text>
<rect x="118.0" y="96" width="25.4" height="44" fill="#5b84d7" opacity="0.85"/>
<rect x="143.4" y="96" width="355.4" height="44" fill="#f4d7ad" opacity="0.9"/>
<rect x="498.8" y="96" width="571.2" height="44" fill="#df7774" opacity="0.9"/>
<text x="321.1" y="126" text-anchor="middle" font-family="Helvetica, Arial, sans-serif" font-size="26" font-weight="700" fill="#111827">Warm</text>
<text x="784.4" y="126" text-anchor="middle" font-family="Helvetica, Arial, sans-serif" font-size="26" font-weight="700" fill="#111827">Hot</text>
<line x1="118" y1="588.0" x2="1070" y2="588.0" stroke="#cbd5e1"/>
<text x="104" y="593.0" text-anchor="end" font-family="Helvetica, Arial, sans-serif" font-size="18" fill="#111827">10<tspan baseline-shift="super" font-size="12">2</tspan></text>
<line x1="118" y1="439.9" x2="1070" y2="439.9" stroke="#e5e7eb"/>
<line x1="118" y1="244.1" x2="1070" y2="244.1" stroke="#e5e7eb"/>
<line x1="118" y1="96.0" x2="1070" y2="96.0" stroke="#cbd5e1"/>
<text x="104" y="101.0" text-anchor="end" font-family="Helvetica, Arial, sans-serif" font-size="18" fill="#111827">10<tspan baseline-shift="super" font-size="12">3</tspan></text>
<line x1="143.4" y1="96" x2="143.4" y2="588" stroke="#f4c08a" stroke-dasharray="7 7" stroke-width="2.0" opacity="0.95"/>
<line x1="498.8" y1="96" x2="498.8" y2="588" stroke="#df7774" stroke-dasharray="7 7" stroke-width="2.0" opacity="0.95"/>
<line x1="118.0" y1="588" x2="118.0" y2="595" stroke="#111827"/>
<text x="118.0" y="619" text-anchor="middle" font-family="Helvetica, Arial, sans-serif" font-size="16" fill="#111827">1</text>
<line x1="371.9" y1="588" x2="371.9" y2="595" stroke="#111827"/>
<text x="371.9" y="619" text-anchor="middle" font-family="Helvetica, Arial, sans-serif" font-size="16" fill="#111827">5</text>
<line x1="689.2" y1="588" x2="689.2" y2="595" stroke="#111827"/>
<text x="689.2" y="619" text-anchor="middle" font-family="Helvetica, Arial, sans-serif" font-size="16" fill="#111827">10</text>
<line x1="1006.5" y1="588" x2="1006.5" y2="595" stroke="#111827"/>
<text x="1006.5" y="619" text-anchor="middle" font-family="Helvetica, Arial, sans-serif" font-size="16" fill="#111827">15</text>
<line x1="1070.0" y1="588" x2="1070.0" y2="595" stroke="#111827"/>
<text x="1070.0" y="619" text-anchor="middle" font-family="Helvetica, Arial, sans-serif" font-size="16" fill="#111827">16</text>
<line x1="118" y1="588" x2="1070" y2="588" stroke="#111827"/>
<line x1="118" y1="96" x2="118" y2="588" stroke="#111827"/>
<polyline points="118.0,342.9 181.5,343.5 244.9,345.5 308.4,343.9 371.9,342.4 435.3,346.4 498.8,342.4 562.3,343.5 625.7,343.2 689.2,343.5 752.7,343.2 816.1,340.4 879.6,339.9 943.1,340.0 1006.5,343.0 1070.0,343.7" fill="none" stroke="#334155" stroke-width="2.8"/>
<circle cx="118.0" cy="342.9" r="4.0" fill="#334155"/>
<circle cx="181.5" cy="343.5" r="4.0" fill="#334155"/>
<circle cx="244.9" cy="345.5" r="4.0" fill="#334155"/>
<circle cx="308.4" cy="343.9" r="4.0" fill="#334155"/>
<circle cx="371.9" cy="342.4" r="4.0" fill="#334155"/>
<circle cx="435.3" cy="346.4" r="4.0" fill="#334155"/>
<circle cx="498.8" cy="342.4" r="4.0" fill="#334155"/>
<circle cx="562.3" cy="343.5" r="4.0" fill="#334155"/>
<circle cx="625.7" cy="343.2" r="4.0" fill="#334155"/>
<circle cx="689.2" cy="343.5" r="4.0" fill="#334155"/>
<circle cx="752.7" cy="343.2" r="4.0" fill="#334155"/>
<circle cx="816.1" cy="340.4" r="4.0" fill="#334155"/>
<circle cx="879.6" cy="339.9" r="4.0" fill="#334155"/>
<circle cx="943.1" cy="340.0" r="4.0" fill="#334155"/>
<circle cx="1006.5" cy="343.0" r="4.0" fill="#334155"/>
<circle cx="1070.0" cy="343.7" r="4.0" fill="#334155"/>
<polyline points="118.0,380.8 181.5,382.7 244.9,376.5 308.4,374.9 371.9,380.3 435.3,375.7 498.8,373.6 562.3,378.3 625.7,379.2 689.2,376.6 752.7,378.2 816.1,370.1 879.6,370.0 943.1,374.3 1006.5,380.1 1070.0,368.5" fill="none" stroke="#0f766e" stroke-width="2.8"/>
<circle cx="118.0" cy="380.8" r="4.0" fill="#0f766e"/>
<circle cx="181.5" cy="382.7" r="4.0" fill="#0f766e"/>
<circle cx="244.9" cy="376.5" r="4.0" fill="#0f766e"/>
<circle cx="308.4" cy="374.9" r="4.0" fill="#0f766e"/>
<circle cx="371.9" cy="380.3" r="4.0" fill="#0f766e"/>
<circle cx="435.3" cy="375.7" r="4.0" fill="#0f766e"/>
<circle cx="498.8" cy="373.6" r="4.0" fill="#0f766e"/>
<circle cx="562.3" cy="378.3" r="4.0" fill="#0f766e"/>
<circle cx="625.7" cy="379.2" r="4.0" fill="#0f766e"/>
<circle cx="689.2" cy="376.6" r="4.0" fill="#0f766e"/>
<circle cx="752.7" cy="378.2" r="4.0" fill="#0f766e"/>
<circle cx="816.1" cy="370.1" r="4.0" fill="#0f766e"/>
<circle cx="879.6" cy="370.0" r="4.0" fill="#0f766e"/>
<circle cx="943.1" cy="374.3" r="4.0" fill="#0f766e"/>
<circle cx="1006.5" cy="380.1" r="4.0" fill="#0f766e"/>
<circle cx="1070.0" cy="368.5" r="4.0" fill="#0f766e"/>
<line x1="118" y1="343.1" x2="990.0" y2="343.1" stroke="#7e22ce" stroke-dasharray="7 5" stroke-width="2"/>
<line x1="118" y1="375.5" x2="990.0" y2="375.5" stroke="#7e22ce" stroke-dasharray="7 5" stroke-width="2"/>
<line x1="990.0" y1="343.1" x2="990.0" y2="375.5" stroke="#111827" stroke-width="2.4"/>
<path d="M 983.0 352.1 L 990.0 343.1 L 997.0 352.1" fill="none" stroke="#111827" stroke-width="2.4"/>
<path d="M 983.0 366.5 L 990.0 375.5 L 997.0 366.5" fill="none" stroke="#111827" stroke-width="2.4"/>
<text x="1006.0" y="364.3" font-family="Helvetica, Arial, sans-serif" font-size="18" font-weight="700" fill="#111827">1.16x</text>
<text x="118" y="654" font-family="Helvetica, Arial, sans-serif" font-size="13" fill="#111827">Hot median: No saved specialization state 314.6 ms, Saved specialization artifact 270.4 ms; saved-state line below no-save baseline on 10/10 hot requests.</text>
<rect x="136.0" y="402.8" width="80" height="30" rx="3" fill="#5b84d7" opacity="0.9"/>
<text x="176.0" y="424.8" text-anchor="middle" font-family="Helvetica, Arial, sans-serif" font-size="22" font-weight="700" fill="#111827">Cold</text>
<line x1="216.0" y1="402.8" x2="112.0" y2="384.8" stroke="#111827" stroke-width="2.2"/>
<line x1="820" y1="518" x2="852" y2="518" stroke="#334155" stroke-width="3"/>
<circle cx="836" cy="518" r="4" fill="#334155"/>
<text x="862" y="522" font-family="Helvetica, Arial, sans-serif" font-size="13" fill="#111827">No saved specialization state</text>
<line x1="820" y1="544" x2="852" y2="544" stroke="#0f766e" stroke-width="3"/>
<circle cx="836" cy="544" r="4" fill="#0f766e"/>
<text x="862" y="548" font-family="Helvetica, Arial, sans-serif" font-size="13" fill="#111827">Saved specialization artifact</text>
<text x="594.0" y="632" text-anchor="middle" font-family="Helvetica, Arial, sans-serif" font-size="24" fill="#111827">Request Number</text>
<text x="42" y="342.0" text-anchor="middle" font-family="Helvetica, Arial, sans-serif" font-size="24" fill="#111827" transform="rotate(-90 42 342.0)">Latency (ms)</text>
</svg>
